<svg xmlns="http://www.w3.org/2000/svg" width="704" height="140" viewBox="0 0 704 140" fill="none"><mask id="path-1-outside-1_0_269" maskUnits="userSpaceOnUse" x="-1" y="-1" width="707" height="142" fill="black"><rect fill="white" x="-1" y="-1" width="707" height="142"></rect><path d="M67.32 139.16C57.84 139.16 49.02 137.42 40.86 133.94C32.82 130.46 25.8 125.66 19.8 119.54C13.92 113.3 9.3 105.98 5.94 97.58C2.58 89.18 0.900001 79.94 0.900001 69.86C0.900001 59.9 2.52 50.72 5.76 42.32C9.12 33.8 13.8 26.48 19.8 20.36C25.8 14.12 32.82 9.31999 40.86 5.95999C48.9 2.47999 57.72 0.739995 67.32 0.739995C76.8 0.739995 85.26 2.36 92.7 5.6C100.26 8.84 106.62 13.1 111.78 18.38C116.94 23.54 120.66 29.18 122.94 35.3L103.86 44.3C100.98 37.1 96.36 31.28 90 26.84C83.76 22.28 76.2 20 67.32 20C58.44 20 50.58 22.1 43.74 26.3C36.9 30.5 31.56 36.32 27.72 43.76C24 51.2 22.14 59.9 22.14 69.86C22.14 79.82 24 88.58 27.72 96.14C31.56 103.58 36.9 109.4 43.74 113.6C50.58 117.68 58.44 119.72 67.32 119.72C76.2 119.72 83.76 117.5 90 113.06C96.36 108.62 100.98 102.8 103.86 95.6L122.94 104.6C120.66 110.6 116.94 116.24 111.78 121.52C106.62 126.8 100.26 131.06 92.7 134.3C85.26 137.54 76.8 139.16 67.32 139.16ZM188.024 139.16C178.664 139.16 170.084 136.94 162.284 132.5C154.604 128.06 148.484 122 143.924 114.32C139.364 106.64 137.084 97.94 137.084 88.22C137.084 78.38 139.364 69.68 143.924 62.12C148.484 54.44 154.604 48.44 162.284 44.12C169.964 39.68 178.544 37.46 188.024 37.46C197.624 37.46 206.204 39.68 213.764 44.12C221.444 48.44 227.504 54.44 231.944 62.12C236.504 69.68 238.784 78.38 238.784 88.22C238.784 98.06 236.504 106.82 231.944 114.5C227.384 122.18 221.264 128.24 213.584 132.68C205.904 137 197.384 139.16 188.024 139.16ZM188.024 120.26C193.784 120.26 198.884 118.88 203.324 116.12C207.764 113.36 211.244 109.58 213.764 104.78C216.404 99.86 217.724 94.34 217.724 88.22C217.724 82.1 216.404 76.64 213.764 71.84C211.244 67.04 207.764 63.26 203.324 60.5C198.884 57.74 193.784 56.36 188.024 56.36C182.384 56.36 177.284 57.74 172.724 60.5C168.284 63.26 164.744 67.04 162.104 71.84C159.584 76.64 158.324 82.1 158.324 88.22C158.324 94.34 159.584 99.86 162.104 104.78C164.744 109.58 168.284 113.36 172.724 116.12C177.284 118.88 182.384 120.26 188.024 120.26ZM293.382 139.16C286.062 139.16 279.642 137.54 274.122 134.3C268.602 130.94 264.282 126.32 261.162 120.44C258.162 114.44 256.662 107.54 256.662 99.74V39.62H277.002V97.94C277.002 102.38 277.902 106.28 279.702 109.64C281.502 113 284.022 115.64 287.262 117.56C290.502 119.36 294.222 120.26 298.422 120.26C302.742 120.26 306.522 119.3 309.762 117.38C313.002 115.46 315.522 112.76 317.322 109.28C319.242 105.8 320.202 101.72 320.202 97.04V39.62H340.362V137H321.102V117.92L323.262 120.44C320.982 126.44 317.202 131.06 311.922 134.3C306.642 137.54 300.462 139.16 293.382 139.16ZM364.11 137V39.62H383.55V59.24L381.75 56.36C383.91 50 387.39 45.44 392.19 42.68C396.99 39.8 402.75 38.36 409.47 38.36H415.41V56.9H406.95C400.23 56.9 394.77 59 390.57 63.2C386.49 67.28 384.45 73.16 384.45 80.84V137H364.11ZM465.325 139.16C455.365 139.16 446.605 136.7 439.045 131.78C431.605 126.86 426.385 120.26 423.385 111.98L439.045 104.6C441.685 110.12 445.285 114.5 449.845 117.74C454.525 120.98 459.685 122.6 465.325 122.6C470.125 122.6 474.025 121.52 477.025 119.36C480.025 117.2 481.525 114.26 481.525 110.54C481.525 108.14 480.865 106.22 479.545 104.78C478.225 103.22 476.545 101.96 474.505 101C472.585 100.04 470.605 99.32 468.565 98.84L453.265 94.52C444.865 92.12 438.565 88.52 434.365 83.72C430.285 78.8 428.245 73.1 428.245 66.62C428.245 60.74 429.745 55.64 432.745 51.32C435.745 46.88 439.885 43.46 445.165 41.06C450.445 38.66 456.385 37.46 462.985 37.46C471.865 37.46 479.785 39.68 486.745 44.12C493.705 48.44 498.625 54.5 501.505 62.3L485.845 69.68C483.925 65 480.865 61.28 476.665 58.52C472.585 55.76 467.965 54.38 462.805 54.38C458.365 54.38 454.825 55.46 452.185 57.62C449.545 59.66 448.225 62.36 448.225 65.72C448.225 68 448.825 69.92 450.025 71.48C451.225 72.92 452.785 74.12 454.705 75.08C456.625 75.92 458.605 76.64 460.645 77.24L476.485 81.92C484.525 84.2 490.705 87.8 495.025 92.72C499.345 97.52 501.505 103.28 501.505 110C501.505 115.76 499.945 120.86 496.825 125.3C493.825 129.62 489.625 133.04 484.225 135.56C478.825 137.96 472.525 139.16 465.325 139.16ZM567.155 139.16C557.435 139.16 548.795 136.94 541.235 132.5C533.795 127.94 527.975 121.82 523.775 114.14C519.575 106.34 517.475 97.64 517.475 88.04C517.475 78.2 519.575 69.5 523.775 61.94C528.095 54.38 533.855 48.44 541.055 44.12C548.255 39.68 556.415 37.46 565.535 37.46C572.855 37.46 579.395 38.72 585.155 41.24C590.915 43.76 595.775 47.24 599.735 51.68C603.695 56 606.695 60.98 608.735 66.62C610.895 72.26 611.975 78.26 611.975 84.62C611.975 86.18 611.915 87.8 611.795 89.48C611.675 91.16 611.435 92.72 611.075 94.16H533.495V77.96H599.555L589.835 85.34C591.035 79.46 590.615 74.24 588.575 69.68C586.655 65 583.655 61.34 579.575 58.7C575.615 55.94 570.935 54.56 565.535 54.56C560.135 54.56 555.335 55.94 551.135 58.7C546.935 61.34 543.695 65.18 541.415 70.22C539.135 75.14 538.235 81.14 538.715 88.22C538.115 94.82 539.015 100.58 541.415 105.5C543.935 110.42 547.415 114.26 551.855 117.02C556.415 119.78 561.575 121.16 567.335 121.16C573.215 121.16 578.195 119.84 582.275 117.2C586.475 114.56 589.775 111.14 592.175 106.94L608.735 115.04C606.815 119.6 603.815 123.74 599.735 127.46C595.775 131.06 590.975 133.94 585.335 136.1C579.815 138.14 573.755 139.16 567.155 139.16ZM667.825 139.16C657.865 139.16 649.105 136.7 641.545 131.78C634.105 126.86 628.885 120.26 625.885 111.98L641.545 104.6C644.185 110.12 647.785 114.5 652.345 117.74C657.025 120.98 662.185 122.6 667.825 122.6C672.625 122.6 676.525 121.52 679.525 119.36C682.525 117.2 684.025 114.26 684.025 110.54C684.025 108.14 683.365 106.22 682.045 104.78C680.725 103.22 679.045 101.96 677.005 101C675.085 100.04 673.105 99.32 671.065 98.84L655.765 94.52C647.365 92.12 641.065 88.52 636.865 83.72C632.785 78.8 630.745 73.1 630.745 66.62C630.745 60.74 632.245 55.64 635.245 51.32C638.245 46.88 642.385 43.46 647.665 41.06C652.945 38.66 658.885 37.46 665.485 37.46C674.365 37.46 682.285 39.68 689.245 44.12C696.205 48.44 701.125 54.5 704.005 62.3L688.345 69.68C686.425 65 683.365 61.28 679.165 58.52C675.085 55.76 670.465 54.38 665.305 54.38C660.865 54.38 657.325 55.46 654.685 57.62C652.045 59.66 650.725 62.36 650.725 65.72C650.725 68 651.325 69.92 652.525 71.48C653.725 72.92 655.285 74.12 657.205 75.08C659.125 75.92 661.105 76.64 663.145 77.24L678.985 81.92C687.025 84.2 693.205 87.8 697.525 92.72C701.845 97.52 704.005 103.28 704.005 110C704.005 115.76 702.445 120.86 699.325 125.3C696.325 129.62 692.125 133.04 686.725 135.56C681.325 137.96 675.025 139.16 667.825 139.16Z"></path></mask><path d="M40.86 133.94L40.4628 134.858L40.4677 134.86L40.86 133.94ZM19.8 119.54L19.0722 120.226L19.079 120.233L19.0859 120.24L19.8 119.54ZM5.94 97.58L6.86848 97.2086L5.94 97.58ZM5.76 42.32L4.8297 41.9531L4.827 41.9601L5.76 42.32ZM19.8 20.36L20.5141 21.0601L20.5208 21.0531L19.8 20.36ZM40.86 5.95999L41.2456 6.88273L41.2572 6.87771L40.86 5.95999ZM92.7 5.6L92.3007 6.51685L92.3061 6.51914L92.7 5.6ZM111.78 18.38L111.065 19.079L111.073 19.0871L111.78 18.38ZM122.94 35.3L123.367 36.2044L124.198 35.8123L123.877 34.9509L122.94 35.3ZM103.86 44.3L102.932 44.6714L103.326 45.6576L104.287 45.2044L103.86 44.3ZM90 26.84L89.41 27.6474L89.4187 27.6538L89.4276 27.66L90 26.84ZM43.74 26.3L44.2633 27.1522L43.74 26.3ZM27.72 43.76L26.8313 43.3013L26.8256 43.3128L27.72 43.76ZM27.72 96.14L26.8227 96.5815L26.827 96.5901L26.8314 96.5986L27.72 96.14ZM43.74 113.6L43.2167 114.452L43.2277 114.459L43.74 113.6ZM90 113.06L89.4276 112.24L89.4202 112.245L90 113.06ZM103.86 95.6L104.287 94.6956L103.326 94.2424L102.932 95.2286L103.86 95.6ZM122.94 104.6L123.875 104.955L124.203 104.09L123.367 103.696L122.94 104.6ZM111.78 121.52L111.065 120.821L111.78 121.52ZM92.7 134.3L92.3061 133.381L92.3007 133.383L92.7 134.3ZM67.32 138.16C57.9655 138.16 49.2799 136.444 41.2523 133.02L40.4677 134.86C48.7601 138.396 57.7146 140.16 67.32 140.16V138.16ZM41.2572 133.022C33.3332 129.592 26.4215 124.865 20.5141 118.84L19.0859 120.24C25.1785 126.455 32.3068 131.328 40.4628 134.858L41.2572 133.022ZM20.5278 118.854C14.7385 112.71 10.1845 105.499 6.86848 97.2086L5.01152 97.9514C8.41551 106.461 13.1015 113.89 19.0722 120.226L20.5278 118.854ZM6.86848 97.2086C3.56083 88.9395 1.9 79.8273 1.9 69.86H-0.0999994C-0.0999994 80.0527 1.59917 89.4205 5.01152 97.9514L6.86848 97.2086ZM1.9 69.86C1.9 60.01 3.50176 50.9535 6.693 42.6799L4.827 41.9601C1.53825 50.4865 -0.0999994 59.79 -0.0999994 69.86H1.9ZM6.69027 42.6869C10.0046 34.2826 14.614 27.0782 20.5141 21.0601L19.0859 19.6599C12.986 25.8818 8.23538 33.3174 4.82973 41.9531L6.69027 42.6869ZM20.5208 21.0531C26.4253 14.9124 33.331 10.1902 41.2456 6.88266L40.4744 5.03732C32.309 8.44974 25.1747 13.3276 19.0792 19.6669L20.5208 21.0531ZM41.2572 6.87771C49.1603 3.457 57.8435 1.73999 67.32 1.73999V-0.260005C57.5965 -0.260005 48.6397 1.50299 40.4628 5.04227L41.2572 6.87771ZM67.32 1.73999C76.6855 1.73999 85.0061 3.34013 92.3007 6.51683L93.0993 4.68316C85.5139 1.37986 76.9145 -0.260005 67.32 -0.260005V1.73999ZM92.3061 6.51914C99.7593 9.7134 106.006 13.9028 111.065 19.0789L112.495 17.6811C107.234 12.2972 100.761 7.9666 93.0939 4.68085L92.3061 6.51914ZM111.073 19.0871C116.143 24.1576 119.779 29.6786 122.003 35.6491L123.877 34.9509C121.541 28.6814 117.737 22.9224 112.487 17.6729L111.073 19.0871ZM122.513 34.3956L103.433 43.3956L104.287 45.2044L123.367 36.2044L122.513 34.3956ZM104.788 43.9286C101.836 36.5475 97.0923 30.5716 90.5724 26.02L89.4276 27.66C95.6277 31.9884 100.124 37.6525 102.932 44.6714L104.788 43.9286ZM90.59 26.0326C84.154 21.3294 76.3793 19 67.32 19V21C76.0207 21 83.366 23.2306 89.41 27.6474L90.59 26.0326ZM67.32 19C58.2755 19 50.2306 21.1411 43.2167 25.4478L44.2633 27.1522C50.9294 23.0589 58.6045 21 67.32 21V19ZM43.2167 25.4478C36.2145 29.7474 30.7512 35.7066 26.8314 43.3014L28.6086 44.2186C32.3688 36.9334 37.5855 31.2525 44.2633 27.1522L43.2167 25.4478ZM26.8256 43.3128C23.0237 50.9164 21.14 59.7751 21.14 69.86H23.14C23.14 60.0249 24.9763 51.4835 28.6144 44.2072L26.8256 43.3128ZM21.14 69.86C21.14 79.9454 23.0239 88.8613 26.8227 96.5815L28.6173 95.6985C24.9761 88.2987 23.14 79.6946 23.14 69.86H21.14ZM26.8314 96.5986C30.7512 104.193 36.2145 110.153 43.2167 114.452L44.2633 112.748C37.5855 108.647 32.3688 102.967 28.6086 95.6814L26.8314 96.5986ZM43.2277 114.459C50.2399 118.642 58.2809 120.72 67.32 120.72V118.72C58.5991 118.72 50.9201 116.718 44.2523 112.741L43.2277 114.459ZM67.32 120.72C76.3736 120.72 84.1445 118.454 90.5798 113.875L89.4202 112.245C83.3755 116.546 76.0264 118.72 67.32 118.72V120.72ZM90.5724 113.88C97.0923 109.328 101.836 103.352 104.788 95.9714L102.932 95.2286C100.124 102.248 95.6277 107.912 89.4276 112.24L90.5724 113.88ZM103.433 96.5044L122.513 105.504L123.367 103.696L104.287 94.6956L103.433 96.5044ZM122.005 104.245C119.781 110.098 116.143 115.625 111.065 120.821L112.495 122.219C117.737 116.855 121.539 111.102 123.875 104.955L122.005 104.245ZM111.065 120.821C106.006 125.997 99.7593 130.187 92.3061 133.381L93.0939 135.219C100.761 131.933 107.234 127.603 112.495 122.219L111.065 120.821ZM92.3007 133.383C85.0061 136.56 76.6855 138.16 67.32 138.16V140.16C76.9145 140.16 85.5139 138.52 93.0993 135.217L92.3007 133.383ZM162.284 132.5L161.784 133.366L161.789 133.369L162.284 132.5ZM143.924 114.32L143.064 114.831L143.924 114.32ZM143.924 62.12L144.78 62.6365L144.784 62.6305L143.924 62.12ZM162.284 44.12L162.774 44.9916L162.785 44.9857L162.284 44.12ZM213.764 44.12L213.258 44.9823L213.266 44.987L213.274 44.9916L213.764 44.12ZM231.944 62.12L231.078 62.6205L231.083 62.6285L231.088 62.6365L231.944 62.12ZM231.944 114.5L232.804 115.011L231.944 114.5ZM213.584 132.68L214.074 133.552L214.085 133.546L213.584 132.68ZM203.324 116.12L203.852 116.969L203.324 116.12ZM213.764 104.78L212.883 104.307L212.879 104.315L213.764 104.78ZM213.764 71.84L212.879 72.3048L212.883 72.3134L212.888 72.3219L213.764 71.84ZM172.724 60.5L172.206 59.6444L172.196 59.6507L172.724 60.5ZM162.104 71.84L161.228 71.3581L161.223 71.3666L161.219 71.3752L162.104 71.84ZM162.104 104.78L161.214 105.236L161.221 105.249L161.228 105.262L162.104 104.78ZM172.724 116.12L172.196 116.969L172.206 116.976L172.724 116.12ZM188.024 138.16C178.83 138.16 170.421 135.981 162.779 131.631L161.789 133.369C169.747 137.899 178.498 140.16 188.024 140.16V138.16ZM162.785 131.634C155.254 127.281 149.257 121.343 144.784 113.809L143.064 114.831C147.711 122.657 153.954 128.839 161.784 133.366L162.785 131.634ZM144.784 113.809C140.324 106.297 138.084 97.7767 138.084 88.22H136.084C136.084 98.1033 138.404 106.983 143.064 114.831L144.784 113.809ZM138.084 88.22C138.084 78.5406 140.325 70.0232 144.78 62.6365L143.068 61.6035C138.403 69.3368 136.084 78.2194 136.084 88.22H138.084ZM144.784 62.6305C149.256 55.099 155.249 49.2245 162.774 44.9916L161.794 43.2484C153.959 47.6555 147.712 53.781 143.064 61.6095L144.784 62.6305ZM162.785 44.9857C170.302 40.6397 178.707 38.46 188.024 38.46V36.46C178.381 36.46 169.626 38.7203 161.784 43.2543L162.785 44.9857ZM188.024 38.46C197.463 38.46 205.866 40.6409 213.258 44.9823L214.27 43.2577C206.543 38.7191 197.785 36.46 188.024 36.46V38.46ZM213.274 44.9916C220.797 49.2231 226.727 55.0945 231.078 62.6205L232.81 61.6195C228.281 53.7855 222.092 47.6569 214.254 43.2484L213.274 44.9916ZM231.088 62.6365C235.543 70.0232 237.784 78.5406 237.784 88.22H239.784C239.784 78.2194 237.465 69.3368 232.8 61.6035L231.088 62.6365ZM237.784 88.22C237.784 97.8991 235.543 106.479 231.084 113.989L232.804 115.011C237.465 107.161 239.784 98.2209 239.784 88.22H237.784ZM231.084 113.989C226.611 121.523 220.614 127.461 213.084 131.814L214.085 133.546C221.914 129.019 228.157 122.837 232.804 115.011L231.084 113.989ZM213.094 131.808C205.573 136.039 197.223 138.16 188.024 138.16V140.16C197.545 140.16 206.235 137.961 214.074 133.552L213.094 131.808ZM188.024 121.26C193.951 121.26 199.238 119.838 203.852 116.969L202.796 115.271C198.53 117.922 193.617 119.26 188.024 119.26V121.26ZM203.852 116.969C208.449 114.112 212.05 110.196 214.649 105.245L212.879 104.315C210.438 108.964 207.079 112.608 202.796 115.271L203.852 116.969ZM214.645 105.253C217.371 100.174 218.724 94.4888 218.724 88.22H216.724C216.724 94.1912 215.438 99.5462 212.883 104.307L214.645 105.253ZM218.724 88.22C218.724 81.9516 217.371 76.3224 214.64 71.3581L212.888 72.3219C215.437 76.9576 216.724 82.2484 216.724 88.22H218.724ZM214.649 71.3752C212.05 66.4236 208.449 62.5083 203.852 59.6507L202.796 61.3493C207.079 64.0117 210.438 67.6564 212.879 72.3048L214.649 71.3752ZM203.852 59.6507C199.238 56.7823 193.951 55.36 188.024 55.36V57.36C193.617 57.36 198.53 58.6977 202.796 61.3493L203.852 59.6507ZM188.024 55.36C182.213 55.36 176.932 56.7844 172.206 59.6445L173.242 61.3555C177.636 58.6956 182.556 57.36 188.024 57.36V55.36ZM172.196 59.6507C167.603 62.5057 163.946 66.4152 161.228 71.3581L162.98 72.3219C165.542 67.6647 168.965 64.0143 173.252 61.3493L172.196 59.6507ZM161.219 71.3752C158.614 76.3361 157.324 81.9592 157.324 88.22H159.324C159.324 82.2408 160.554 76.9439 162.989 72.3048L161.219 71.3752ZM157.324 88.22C157.324 94.4813 158.614 100.16 161.214 105.236L162.994 104.324C160.554 99.5598 159.324 94.1987 159.324 88.22H157.324ZM161.228 105.262C163.946 110.205 167.603 114.114 172.196 116.969L173.252 115.271C168.965 112.606 165.542 108.955 162.98 104.298L161.228 105.262ZM172.206 116.976C176.932 119.836 182.213 121.26 188.024 121.26V119.26C182.556 119.26 177.636 117.924 173.242 115.264L172.206 116.976ZM274.122 134.3L273.602 135.154L273.609 135.158L273.616 135.162L274.122 134.3ZM261.162 120.44L260.267 120.887L260.273 120.898L260.278 120.909L261.162 120.44ZM256.662 39.62V38.62H255.662V39.62H256.662ZM277.002 39.62H278.002V38.62H277.002V39.62ZM279.702 109.64L280.583 109.168L279.702 109.64ZM287.262 117.56L286.752 118.42L286.764 118.427L286.776 118.434L287.262 117.56ZM309.762 117.38L310.272 118.24L309.762 117.38ZM317.322 109.28L316.446 108.797L316.44 108.809L316.434 108.821L317.322 109.28ZM320.202 39.62V38.62H319.202V39.62H320.202ZM340.362 39.62H341.362V38.62H340.362V39.62ZM340.362 137V138H341.362V137H340.362ZM321.102 137H320.102V138H321.102V137ZM321.102 117.92L321.861 117.269L320.102 115.217V117.92H321.102ZM323.262 120.44L324.197 120.795L324.407 120.24L324.021 119.789L323.262 120.44ZM311.922 134.3L312.445 135.152L311.922 134.3ZM293.382 138.16C286.214 138.16 279.973 136.575 274.628 133.438L273.616 135.162C279.31 138.505 285.91 140.16 293.382 140.16V138.16ZM274.642 133.446C269.28 130.182 265.083 125.697 262.045 119.971L260.278 120.909C263.48 126.943 267.923 131.698 273.602 135.154L274.642 133.446ZM262.056 119.993C259.136 114.153 257.662 107.41 257.662 99.74H255.662C255.662 107.67 257.187 114.727 260.267 120.887L262.056 119.993ZM257.662 99.74V39.62H255.662V99.74H257.662ZM256.662 40.62H277.002V38.62H256.662V40.62ZM276.002 39.62V97.94H278.002V39.62H276.002ZM276.002 97.94C276.002 102.518 276.931 106.585 278.82 110.112L280.583 109.168C278.873 105.975 278.002 102.242 278.002 97.94H276.002ZM278.82 110.112C280.705 113.631 283.353 116.406 286.752 118.42L287.772 116.7C284.69 114.874 282.298 112.369 280.583 109.168L278.82 110.112ZM286.776 118.434C290.184 120.327 294.075 121.26 298.422 121.26V119.26C294.369 119.26 290.82 118.393 287.747 116.686L286.776 118.434ZM298.422 121.26C302.894 121.26 306.856 120.265 310.272 118.24L309.252 116.52C306.188 118.335 302.589 119.26 298.422 119.26V121.26ZM310.272 118.24C313.679 116.221 316.327 113.379 318.21 109.739L316.434 108.821C314.716 112.141 312.324 114.699 309.252 116.52L310.272 118.24ZM318.197 109.763C320.212 106.111 321.202 101.859 321.202 97.04H319.202C319.202 101.581 318.271 105.489 316.446 108.797L318.197 109.763ZM321.202 97.04V39.62H319.202V97.04H321.202ZM320.202 40.62H340.362V38.62H320.202V40.62ZM339.362 39.62V137H341.362V39.62H339.362ZM340.362 136H321.102V138H340.362V136ZM322.102 137V117.92H320.102V137H322.102ZM320.342 118.571L322.502 121.091L324.021 119.789L321.861 117.269L320.342 118.571ZM322.327 120.085C320.122 125.886 316.483 130.328 311.399 133.448L312.445 135.152C317.92 131.792 321.841 126.994 324.197 120.795L322.327 120.085ZM311.399 133.448C306.298 136.578 300.304 138.16 293.382 138.16V140.16C300.619 140.16 306.986 138.502 312.445 135.152L311.399 133.448ZM364.11 137H363.11V138H364.11V137ZM364.11 39.62V38.62H363.11V39.62H364.11ZM383.55 39.62H384.55V38.62H383.55V39.62ZM383.55 59.24L382.702 59.77L384.55 62.7268V59.24H383.55ZM381.75 56.36L380.804 56.0384L380.651 56.4877L380.902 56.89L381.75 56.36ZM392.19 42.68L392.689 43.5469L392.697 43.5423L392.705 43.5375L392.19 42.68ZM415.41 38.36H416.41V37.36H415.41V38.36ZM415.41 56.9V57.9H416.41V56.9H415.41ZM384.45 137V138H385.45V137H384.45ZM365.11 137V39.62H363.11V137H365.11ZM364.11 40.62H383.55V38.62H364.11V40.62ZM382.55 39.62V59.24H384.55V39.62H382.55ZM384.398 58.71L382.598 55.83L380.902 56.89L382.702 59.77L384.398 58.71ZM382.697 56.6816C384.797 50.5005 388.142 46.1611 392.689 43.5469L391.692 41.8131C386.639 44.7188 383.024 49.4995 380.804 56.0384L382.697 56.6816ZM392.705 43.5375C397.321 40.7679 402.895 39.36 409.47 39.36V37.36C402.606 37.36 396.66 38.8321 391.676 41.8225L392.705 43.5375ZM409.47 39.36H415.41V37.36H409.47V39.36ZM414.41 38.36V56.9H416.41V38.36H414.41ZM415.41 55.9H406.95V57.9H415.41V55.9ZM406.95 55.9C400.003 55.9 394.276 58.0801 389.863 62.4929L391.278 63.9071C395.265 59.9199 400.458 57.9 406.95 57.9V55.9ZM389.863 62.4929C385.54 66.8161 383.45 72.9855 383.45 80.84H385.45C385.45 73.3345 387.441 67.7439 391.278 63.9071L389.863 62.4929ZM383.45 80.84V137H385.45V80.84H383.45ZM384.45 136H364.11V138H384.45V136ZM439.045 131.78L438.494 132.614L438.5 132.618L439.045 131.78ZM423.385 111.98L422.959 111.075L422.135 111.464L422.445 112.321L423.385 111.98ZM439.045 104.6L439.947 104.169L439.518 103.272L438.619 103.695L439.045 104.6ZM449.845 117.74L449.266 118.555L449.276 118.562L449.845 117.74ZM477.025 119.36L477.61 120.172L477.025 119.36ZM479.545 104.78L478.782 105.426L478.795 105.441L478.808 105.456L479.545 104.78ZM474.505 101L474.058 101.894L474.069 101.9L474.08 101.905L474.505 101ZM468.565 98.84L468.294 99.8024L468.315 99.8084L468.336 99.8134L468.565 98.84ZM453.265 94.52L452.991 95.4815L452.994 95.4824L453.265 94.52ZM434.365 83.72L433.596 84.3583L433.604 84.3685L433.613 84.3785L434.365 83.72ZM432.745 51.32L433.567 51.8904L433.574 51.8799L432.745 51.32ZM445.165 41.06L444.752 40.1496L445.165 41.06ZM486.745 44.12L486.207 44.9631L486.218 44.9696L486.745 44.12ZM501.505 62.3L501.932 63.2046L502.761 62.8137L502.443 61.9536L501.505 62.3ZM485.845 69.68L484.92 70.0596L485.32 71.0332L486.272 70.5846L485.845 69.68ZM476.665 58.52L476.105 59.3484L476.116 59.3557L476.665 58.52ZM452.185 57.62L452.797 58.4113L452.808 58.4028L452.819 58.394L452.185 57.62ZM450.025 71.48L449.233 72.0897L449.245 72.1052L449.257 72.1202L450.025 71.48ZM454.705 75.08L454.258 75.9744L454.281 75.9859L454.305 75.9962L454.705 75.08ZM460.645 77.24L460.929 76.281L460.927 76.2806L460.645 77.24ZM476.485 81.92L476.202 82.8791L476.212 82.8821L476.485 81.92ZM495.025 92.72L494.274 93.3799L494.282 93.389L495.025 92.72ZM496.825 125.3L496.007 124.725L496.004 124.73L496.825 125.3ZM484.225 135.56L484.631 136.474L484.64 136.47L484.648 136.466L484.225 135.56ZM465.325 138.16C455.538 138.16 446.972 135.745 439.591 130.942L438.5 132.618C446.239 137.655 455.193 140.16 465.325 140.16V138.16ZM439.597 130.946C432.334 126.143 427.251 119.715 424.326 111.639L422.445 112.321C425.519 120.805 430.877 127.577 438.494 132.614L439.597 130.946ZM423.812 112.885L439.472 105.505L438.619 103.695L422.959 111.075L423.812 112.885ZM438.143 105.031C440.849 110.69 444.555 115.208 449.266 118.555L450.425 116.925C446.016 113.792 442.521 109.55 439.947 104.169L438.143 105.031ZM449.276 118.562C454.122 121.917 459.48 123.6 465.325 123.6V121.6C459.891 121.6 454.929 120.043 450.415 116.918L449.276 118.562ZM465.325 123.6C470.273 123.6 474.395 122.486 477.61 120.172L476.441 118.548C473.656 120.554 469.978 121.6 465.325 121.6V123.6ZM477.61 120.172C480.873 117.822 482.525 114.579 482.525 110.54H480.525C480.525 113.941 479.178 116.578 476.441 118.548L477.61 120.172ZM482.525 110.54C482.525 107.95 481.808 105.769 480.282 104.104L478.808 105.456C479.923 106.671 480.525 108.33 480.525 110.54H482.525ZM480.309 104.134C478.887 102.454 477.087 101.11 474.931 100.095L474.08 101.905C476.003 102.81 477.564 103.986 478.782 105.426L480.309 104.134ZM474.953 100.106C472.965 99.1117 470.912 98.3648 468.794 97.8666L468.336 99.8134C470.299 100.275 472.206 100.968 474.058 101.894L474.953 100.106ZM468.837 97.8776L453.537 93.5576L452.994 95.4824L468.294 99.8024L468.837 97.8776ZM453.54 93.5585C445.259 91.1924 439.152 87.6722 435.118 83.0615L433.613 84.3785C437.978 89.3678 444.472 93.0476 452.991 95.4815L453.54 93.5585ZM435.135 83.0817C431.206 78.3438 429.245 72.8704 429.245 66.62H427.245C427.245 73.3296 429.365 79.2562 433.596 84.3583L435.135 83.0817ZM429.245 66.62C429.245 60.9188 430.697 56.0235 433.567 51.8904L431.924 50.7496C428.794 55.2565 427.245 60.5611 427.245 66.62H429.245ZM433.574 51.8799C436.462 47.6053 440.453 44.3005 445.579 41.9704L444.752 40.1496C439.318 42.6194 435.029 46.1547 431.917 50.7601L433.574 51.8799ZM445.579 41.9704C450.712 39.6371 456.508 38.46 462.985 38.46V36.46C456.262 36.46 450.178 37.6829 444.752 40.1496L445.579 41.9704ZM462.985 38.46C471.69 38.46 479.42 40.6333 486.207 44.9631L487.283 43.2769C480.15 38.7266 472.041 36.46 462.985 36.46V38.46ZM486.218 44.9696C492.986 49.1704 497.763 55.0518 500.567 62.6464L502.443 61.9536C499.488 53.9482 494.425 47.7096 487.273 43.2704L486.218 44.9696ZM501.079 61.3954L485.419 68.7754L486.272 70.5846L501.932 63.2046L501.079 61.3954ZM486.77 69.3004C484.775 64.4353 481.584 60.5557 477.215 57.6843L476.116 59.3557C480.147 62.0042 483.076 65.5647 484.92 70.0596L486.77 69.3004ZM477.226 57.6917C472.972 54.8143 468.155 53.38 462.805 53.38V55.38C467.776 55.38 472.199 56.7057 476.105 59.3483L477.226 57.6917ZM462.805 53.38C458.205 53.38 454.419 54.5007 451.552 56.846L452.819 58.394C455.232 56.4193 458.526 55.38 462.805 55.38V53.38ZM451.574 56.8287C448.687 59.0596 447.225 62.0529 447.225 65.72H449.225C449.225 62.6671 450.404 60.2603 452.797 58.4113L451.574 56.8287ZM447.225 65.72C447.225 68.1841 447.878 70.3281 449.233 72.0897L450.818 70.8703C449.773 69.5119 449.225 67.8159 449.225 65.72H447.225ZM449.257 72.1202C450.557 73.6805 452.233 74.9616 454.258 75.9744L455.153 74.1856C453.338 73.2784 451.893 72.1595 450.794 70.8398L449.257 72.1202ZM454.305 75.9962C456.264 76.8533 458.283 77.5876 460.363 78.1994L460.927 76.2806C458.927 75.6923 456.987 74.9867 455.106 74.1638L454.305 75.9962ZM460.362 78.199L476.202 82.879L476.769 80.961L460.929 76.281L460.362 78.199ZM476.212 82.8821C484.118 85.1239 490.112 88.6397 494.274 93.3798L495.777 92.0602C491.299 86.9603 484.933 83.2761 476.758 80.9579L476.212 82.8821ZM494.282 93.389C498.43 97.9973 500.505 103.516 500.505 110H502.505C502.505 103.044 500.261 97.0427 495.769 92.051L494.282 93.389ZM500.505 110C500.505 115.568 499.001 120.464 496.007 124.725L497.643 125.875C500.889 121.256 502.505 115.952 502.505 110H500.505ZM496.004 124.73C493.118 128.886 489.064 132.198 483.802 134.654L484.648 136.466C490.187 133.882 494.533 130.354 497.647 125.87L496.004 124.73ZM483.819 134.646C478.572 136.978 472.415 138.16 465.325 138.16V140.16C472.635 140.16 479.079 138.942 484.631 136.474L483.819 134.646ZM541.235 132.5L540.712 133.353L540.72 133.358L540.728 133.362L541.235 132.5ZM523.775 114.14L522.894 114.614L522.897 114.62L523.775 114.14ZM523.775 61.94L522.906 61.4438L522.901 61.4544L523.775 61.94ZM541.055 44.12L541.569 44.9776L541.58 44.9712L541.055 44.12ZM585.155 41.24L584.754 42.1562V42.1562L585.155 41.24ZM599.735 51.68L598.988 52.3457L598.998 52.3557L599.735 51.68ZM608.735 66.62L607.794 66.9601L607.797 66.9689L607.801 66.9776L608.735 66.62ZM611.795 89.48L612.792 89.5512L611.795 89.48ZM611.075 94.16V95.16H611.855L612.045 94.4025L611.075 94.16ZM533.495 94.16H532.495V95.16H533.495V94.16ZM533.495 77.96V76.96H532.495V77.96H533.495ZM599.555 77.96L600.159 78.7564L602.525 76.96H599.555V77.96ZM589.835 85.34L588.855 85.14L588.324 87.7428L590.439 86.1364L589.835 85.34ZM588.575 69.68L587.65 70.0596L587.655 70.0741L587.662 70.0884L588.575 69.68ZM579.575 58.7L579.003 59.5204L579.017 59.5302L579.031 59.5396L579.575 58.7ZM551.135 58.7L551.667 59.5466L551.675 59.5413L551.684 59.5357L551.135 58.7ZM541.415 70.22L542.322 70.6405L542.326 70.6322L541.415 70.22ZM538.715 88.22L539.711 88.3105L539.718 88.2315L539.712 88.1524L538.715 88.22ZM541.415 105.5L540.516 105.938L540.52 105.947L540.525 105.956L541.415 105.5ZM551.855 117.02L551.327 117.869L551.337 117.875L551.855 117.02ZM582.275 117.2L581.742 116.353L581.731 116.36L582.275 117.2ZM592.175 106.94L592.614 106.042L591.772 105.63L591.306 106.444L592.175 106.94ZM608.735 115.04L609.656 115.428L610.023 114.557L609.174 114.142L608.735 115.04ZM599.735 127.46L600.407 128.2L600.408 128.199L599.735 127.46ZM585.335 136.1L585.681 137.038L585.692 137.034L585.335 136.1ZM567.155 138.16C557.593 138.16 549.131 135.978 541.741 131.638L540.728 133.362C548.458 137.902 557.276 140.16 567.155 140.16V138.16ZM541.757 131.647C534.466 127.179 528.769 121.188 524.652 113.66L522.897 114.62C527.181 122.452 533.123 128.701 540.712 133.353L541.757 131.647ZM524.655 113.666C520.54 106.024 518.475 97.4887 518.475 88.04H516.475C516.475 97.7913 518.609 106.656 522.894 114.614L524.655 113.666ZM518.475 88.04C518.475 78.3462 520.542 69.8176 524.649 62.4256L522.901 61.4544C518.607 69.1824 516.475 78.0538 516.475 88.04H518.475ZM524.643 62.4361C528.881 55.0192 534.522 49.206 541.569 44.9775L540.54 43.2625C533.188 47.674 527.308 53.7408 522.906 61.4439L524.643 62.4361ZM541.58 44.9712C548.609 40.6361 556.585 38.46 565.535 38.46V36.46C556.244 36.46 547.9 38.7239 540.53 43.2688L541.58 44.9712ZM565.535 38.46C572.739 38.46 579.139 39.6998 584.754 42.1562L585.555 40.3238C579.65 37.7402 572.97 36.46 565.535 36.46V38.46ZM584.754 42.1562C590.39 44.6218 595.13 48.0191 598.988 52.3456L600.481 51.0144C596.42 46.4609 591.44 42.8982 585.555 40.3238L584.754 42.1562ZM598.998 52.3557C602.866 56.5761 605.798 61.4413 607.794 66.9601L609.675 66.2799C607.591 60.5187 604.523 55.4239 600.472 51.0043L598.998 52.3557ZM607.801 66.9776C609.915 72.4975 610.975 78.3757 610.975 84.62H612.975C612.975 78.1443 611.875 72.0225 609.669 66.2623L607.801 66.9776ZM610.975 84.62C610.975 86.1544 610.916 87.7506 610.797 89.4088L612.792 89.5512C612.914 87.8494 612.975 86.2056 612.975 84.62H610.975ZM610.797 89.4088C610.681 91.0385 610.449 92.5406 610.105 93.9175L612.045 94.4025C612.421 92.8994 612.669 91.2815 612.792 89.5512L610.797 89.4088ZM611.075 93.16H533.495V95.16H611.075V93.16ZM534.495 94.16V77.96H532.495V94.16H534.495ZM533.495 78.96H599.555V76.96H533.495V78.96ZM598.95 77.1636L589.23 84.5436L590.439 86.1364L600.159 78.7564L598.95 77.1636ZM590.815 85.54C592.048 79.4973 591.629 74.0583 589.487 69.2716L587.662 70.0884C589.6 74.4217 590.022 79.4227 588.855 85.14L590.815 85.54ZM589.5 69.3004C587.506 64.4399 584.376 60.6159 580.118 57.8604L579.031 59.5396C582.933 62.064 585.804 65.56 587.65 70.0596L589.5 69.3004ZM580.146 57.8796C575.999 54.989 571.114 53.56 565.535 53.56V55.56C570.755 55.56 575.23 56.891 579.003 59.5204L580.146 57.8796ZM565.535 53.56C559.955 53.56 554.961 54.989 550.586 57.8643L551.684 59.5357C555.708 56.8909 560.315 55.56 565.535 55.56V53.56ZM550.603 57.8534C546.218 60.6096 542.855 64.6103 540.504 69.8078L542.326 70.6322C544.535 65.7497 547.652 62.0703 551.667 59.5466L550.603 57.8534ZM540.507 69.7995C538.138 74.9119 537.229 81.0901 537.717 88.2876L539.712 88.1524C539.24 81.1899 540.131 75.368 542.322 70.6405L540.507 69.7995ZM537.719 88.1295C537.106 94.8729 538.021 100.823 540.516 105.938L542.313 105.062C540.009 100.337 539.124 94.7671 539.711 88.3105L537.719 88.1295ZM540.525 105.956C543.122 111.028 546.724 115.008 551.327 117.869L552.383 116.171C548.106 113.512 544.747 109.812 542.305 105.044L540.525 105.956ZM551.337 117.875C556.066 120.738 561.407 122.16 567.335 122.16V120.16C561.742 120.16 556.764 118.822 552.372 116.164L551.337 117.875ZM567.335 122.16C573.367 122.16 578.545 120.804 582.818 118.04L581.731 116.36C577.844 118.876 573.063 120.16 567.335 120.16V122.16ZM582.807 118.047C587.142 115.322 590.559 111.783 593.043 107.436L591.306 106.444C588.99 110.497 585.807 113.798 581.742 116.353L582.807 118.047ZM591.735 107.838L608.295 115.938L609.174 114.142L592.614 106.042L591.735 107.838ZM607.813 114.652C605.956 119.064 603.046 123.087 599.061 126.721L600.408 128.199C604.583 124.393 607.674 120.136 609.656 115.428L607.813 114.652ZM599.062 126.72C595.205 130.226 590.516 133.045 584.977 135.166L585.692 137.034C591.434 134.835 596.344 131.894 600.407 128.2L599.062 126.72ZM584.988 135.162C579.592 137.156 573.651 138.16 567.155 138.16V140.16C573.859 140.16 580.038 139.124 585.681 137.038L584.988 135.162ZM641.545 131.78L640.994 132.614L641 132.618L641.545 131.78ZM625.885 111.98L625.459 111.075L624.635 111.464L624.945 112.321L625.885 111.98ZM641.545 104.6L642.447 104.169L642.018 103.272L641.119 103.695L641.545 104.6ZM652.345 117.74L651.766 118.555L651.776 118.562L652.345 117.74ZM679.525 119.36L680.11 120.172L679.525 119.36ZM682.045 104.78L681.282 105.426L681.295 105.441L681.308 105.456L682.045 104.78ZM677.005 101L676.558 101.894L676.569 101.9L676.58 101.905L677.005 101ZM671.065 98.84L670.794 99.8024L670.815 99.8084L670.836 99.8134L671.065 98.84ZM655.765 94.52L655.491 95.4815L655.494 95.4824L655.765 94.52ZM636.865 83.72L636.096 84.3583L636.104 84.3685L636.113 84.3785L636.865 83.72ZM635.245 51.32L636.067 51.8904L636.074 51.8799L635.245 51.32ZM647.665 41.06L647.252 40.1496L647.665 41.06ZM689.245 44.12L688.707 44.9631L688.718 44.9696L689.245 44.12ZM704.005 62.3L704.432 63.2046L705.261 62.8137L704.943 61.9536L704.005 62.3ZM688.345 69.68L687.42 70.0596L687.82 71.0332L688.772 70.5846L688.345 69.68ZM679.165 58.52L678.605 59.3484L678.616 59.3557L679.165 58.52ZM654.685 57.62L655.297 58.4113L655.308 58.4028L655.319 58.394L654.685 57.62ZM652.525 71.48L651.733 72.0897L651.745 72.1052L651.757 72.1202L652.525 71.48ZM657.205 75.08L656.758 75.9744L656.781 75.9859L656.805 75.9962L657.205 75.08ZM663.145 77.24L663.429 76.281L663.427 76.2806L663.145 77.24ZM678.985 81.92L678.702 82.8791L678.712 82.8821L678.985 81.92ZM697.525 92.72L696.774 93.3799L696.782 93.389L697.525 92.72ZM699.325 125.3L698.507 124.725L698.504 124.73L699.325 125.3ZM686.725 135.56L687.131 136.474L687.14 136.47L687.148 136.466L686.725 135.56ZM667.825 138.16C658.038 138.16 649.472 135.745 642.091 130.942L641 132.618C648.739 137.655 657.693 140.16 667.825 140.16V138.16ZM642.097 130.946C634.834 126.143 629.751 119.715 626.826 111.639L624.945 112.321C628.019 120.805 633.377 127.577 640.994 132.614L642.097 130.946ZM626.312 112.885L641.972 105.505L641.119 103.695L625.459 111.075L626.312 112.885ZM640.643 105.031C643.349 110.69 647.055 115.208 651.766 118.555L652.924 116.925C648.516 113.792 645.021 109.55 642.447 104.169L640.643 105.031ZM651.776 118.562C656.622 121.917 661.98 123.6 667.825 123.6V121.6C662.391 121.6 657.429 120.043 652.915 116.918L651.776 118.562ZM667.825 123.6C672.773 123.6 676.895 122.486 680.11 120.172L678.941 118.548C676.156 120.554 672.478 121.6 667.825 121.6V123.6ZM680.11 120.172C683.373 117.822 685.025 114.579 685.025 110.54H683.025C683.025 113.941 681.678 116.578 678.941 118.548L680.11 120.172ZM685.025 110.54C685.025 107.95 684.308 105.769 682.782 104.104L681.308 105.456C682.423 106.671 683.025 108.33 683.025 110.54H685.025ZM682.809 104.134C681.387 102.454 679.587 101.11 677.431 100.095L676.58 101.905C678.503 102.81 680.064 103.986 681.282 105.426L682.809 104.134ZM677.453 100.106C675.465 99.1117 673.412 98.3648 671.294 97.8666L670.836 99.8134C672.799 100.275 674.706 100.968 676.558 101.894L677.453 100.106ZM671.337 97.8776L656.037 93.5576L655.494 95.4824L670.794 99.8024L671.337 97.8776ZM656.04 93.5585C647.759 91.1924 641.652 87.6722 637.618 83.0615L636.113 84.3785C640.478 89.3678 646.972 93.0476 655.491 95.4815L656.04 93.5585ZM637.635 83.0817C633.706 78.3438 631.745 72.8704 631.745 66.62H629.745C629.745 73.3296 631.865 79.2562 636.096 84.3583L637.635 83.0817ZM631.745 66.62C631.745 60.9188 633.196 56.0235 636.067 51.8904L634.424 50.7496C631.294 55.2565 629.745 60.5611 629.745 66.62H631.745ZM636.074 51.8799C638.962 47.6053 642.953 44.3005 648.079 41.9704L647.252 40.1496C641.818 42.6194 637.529 46.1547 634.417 50.7601L636.074 51.8799ZM648.079 41.9704C653.212 39.6371 659.008 38.46 665.485 38.46V36.46C658.762 36.46 652.678 37.6829 647.252 40.1496L648.079 41.9704ZM665.485 38.46C674.19 38.46 681.92 40.6333 688.708 44.9631L689.783 43.2769C682.65 38.7266 674.541 36.46 665.485 36.46V38.46ZM688.718 44.9696C695.486 49.1704 700.263 55.0518 703.067 62.6464L704.943 61.9536C701.988 53.9482 696.925 47.7096 689.773 43.2704L688.718 44.9696ZM703.579 61.3954L687.919 68.7754L688.772 70.5846L704.432 63.2046L703.579 61.3954ZM689.271 69.3004C687.275 64.4353 684.084 60.5557 679.714 57.6843L678.616 59.3557C682.647 62.0042 685.576 65.5647 687.42 70.0596L689.271 69.3004ZM679.726 57.6917C675.472 54.8143 670.655 53.38 665.305 53.38V55.38C670.276 55.38 674.699 56.7057 678.605 59.3483L679.726 57.6917ZM665.305 53.38C660.705 53.38 656.919 54.5007 654.052 56.846L655.319 58.394C657.732 56.4193 661.026 55.38 665.305 55.38V53.38ZM654.074 56.8287C651.187 59.0596 649.725 62.0529 649.725 65.72H651.725C651.725 62.6671 652.904 60.2603 655.297 58.4113L654.074 56.8287ZM649.725 65.72C649.725 68.1841 650.378 70.3281 651.733 72.0897L653.318 70.8703C652.273 69.5119 651.725 67.8159 651.725 65.72H649.725ZM651.757 72.1202C653.057 73.6805 654.733 74.9616 656.758 75.9744L657.653 74.1856C655.838 73.2784 654.393 72.1595 653.294 70.8398L651.757 72.1202ZM656.805 75.9962C658.764 76.8533 660.783 77.5876 662.863 78.1994L663.427 76.2806C661.427 75.6923 659.487 74.9867 657.606 74.1638L656.805 75.9962ZM662.862 78.199L678.702 82.879L679.269 80.961L663.429 76.281L662.862 78.199ZM678.712 82.8821C686.618 85.1239 692.612 88.6397 696.774 93.3798L698.277 92.0602C693.799 86.9603 687.433 83.2761 679.258 80.9579L678.712 82.8821ZM696.782 93.389C700.93 97.9973 703.005 103.516 703.005 110H705.005C705.005 103.044 702.761 97.0427 698.269 92.051L696.782 93.389ZM703.005 110C703.005 115.568 701.501 120.464 698.507 124.725L700.143 125.875C703.389 121.256 705.005 115.952 705.005 110H703.005ZM698.504 124.73C695.618 128.886 691.564 132.198 686.302 134.654L687.148 136.466C692.687 133.882 697.033 130.354 700.147 125.87L698.504 124.73ZM686.319 134.646C681.072 136.978 674.915 138.16 667.825 138.16V140.16C675.135 140.16 681.579 138.942 687.131 136.474L686.319 134.646Z" fill="#F75C03" fill-opacity="0.2" mask="url(#path-1-outside-1_0_269)"></path></svg>