<?xml version="1.0" encoding="UTF-8"?>
<svg xmlns="http://www.w3.org/2000/svg" width="303" height="109" viewBox="0 0 303 109" fill="none">
  <g filter="url(#filter0_bd_0_124)">
    <path fill-rule="evenodd" clip-rule="evenodd" d="M14 4C9.58172 4 6 7.58172 6 12V72C6 76.4183 9.58172 80 14 80H16.7716L15 100.5L44.2857 80H289C293.418 80 297 76.4183 297 72V12C297 7.58172 293.418 4 289 4H14Z" fill="white" fill-opacity="0.4" shape-rendering="crispEdges"></path>
  </g>
  <path d="M38.8 35V33.64L42.064 30.152C42.704 29.4693 43.2053 28.92 43.568 28.504C43.9413 28.0773 44.208 27.704 44.368 27.384C44.5387 27.064 44.624 26.728 44.624 26.376C44.624 25.8 44.448 25.3573 44.096 25.048C43.744 24.728 43.2907 24.568 42.736 24.568C42.16 24.568 41.664 24.7333 41.248 25.064C40.832 25.384 40.544 25.8533 40.384 26.472L38.72 25.992C38.848 25.3627 39.104 24.8187 39.488 24.36C39.872 23.8907 40.3413 23.528 40.896 23.272C41.4613 23.016 42.0693 22.888 42.72 22.888C43.4773 22.888 44.1387 23.032 44.704 23.32C45.2693 23.5973 45.7067 23.9867 46.016 24.488C46.336 24.9893 46.496 25.5707 46.496 26.232C46.496 26.6693 46.4107 27.096 46.24 27.512C46.08 27.9173 45.8293 28.3493 45.488 28.808C45.1467 29.256 44.7093 29.7627 44.176 30.328L41.296 33.4H46.72V35H38.8ZM53.3065 35.192C52.3572 35.192 51.5252 34.936 50.8105 34.424C50.0958 33.9013 49.5358 33.1813 49.1305 32.264C48.7358 31.336 48.5385 30.2587 48.5385 29.032C48.5385 27.7947 48.7358 26.7173 49.1305 25.8C49.5358 24.8827 50.0905 24.168 50.7945 23.656C51.5092 23.144 52.3412 22.888 53.2905 22.888C54.2398 22.888 55.0665 23.144 55.7705 23.656C56.4852 24.168 57.0398 24.888 57.4345 25.816C57.8398 26.7333 58.0425 27.8053 58.0425 29.032C58.0425 30.2587 57.8452 31.336 57.4505 32.264C57.0558 33.1813 56.5012 33.9013 55.7865 34.424C55.0825 34.936 54.2558 35.192 53.3065 35.192ZM53.3065 33.464C53.8932 33.464 54.3998 33.2827 54.8265 32.92C55.2532 32.5573 55.5838 32.0453 55.8185 31.384C56.0532 30.7227 56.1705 29.9387 56.1705 29.032C56.1705 28.1253 56.0532 27.3413 55.8185 26.68C55.5838 26.0187 55.2532 25.5067 54.8265 25.144C54.3998 24.7813 53.8878 24.6 53.2905 24.6C52.7038 24.6 52.1972 24.7813 51.7705 25.144C51.3438 25.5067 51.0132 26.0187 50.7785 26.68C50.5438 27.3413 50.4265 28.1253 50.4265 29.032C50.4265 29.928 50.5438 30.712 50.7785 31.384C51.0132 32.0453 51.3438 32.5573 51.7705 32.92C52.2078 33.2827 52.7198 33.464 53.3065 33.464ZM64.7596 35.192C63.8103 35.192 62.9783 34.936 62.2636 34.424C61.549 33.9013 60.989 33.1813 60.5836 32.264C60.189 31.336 59.9916 30.2587 59.9916 29.032C59.9916 27.7947 60.189 26.7173 60.5836 25.8C60.989 24.8827 61.5436 24.168 62.2476 23.656C62.9623 23.144 63.7943 22.888 64.7436 22.888C65.693 22.888 66.5196 23.144 67.2236 23.656C67.9383 24.168 68.493 24.888 68.8876 25.816C69.293 26.7333 69.4956 27.8053 69.4956 29.032C69.4956 30.2587 69.2983 31.336 68.9036 32.264C68.509 33.1813 67.9543 33.9013 67.2396 34.424C66.5356 34.936 65.709 35.192 64.7596 35.192ZM64.7596 33.464C65.3463 33.464 65.853 33.2827 66.2796 32.92C66.7063 32.5573 67.037 32.0453 67.2716 31.384C67.5063 30.7227 67.6236 29.9387 67.6236 29.032C67.6236 28.1253 67.5063 27.3413 67.2716 26.68C67.037 26.0187 66.7063 25.5067 66.2796 25.144C65.853 24.7813 65.341 24.6 64.7436 24.6C64.157 24.6 63.6503 24.7813 63.2236 25.144C62.797 25.5067 62.4663 26.0187 62.2316 26.68C61.997 27.3413 61.8796 28.1253 61.8796 29.032C61.8796 29.928 61.997 30.712 62.2316 31.384C62.4663 32.0453 62.797 32.5573 63.2236 32.92C63.661 33.2827 64.173 33.464 64.7596 33.464ZM77.4448 26.264H80.0688L76.6128 30.456L80.3728 35H77.6688L74.1008 30.568V35H71.7168V26.264H74.1008V30.504L77.4448 26.264ZM85.0279 35V30.6H83.7479V29.256H85.0279V23.08H89.4759C90.2865 23.08 91.0012 23.2293 91.6199 23.528C92.2492 23.816 92.7399 24.2427 93.0919 24.808C93.4439 25.3627 93.6199 26.04 93.6199 26.84C93.6199 27.6293 93.4385 28.3067 93.0759 28.872C92.7239 29.4267 92.2385 29.8533 91.6199 30.152C91.0012 30.4507 90.2865 30.6 89.4759 30.6H87.2039V35H85.0279ZM87.2039 28.68H89.5079C89.9025 28.68 90.2439 28.6053 90.5319 28.456C90.8199 28.296 91.0439 28.0773 91.2039 27.8C91.3639 27.5227 91.4439 27.2027 91.4439 26.84C91.4439 26.4667 91.3639 26.1467 91.2039 25.88C91.0439 25.6027 90.8199 25.3893 90.5319 25.24C90.2439 25.08 89.9025 25 89.5079 25H87.2039V28.68ZM83.7479 33.272V31.944H90.4039V33.272H83.7479ZM98.634 35V31.896H95.53V30.088H98.634V27H100.442V30.088H103.53V31.896H100.442V35H98.634Z" fill="url(#paint0_linear_0_124)"></path>
  <path d="M43.642 46.97C43.11 46.97 42.6293 47.0633 42.2 47.25C41.7707 47.4273 41.4067 47.6933 41.108 48.048C40.8093 48.3933 40.5807 48.818 40.422 49.322C40.2633 49.8167 40.184 50.3767 40.184 51.002C40.184 51.8233 40.31 52.5373 40.562 53.144C40.8233 53.7507 41.206 54.2173 41.71 54.544C42.2233 54.8707 42.8627 55.034 43.628 55.034C44.0667 55.034 44.482 54.9967 44.874 54.922C45.266 54.8473 45.6487 54.754 46.022 54.642V55.734C45.6487 55.874 45.2613 55.9767 44.86 56.042C44.468 56.1073 43.9967 56.14 43.446 56.14C42.4287 56.14 41.5793 55.93 40.898 55.51C40.2167 55.09 39.7033 54.4927 39.358 53.718C39.022 52.9433 38.854 52.0333 38.854 50.988C38.854 50.232 38.9567 49.5413 39.162 48.916C39.3767 48.2907 39.6847 47.7493 40.086 47.292C40.4967 46.8347 41.0007 46.4847 41.598 46.242C42.1953 45.99 42.8813 45.864 43.656 45.864C44.1693 45.864 44.664 45.9153 45.14 46.018C45.616 46.1207 46.0407 46.2653 46.414 46.452L45.91 47.516C45.602 47.376 45.2567 47.25 44.874 47.138C44.5007 47.026 44.09 46.97 43.642 46.97ZM51.6057 48.356C52.5297 48.356 53.2717 48.678 53.8317 49.322C54.401 49.966 54.6857 50.9367 54.6857 52.234C54.6857 53.0833 54.555 53.802 54.2937 54.39C54.0417 54.9687 53.6824 55.4073 53.2157 55.706C52.7584 55.9953 52.217 56.14 51.5917 56.14C51.209 56.14 50.8684 56.0887 50.5697 55.986C50.271 55.8833 50.0144 55.7527 49.7997 55.594C49.5944 55.426 49.417 55.244 49.2677 55.048H49.1837C49.2024 55.2067 49.221 55.4073 49.2397 55.65C49.2584 55.8927 49.2677 56.1027 49.2677 56.28V59.36H48.0357V48.496H49.0437L49.2117 49.518H49.2677C49.417 49.3033 49.5944 49.1073 49.7997 48.93C50.0144 48.7527 50.2664 48.6127 50.5557 48.51C50.8544 48.4073 51.2044 48.356 51.6057 48.356ZM51.3817 49.392C50.8777 49.392 50.4717 49.49 50.1637 49.686C49.8557 49.8727 49.6317 50.1573 49.4917 50.54C49.3517 50.9227 49.277 51.408 49.2677 51.996V52.234C49.2677 52.85 49.333 53.3727 49.4637 53.802C49.5944 54.2313 49.8137 54.558 50.1217 54.782C50.439 55.006 50.8684 55.118 51.4097 55.118C51.867 55.118 52.2404 54.992 52.5297 54.74C52.8284 54.488 53.0477 54.1473 53.1877 53.718C53.337 53.2793 53.4117 52.78 53.4117 52.22C53.4117 51.3613 53.2437 50.6753 52.9077 50.162C52.581 49.6487 52.0724 49.392 51.3817 49.392ZM59.547 48.356C60.191 48.356 60.7417 48.496 61.199 48.776C61.6657 49.056 62.0203 49.4527 62.263 49.966C62.515 50.47 62.641 51.0627 62.641 51.744V52.486H57.503C57.5217 53.3353 57.7363 53.984 58.147 54.432C58.567 54.8707 59.1503 55.09 59.897 55.09C60.373 55.09 60.793 55.048 61.157 54.964C61.5303 54.8707 61.913 54.74 62.305 54.572V55.65C61.9223 55.818 61.5443 55.9393 61.171 56.014C60.7977 56.098 60.3543 56.14 59.841 56.14C59.1317 56.14 58.5017 55.9953 57.951 55.706C57.4097 55.4167 56.985 54.9873 56.677 54.418C56.3783 53.8393 56.229 53.1347 56.229 52.304C56.229 51.4827 56.3643 50.778 56.635 50.19C56.915 49.602 57.3023 49.1493 57.797 48.832C58.301 48.5147 58.8843 48.356 59.547 48.356ZM59.533 49.364C58.945 49.364 58.4783 49.5553 58.133 49.938C57.797 50.3113 57.5963 50.834 57.531 51.506H61.353C61.353 51.0767 61.2877 50.7033 61.157 50.386C61.0263 50.0687 60.8257 49.8213 60.555 49.644C60.2937 49.4573 59.953 49.364 59.533 49.364ZM65.7833 48.496V51.618H69.8573V48.496H71.0893V56H69.8573V52.654H65.7833V56H64.5513V48.496H65.7833ZM79.0374 48.496V54.964H80.1294V58.604H78.9394V56H73.7174V58.604H72.5414V54.964H73.1434C73.5727 54.3667 73.9274 53.718 74.2074 53.018C74.4967 52.3087 74.7114 51.5713 74.8514 50.806C75.0007 50.0313 75.0801 49.2613 75.0894 48.496H79.0374ZM76.1814 49.462C76.1441 50.0967 76.0461 50.7547 75.8874 51.436C75.7287 52.108 75.5234 52.752 75.2714 53.368C75.0287 53.984 74.7441 54.516 74.4174 54.964H77.8474V49.462H76.1814ZM82.8322 48.496V51.618H86.9062V48.496H88.1382V56H86.9062V52.654H82.8322V56H81.6002V48.496H82.8322ZM90.9762 56H89.5482L91.6902 52.85C91.4009 52.7753 91.1209 52.6587 90.8502 52.5C90.5796 52.332 90.3602 52.1033 90.1922 51.814C90.0242 51.5153 89.9402 51.1467 89.9402 50.708C89.9402 49.9893 90.1829 49.4433 90.6682 49.07C91.1536 48.6873 91.7976 48.496 92.6002 48.496H95.9602V56H94.7282V53.018H92.9082L90.9762 56ZM91.1302 50.722C91.1302 51.1513 91.2889 51.4733 91.6062 51.688C91.9329 51.8933 92.3856 51.996 92.9642 51.996H94.7282V49.518H92.7262C92.1569 49.518 91.7462 49.63 91.4942 49.854C91.2516 50.078 91.1302 50.3673 91.1302 50.722ZM98.7965 56H97.3685L99.5105 52.85C99.2212 52.7753 98.9412 52.6587 98.6705 52.5C98.3999 52.332 98.1805 52.1033 98.0125 51.814C97.8445 51.5153 97.7605 51.1467 97.7605 50.708C97.7605 49.9893 98.0032 49.4433 98.4885 49.07C98.9739 48.6873 99.6179 48.496 100.421 48.496H103.781V56H102.549V53.018H100.729L98.7965 56ZM98.9505 50.722C98.9505 51.1513 99.1092 51.4733 99.4265 51.688C99.7532 51.8933 100.206 51.996 100.785 51.996H102.549V49.518H100.547C99.9772 49.518 99.5665 49.63 99.3145 49.854C99.0719 50.078 98.9505 50.3673 98.9505 50.722ZM114.541 48.342C114.541 49.0233 114.327 49.5647 113.897 49.966C113.468 50.358 112.894 50.61 112.175 50.722V50.778C113.015 50.89 113.655 51.1513 114.093 51.562C114.532 51.9727 114.751 52.5093 114.751 53.172C114.751 53.76 114.602 54.278 114.303 54.726C114.005 55.1647 113.557 55.51 112.959 55.762C112.362 56.014 111.615 56.14 110.719 56.14C110.178 56.14 109.66 56.098 109.165 56.014C108.68 55.9393 108.227 55.7993 107.807 55.594V54.446C108.097 54.586 108.405 54.7073 108.731 54.81C109.067 54.9033 109.403 54.978 109.739 55.034C110.075 55.0807 110.397 55.104 110.705 55.104C111.601 55.104 112.278 54.936 112.735 54.6C113.202 54.264 113.435 53.788 113.435 53.172C113.435 52.5373 113.165 52.0753 112.623 51.786C112.082 51.4967 111.326 51.352 110.355 51.352H108.927V50.302H110.285C110.948 50.302 111.494 50.2273 111.923 50.078C112.362 49.9287 112.689 49.7187 112.903 49.448C113.127 49.168 113.239 48.8413 113.239 48.468C113.239 47.964 113.053 47.5767 112.679 47.306C112.306 47.0353 111.821 46.9 111.223 46.9C110.598 46.9 110.075 46.9793 109.655 47.138C109.245 47.2967 108.843 47.502 108.451 47.754L107.849 46.9C108.111 46.704 108.409 46.5313 108.745 46.382C109.091 46.2233 109.473 46.0973 109.893 46.004C110.313 45.9107 110.761 45.864 111.237 45.864C111.956 45.864 112.558 45.9713 113.043 46.186C113.538 46.4007 113.911 46.6947 114.163 47.068C114.415 47.432 114.541 47.8567 114.541 48.342ZM116.864 56V46.004H124.368V56H123.122V47.11H118.124V56H116.864ZM129.219 56V48.566H130.059V50.064L129.905 49.854C130.091 49.406 130.39 49.0513 130.801 48.79C131.221 48.5287 131.687 48.398 132.201 48.398C132.779 48.398 133.307 48.566 133.783 48.902C134.259 49.2287 134.59 49.6673 134.777 50.218L134.511 50.232C134.669 49.6627 134.982 49.2147 135.449 48.888C135.925 48.5613 136.452 48.398 137.031 48.398C137.525 48.398 137.978 48.5147 138.389 48.748C138.809 48.9813 139.145 49.308 139.397 49.728C139.658 50.1387 139.789 50.61 139.789 51.142V56H138.949V51.38C138.949 50.932 138.855 50.5493 138.669 50.232C138.491 49.9053 138.253 49.658 137.955 49.49C137.656 49.3127 137.32 49.224 136.947 49.224C136.545 49.224 136.191 49.322 135.883 49.518C135.584 49.714 135.346 49.9847 135.169 50.33C135.001 50.6753 134.917 51.072 134.917 51.52V56H134.077V51.38C134.077 50.932 133.988 50.5493 133.811 50.232C133.633 49.9053 133.391 49.658 133.083 49.49C132.784 49.3127 132.448 49.224 132.075 49.224C131.673 49.224 131.319 49.322 131.011 49.518C130.712 49.714 130.479 49.9847 130.311 50.33C130.143 50.6753 130.059 51.072 130.059 51.52V56H129.219ZM141.947 56V48.566H142.787V56H141.947ZM141.947 47.11V45.57H142.787V47.11H141.947ZM148.438 56.168C147.747 56.168 147.122 56 146.562 55.664C146.011 55.3187 145.577 54.852 145.26 54.264C144.942 53.676 144.784 53.0133 144.784 52.276C144.784 51.5387 144.942 50.876 145.26 50.288C145.577 49.7 146.011 49.238 146.562 48.902C147.122 48.566 147.747 48.398 148.438 48.398C149.119 48.398 149.726 48.5613 150.258 48.888C150.79 49.2053 151.191 49.6347 151.462 50.176L151.322 50.442V45.402H152.162V56H151.322V54.11L151.462 54.306C151.2 54.8847 150.799 55.342 150.258 55.678C149.726 56.0047 149.119 56.168 148.438 56.168ZM148.466 55.328C149.007 55.328 149.488 55.1973 149.908 54.936C150.337 54.6653 150.678 54.3013 150.93 53.844C151.182 53.3773 151.308 52.8547 151.308 52.276C151.308 51.6973 151.182 51.1793 150.93 50.722C150.678 50.2647 150.337 49.9053 149.908 49.644C149.488 49.3733 149.007 49.238 148.466 49.238C147.934 49.238 147.458 49.3733 147.038 49.644C146.618 49.9053 146.286 50.2647 146.044 50.722C145.801 51.1793 145.68 51.6973 145.68 52.276C145.68 52.8547 145.801 53.3773 146.044 53.844C146.286 54.3013 146.618 54.6653 147.038 54.936C147.458 55.1973 147.934 55.328 148.466 55.328ZM157.83 56.168C157.14 56.168 156.514 56 155.954 55.664C155.404 55.3187 154.97 54.852 154.652 54.264C154.335 53.676 154.176 53.0133 154.176 52.276C154.176 51.5387 154.335 50.876 154.652 50.288C154.97 49.7 155.404 49.238 155.954 48.902C156.514 48.566 157.14 48.398 157.83 48.398C158.512 48.398 159.118 48.5613 159.65 48.888C160.182 49.2053 160.584 49.6347 160.854 50.176L160.714 50.442V45.402H161.554V56H160.714V54.11L160.854 54.306C160.593 54.8847 160.192 55.342 159.65 55.678C159.118 56.0047 158.512 56.168 157.83 56.168ZM157.858 55.328C158.4 55.328 158.88 55.1973 159.3 54.936C159.73 54.6653 160.07 54.3013 160.322 53.844C160.574 53.3773 160.7 52.8547 160.7 52.276C160.7 51.6973 160.574 51.1793 160.322 50.722C160.07 50.2647 159.73 49.9053 159.3 49.644C158.88 49.3733 158.4 49.238 157.858 49.238C157.326 49.238 156.85 49.3733 156.43 49.644C156.01 49.9053 155.679 50.2647 155.436 50.722C155.194 51.1793 155.072 51.6973 155.072 52.276C155.072 52.8547 155.194 53.3773 155.436 53.844C155.679 54.3013 156.01 54.6653 156.43 54.936C156.85 55.1973 157.326 55.328 157.858 55.328ZM163.877 56V45.402H164.717V56H163.877ZM170.423 56.168C169.723 56.168 169.093 56 168.533 55.664C167.973 55.3187 167.53 54.852 167.203 54.264C166.877 53.6667 166.713 52.9993 166.713 52.262C166.713 51.5247 166.872 50.8667 167.189 50.288C167.507 49.7 167.936 49.238 168.477 48.902C169.019 48.566 169.625 48.398 170.297 48.398C170.811 48.398 171.273 48.4913 171.683 48.678C172.103 48.8647 172.463 49.126 172.761 49.462C173.069 49.7887 173.303 50.1667 173.461 50.596C173.629 51.016 173.713 51.4593 173.713 51.926C173.713 52.0193 173.709 52.1173 173.699 52.22C173.69 52.3227 173.676 52.43 173.657 52.542H167.203V51.772H173.181L172.803 52.066C172.859 51.5247 172.78 51.0393 172.565 50.61C172.351 50.1713 172.043 49.826 171.641 49.574C171.249 49.3127 170.801 49.182 170.297 49.182C169.793 49.182 169.331 49.3173 168.911 49.588C168.491 49.8493 168.16 50.2133 167.917 50.68C167.675 51.1373 167.563 51.6693 167.581 52.276C167.563 52.8827 167.679 53.4193 167.931 53.886C168.183 54.3527 168.529 54.7213 168.967 54.992C169.406 55.2533 169.891 55.384 170.423 55.384C170.965 55.384 171.436 55.258 171.837 55.006C172.239 54.7447 172.565 54.3993 172.817 53.97L173.531 54.348C173.363 54.6933 173.125 55.006 172.817 55.286C172.509 55.5567 172.15 55.7713 171.739 55.93C171.338 56.0887 170.899 56.168 170.423 56.168ZM181.625 48.356C182.549 48.356 183.291 48.678 183.851 49.322C184.421 49.966 184.705 50.9367 184.705 52.234C184.705 53.0833 184.575 53.802 184.313 54.39C184.061 54.9687 183.702 55.4073 183.235 55.706C182.778 55.9953 182.237 56.14 181.611 56.14C181.229 56.14 180.888 56.0887 180.589 55.986C180.291 55.8833 180.034 55.7527 179.819 55.594C179.614 55.426 179.437 55.244 179.287 55.048H179.203C179.222 55.2067 179.241 55.4073 179.259 55.65C179.278 55.8927 179.287 56.1027 179.287 56.28V59.36H178.055V48.496H179.063L179.231 49.518H179.287C179.437 49.3033 179.614 49.1073 179.819 48.93C180.034 48.7527 180.286 48.6127 180.575 48.51C180.874 48.4073 181.224 48.356 181.625 48.356ZM181.401 49.392C180.897 49.392 180.491 49.49 180.183 49.686C179.875 49.8727 179.651 50.1573 179.511 50.54C179.371 50.9227 179.297 51.408 179.287 51.996V52.234C179.287 52.85 179.353 53.3727 179.483 53.802C179.614 54.2313 179.833 54.558 180.141 54.782C180.459 55.006 180.888 55.118 181.429 55.118C181.887 55.118 182.26 54.992 182.549 54.74C182.848 54.488 183.067 54.1473 183.207 53.718C183.357 53.2793 183.431 52.78 183.431 52.22C183.431 51.3613 183.263 50.6753 182.927 50.162C182.601 49.6487 182.092 49.392 181.401 49.392ZM189.511 48.37C190.425 48.37 191.102 48.5707 191.541 48.972C191.979 49.3733 192.199 50.0127 192.199 50.89V56H191.303L191.065 54.936H191.009C190.794 55.2067 190.57 55.4353 190.337 55.622C190.113 55.7993 189.851 55.93 189.553 56.014C189.263 56.098 188.909 56.14 188.489 56.14C188.041 56.14 187.635 56.0607 187.271 55.902C186.916 55.7433 186.636 55.5007 186.431 55.174C186.225 54.838 186.123 54.418 186.123 53.914C186.123 53.1673 186.417 52.5933 187.005 52.192C187.593 51.7813 188.498 51.5573 189.721 51.52L190.995 51.478V51.03C190.995 50.4047 190.859 49.9707 190.589 49.728C190.318 49.4853 189.935 49.364 189.441 49.364C189.049 49.364 188.675 49.4247 188.321 49.546C187.966 49.658 187.635 49.7887 187.327 49.938L186.949 49.014C187.275 48.8367 187.663 48.6873 188.111 48.566C188.559 48.4353 189.025 48.37 189.511 48.37ZM189.875 52.374C188.941 52.4113 188.293 52.5607 187.929 52.822C187.574 53.0833 187.397 53.452 187.397 53.928C187.397 54.348 187.523 54.656 187.775 54.852C188.036 55.048 188.367 55.146 188.769 55.146C189.403 55.146 189.931 54.9733 190.351 54.628C190.771 54.2733 190.981 53.732 190.981 53.004V52.332L189.875 52.374ZM196.49 48.356C197.06 48.356 197.554 48.4353 197.974 48.594C198.394 48.7433 198.721 48.9673 198.954 49.266C199.188 49.5553 199.304 49.91 199.304 50.33C199.304 50.7873 199.178 51.1513 198.926 51.422C198.674 51.6833 198.329 51.8747 197.89 51.996V52.052C198.189 52.136 198.464 52.2527 198.716 52.402C198.968 52.5513 199.169 52.7473 199.318 52.99C199.477 53.2327 199.556 53.5453 199.556 53.928C199.556 54.3387 199.44 54.712 199.206 55.048C198.982 55.384 198.632 55.65 198.156 55.846C197.69 56.042 197.088 56.14 196.35 56.14C195.996 56.14 195.655 56.1213 195.328 56.084C195.011 56.0467 194.722 55.9907 194.46 55.916C194.208 55.8413 193.984 55.7527 193.788 55.65V54.544C194.106 54.6933 194.479 54.8287 194.908 54.95C195.347 55.0713 195.823 55.132 196.336 55.132C196.71 55.132 197.046 55.09 197.344 55.006C197.652 54.922 197.895 54.7913 198.072 54.614C198.25 54.4273 198.338 54.1753 198.338 53.858C198.338 53.5687 198.259 53.3353 198.1 53.158C197.942 52.9713 197.704 52.8313 197.386 52.738C197.078 52.6447 196.682 52.598 196.196 52.598H195.188V51.59H196C196.644 51.59 197.158 51.506 197.54 51.338C197.932 51.1607 198.128 50.862 198.128 50.442C198.128 50.0873 197.979 49.8213 197.68 49.644C197.391 49.4667 196.971 49.378 196.42 49.378C196.01 49.378 195.646 49.42 195.328 49.504C195.02 49.5787 194.68 49.6953 194.306 49.854L193.872 48.874C194.274 48.6967 194.694 48.566 195.132 48.482C195.571 48.398 196.024 48.356 196.49 48.356ZM204.221 48.37C205.136 48.37 205.813 48.5707 206.251 48.972C206.69 49.3733 206.909 50.0127 206.909 50.89V56H206.013L205.775 54.936H205.719C205.505 55.2067 205.281 55.4353 205.047 55.622C204.823 55.7993 204.562 55.93 204.263 56.014C203.974 56.098 203.619 56.14 203.199 56.14C202.751 56.14 202.345 56.0607 201.981 55.902C201.627 55.7433 201.347 55.5007 201.141 55.174C200.936 54.838 200.833 54.418 200.833 53.914C200.833 53.1673 201.127 52.5933 201.715 52.192C202.303 51.7813 203.209 51.5573 204.431 51.52L205.705 51.478V51.03C205.705 50.4047 205.57 49.9707 205.299 49.728C205.029 49.4853 204.646 49.364 204.151 49.364C203.759 49.364 203.386 49.4247 203.031 49.546C202.677 49.658 202.345 49.7887 202.037 49.938L201.659 49.014C201.986 48.8367 202.373 48.6873 202.821 48.566C203.269 48.4353 203.736 48.37 204.221 48.37ZM204.585 52.374C203.652 52.4113 203.003 52.5607 202.639 52.822C202.285 53.0833 202.107 53.452 202.107 53.928C202.107 54.348 202.233 54.656 202.485 54.852C202.747 55.048 203.078 55.146 203.479 55.146C204.114 55.146 204.641 54.9733 205.061 54.628C205.481 54.2733 205.691 53.732 205.691 53.004V52.332L204.585 52.374ZM212.797 48.356C213.721 48.356 214.463 48.678 215.023 49.322C215.592 49.966 215.877 50.9367 215.877 52.234C215.877 53.0833 215.746 53.802 215.485 54.39C215.233 54.9687 214.874 55.4073 214.407 55.706C213.95 55.9953 213.408 56.14 212.783 56.14C212.4 56.14 212.06 56.0887 211.761 55.986C211.462 55.8833 211.206 55.7527 210.991 55.594C210.786 55.426 210.608 55.244 210.459 55.048H210.375C210.394 55.2067 210.412 55.4073 210.431 55.65C210.45 55.8927 210.459 56.1027 210.459 56.28V59.36H209.227V48.496H210.235L210.403 49.518H210.459C210.608 49.3033 210.786 49.1073 210.991 48.93C211.206 48.7527 211.458 48.6127 211.747 48.51C212.046 48.4073 212.396 48.356 212.797 48.356ZM212.573 49.392C212.069 49.392 211.663 49.49 211.355 49.686C211.047 49.8727 210.823 50.1573 210.683 50.54C210.543 50.9227 210.468 51.408 210.459 51.996V52.234C210.459 52.85 210.524 53.3727 210.655 53.802C210.786 54.2313 211.005 54.558 211.313 54.782C211.63 55.006 212.06 55.118 212.601 55.118C213.058 55.118 213.432 54.992 213.721 54.74C214.02 54.488 214.239 54.1473 214.379 53.718C214.528 53.2793 214.603 52.78 214.603 52.22C214.603 51.3613 214.435 50.6753 214.099 50.162C213.772 49.6487 213.264 49.392 212.573 49.392ZM217.448 51.492C217.448 50.4 217.556 49.4713 217.77 48.706C217.994 47.9313 218.335 47.3153 218.792 46.858C219.259 46.3913 219.856 46.0787 220.584 45.92C221.191 45.7893 221.784 45.6727 222.362 45.57C222.941 45.4673 223.482 45.374 223.986 45.29L224.196 46.368C223.954 46.4053 223.683 46.452 223.384 46.508C223.086 46.5547 222.782 46.606 222.474 46.662C222.166 46.7087 221.868 46.76 221.578 46.816C221.298 46.8627 221.051 46.9093 220.836 46.956C220.528 47.0213 220.253 47.1333 220.01 47.292C219.768 47.4413 219.558 47.6467 219.38 47.908C219.212 48.1693 219.077 48.4913 218.974 48.874C218.872 49.2567 218.811 49.7093 218.792 50.232H218.876C219.007 50.0547 219.184 49.8727 219.408 49.686C219.642 49.4993 219.917 49.3407 220.234 49.21C220.561 49.0793 220.93 49.014 221.34 49.014C221.994 49.014 222.535 49.1587 222.964 49.448C223.403 49.728 223.73 50.12 223.944 50.624C224.168 51.128 224.28 51.716 224.28 52.388C224.28 53.2187 224.136 53.914 223.846 54.474C223.557 55.034 223.156 55.454 222.642 55.734C222.129 56.0047 221.532 56.14 220.85 56.14C220.337 56.14 219.87 56.042 219.45 55.846C219.03 55.6407 218.671 55.342 218.372 54.95C218.074 54.558 217.845 54.0727 217.686 53.494C217.528 52.9153 217.448 52.248 217.448 51.492ZM220.948 55.118C221.359 55.118 221.714 55.034 222.012 54.866C222.32 54.698 222.558 54.4227 222.726 54.04C222.894 53.6573 222.978 53.1487 222.978 52.514C222.978 51.7487 222.834 51.1467 222.544 50.708C222.264 50.26 221.798 50.036 221.144 50.036C220.734 50.036 220.36 50.1293 220.024 50.316C219.688 50.4933 219.408 50.6987 219.184 50.932C218.96 51.1653 218.802 51.3613 218.708 51.52C218.708 51.9773 218.741 52.4207 218.806 52.85C218.872 53.2793 218.984 53.6667 219.142 54.012C219.31 54.348 219.539 54.6187 219.828 54.824C220.127 55.02 220.5 55.118 220.948 55.118ZM232.745 52.234C232.745 52.8593 232.661 53.4147 232.493 53.9C232.335 54.376 232.101 54.782 231.793 55.118C231.495 55.454 231.126 55.7107 230.687 55.888C230.258 56.056 229.777 56.14 229.245 56.14C228.751 56.14 228.293 56.056 227.873 55.888C227.453 55.7107 227.089 55.454 226.781 55.118C226.473 54.782 226.231 54.376 226.053 53.9C225.885 53.4147 225.801 52.8593 225.801 52.234C225.801 51.4033 225.941 50.7033 226.221 50.134C226.501 49.5553 226.903 49.1167 227.425 48.818C227.948 48.51 228.569 48.356 229.287 48.356C229.969 48.356 230.566 48.51 231.079 48.818C231.602 49.1167 232.008 49.5553 232.297 50.134C232.596 50.7033 232.745 51.4033 232.745 52.234ZM227.075 52.234C227.075 52.822 227.15 53.3353 227.299 53.774C227.458 54.2033 227.701 54.5347 228.027 54.768C228.354 55.0013 228.769 55.118 229.273 55.118C229.777 55.118 230.193 55.0013 230.519 54.768C230.846 54.5347 231.084 54.2033 231.233 53.774C231.392 53.3353 231.471 52.822 231.471 52.234C231.471 51.6367 231.392 51.128 231.233 50.708C231.075 50.288 230.832 49.966 230.505 49.742C230.188 49.5087 229.773 49.392 229.259 49.392C228.494 49.392 227.939 49.644 227.593 50.148C227.248 50.652 227.075 51.3473 227.075 52.234ZM239.741 49.532H237.291V56H236.073V49.532H233.651V48.496H239.741V49.532ZM242.297 51.226C242.297 51.6647 242.419 51.9913 242.661 52.206C242.913 52.4113 243.273 52.514 243.739 52.514C244.206 52.514 244.631 52.444 245.013 52.304C245.396 52.1547 245.788 51.9587 246.189 51.716V48.496H247.421V56H246.189V52.654C245.769 52.9247 245.354 53.1393 244.943 53.298C244.542 53.4473 244.057 53.522 243.487 53.522C242.722 53.522 242.125 53.3213 241.695 52.92C241.275 52.5187 241.065 51.982 241.065 51.31V48.496H242.297V51.226ZM250.967 53.074C250.967 53.158 250.963 53.2793 250.953 53.438C250.953 53.5873 250.949 53.7507 250.939 53.928C250.93 54.096 250.921 54.2593 250.911 54.418C250.902 54.5673 250.893 54.6887 250.883 54.782L254.901 48.496H256.413V56H255.265V51.576C255.265 51.4267 255.265 51.2307 255.265 50.988C255.275 50.7453 255.284 50.5073 255.293 50.274C255.303 50.0313 255.312 49.8493 255.321 49.728L251.331 56H249.805V48.496H250.967V53.074ZM263.239 48.496H264.583L261.377 52.108L264.849 56H263.421L260.033 52.192V56H258.801V48.496H260.033V52.136L263.239 48.496ZM269.053 48.37C269.968 48.37 270.645 48.5707 271.083 48.972C271.522 49.3733 271.741 50.0127 271.741 50.89V56H270.845L270.607 54.936H270.551C270.337 55.2067 270.113 55.4353 269.879 55.622C269.655 55.7993 269.394 55.93 269.095 56.014C268.806 56.098 268.451 56.14 268.031 56.14C267.583 56.14 267.177 56.0607 266.813 55.902C266.459 55.7433 266.179 55.5007 265.973 55.174C265.768 54.838 265.665 54.418 265.665 53.914C265.665 53.1673 265.959 52.5933 266.547 52.192C267.135 51.7813 268.041 51.5573 269.263 51.52L270.537 51.478V51.03C270.537 50.4047 270.402 49.9707 270.131 49.728C269.861 49.4853 269.478 49.364 268.983 49.364C268.591 49.364 268.218 49.4247 267.863 49.546C267.509 49.658 267.177 49.7887 266.869 49.938L266.491 49.014C266.818 48.8367 267.205 48.6873 267.653 48.566C268.101 48.4353 268.568 48.37 269.053 48.37ZM269.417 52.374C268.484 52.4113 267.835 52.5607 267.471 52.822C267.117 53.0833 266.939 53.452 266.939 53.928C266.939 54.348 267.065 54.656 267.317 54.852C267.579 55.048 267.91 55.146 268.311 55.146C268.946 55.146 269.473 54.9733 269.893 54.628C270.313 54.2733 270.523 53.732 270.523 53.004V52.332L269.417 52.374Z" fill="#011725"></path>
  <defs>
    <filter id="filter0_bd_0_124" x="-19" y="-21" width="341" height="146.5" filterUnits="userSpaceOnUse" color-interpolation-filters="sRGB">
      <feFlood flood-opacity="0" result="BackgroundImageFix"></feFlood>
      <feGaussianBlur in="BackgroundImageFix" stdDeviation="12.5"></feGaussianBlur>
      <feComposite in2="SourceAlpha" operator="in" result="effect1_backgroundBlur_0_124"></feComposite>
      <feColorMatrix in="SourceAlpha" type="matrix" values="0 0 0 0 0 0 0 0 0 0 0 0 0 0 0 0 0 0 127 0" result="hardAlpha"></feColorMatrix>
      <feOffset dy="2"></feOffset>
      <feGaussianBlur stdDeviation="3"></feGaussianBlur>
      <feComposite in2="hardAlpha" operator="out"></feComposite>
      <feColorMatrix type="matrix" values="0 0 0 0 0 0 0 0 0 0 0 0 0 0 0 0 0 0 0.25 0"></feColorMatrix>
      <feBlend mode="normal" in2="effect1_backgroundBlur_0_124" result="effect2_dropShadow_0_124"></feBlend>
      <feBlend mode="normal" in="SourceGraphic" in2="effect2_dropShadow_0_124" result="shape"></feBlend>
    </filter>
    <linearGradient id="paint0_linear_0_124" x1="100.397" y1="34.8922" x2="46.4727" y2="17.189" gradientUnits="userSpaceOnUse">
      <stop stop-color="#E0B216"></stop>
      <stop offset="1" stop-color="#EF562A"></stop>
    </linearGradient>
  </defs>
</svg>
