<?xml version="1.0" encoding="UTF-8"?>
<svg xmlns="http://www.w3.org/2000/svg" width="303" height="117" viewBox="0 0 303 117" fill="none">
  <g filter="url(#filter0_bd_0_117)">
    <path fill-rule="evenodd" clip-rule="evenodd" d="M14 4C9.58172 4 6 7.58172 6 12V72C6 76.4183 9.58172 80 14 80H148.286L189 108.5L186.537 80H289C293.418 80 297 76.4183 297 72V12C297 7.58172 293.418 4 289 4H14Z" fill="white" fill-opacity="0.4" shape-rendering="crispEdges"></path>
  </g>
  <path d="M46.912 34.792L39.568 31.672V29.624L46.912 26.488V28.632L41.28 31.016V30.28L46.912 32.664V34.792ZM56.2383 35.192C55.4276 35.192 54.7076 35.0213 54.0783 34.68C53.4596 34.328 52.9743 33.8587 52.6223 33.272C52.2703 32.6747 52.0943 31.9973 52.0943 31.24C52.0943 30.856 52.1316 30.472 52.2063 30.088C52.2916 29.704 52.4409 29.2933 52.6543 28.856C52.8783 28.4187 53.1983 27.9333 53.6143 27.4L56.9423 23.08H59.5343L55.4863 28.28L55.1343 27.896C55.2836 27.7787 55.4383 27.688 55.5983 27.624C55.7583 27.5493 55.9183 27.496 56.0783 27.464C56.2489 27.432 56.4249 27.416 56.6063 27.416C57.3316 27.416 57.9769 27.5813 58.5423 27.912C59.1076 28.2427 59.5503 28.696 59.8703 29.272C60.2009 29.8373 60.3663 30.4773 60.3663 31.192C60.3663 31.96 60.1903 32.648 59.8383 33.256C59.4863 33.8533 58.9956 34.328 58.3663 34.68C57.7476 35.0213 57.0383 35.192 56.2383 35.192ZM56.2383 33.224C56.6009 33.224 56.9263 33.144 57.2143 32.984C57.5129 32.8133 57.7476 32.5733 57.9183 32.264C58.0996 31.9547 58.1903 31.608 58.1903 31.224C58.1903 30.8187 58.0996 30.472 57.9183 30.184C57.7476 29.8853 57.5183 29.6507 57.2303 29.48C56.9423 29.3093 56.6116 29.224 56.2383 29.224C55.8756 29.224 55.5449 29.3093 55.2463 29.48C54.9476 29.6507 54.7076 29.8853 54.5263 30.184C54.3556 30.472 54.2703 30.8187 54.2703 31.224C54.2703 31.608 54.3556 31.9547 54.5263 32.264C54.7076 32.5733 54.9476 32.8133 55.2463 32.984C55.5449 33.144 55.8756 33.224 56.2383 33.224ZM66.6953 35.192C65.7459 35.192 64.9139 34.936 64.1993 34.424C63.4846 33.912 62.9246 33.192 62.5193 32.264C62.1246 31.336 61.9273 30.2587 61.9273 29.032C61.9273 27.7947 62.1246 26.7173 62.5193 25.8C62.9139 24.8827 63.4686 24.168 64.1833 23.656C64.8979 23.144 65.7299 22.888 66.6793 22.888C67.6499 22.888 68.4873 23.144 69.1913 23.656C69.9059 24.168 70.4659 24.888 70.8713 25.816C71.2766 26.7333 71.4793 27.8053 71.4793 29.032C71.4793 30.2587 71.2766 31.336 70.8713 32.264C70.4766 33.1813 69.9219 33.9013 69.2073 34.424C68.4926 34.936 67.6553 35.192 66.6953 35.192ZM66.7113 33.208C67.2553 33.208 67.7193 33.0427 68.1033 32.712C68.4873 32.3707 68.7806 31.8907 68.9833 31.272C69.1966 30.6427 69.3033 29.896 69.3033 29.032C69.3033 28.168 69.1966 27.4267 68.9833 26.808C68.7806 26.1787 68.4819 25.6987 68.0873 25.368C67.7033 25.0373 67.2339 24.872 66.6793 24.872C66.1459 24.872 65.6873 25.0373 65.3033 25.368C64.9193 25.6987 64.6206 26.1787 64.4073 26.808C64.2046 27.4267 64.1033 28.168 64.1033 29.032C64.1033 29.8853 64.2046 30.6267 64.4073 31.256C64.6206 31.8747 64.9193 32.3547 65.3033 32.696C65.6979 33.0373 66.1673 33.208 66.7113 33.208ZM78.0234 35.192C77.074 35.192 76.242 34.936 75.5274 34.424C74.8127 33.912 74.2527 33.192 73.8474 32.264C73.4527 31.336 73.2554 30.2587 73.2554 29.032C73.2554 27.7947 73.4527 26.7173 73.8474 25.8C74.242 24.8827 74.7967 24.168 75.5114 23.656C76.226 23.144 77.058 22.888 78.0074 22.888C78.978 22.888 79.8154 23.144 80.5194 23.656C81.234 24.168 81.794 24.888 82.1994 25.816C82.6047 26.7333 82.8074 27.8053 82.8074 29.032C82.8074 30.2587 82.6047 31.336 82.1994 32.264C81.8047 33.1813 81.25 33.9013 80.5354 34.424C79.8207 34.936 78.9834 35.192 78.0234 35.192ZM78.0394 33.208C78.5834 33.208 79.0474 33.0427 79.4314 32.712C79.8154 32.3707 80.1087 31.8907 80.3114 31.272C80.5247 30.6427 80.6314 29.896 80.6314 29.032C80.6314 28.168 80.5247 27.4267 80.3114 26.808C80.1087 26.1787 79.81 25.6987 79.4154 25.368C79.0314 25.0373 78.562 24.872 78.0074 24.872C77.474 24.872 77.0154 25.0373 76.6314 25.368C76.2474 25.6987 75.9487 26.1787 75.7354 26.808C75.5327 27.4267 75.4314 28.168 75.4314 29.032C75.4314 29.8853 75.5327 30.6267 75.7354 31.256C75.9487 31.8747 76.2474 32.3547 76.6314 32.696C77.026 33.0373 77.4954 33.208 78.0394 33.208ZM89.3515 35.192C88.4022 35.192 87.5702 34.936 86.8555 34.424C86.1408 33.912 85.5808 33.192 85.1755 32.264C84.7808 31.336 84.5835 30.2587 84.5835 29.032C84.5835 27.7947 84.7808 26.7173 85.1755 25.8C85.5702 24.8827 86.1248 24.168 86.8395 23.656C87.5542 23.144 88.3862 22.888 89.3355 22.888C90.3062 22.888 91.1435 23.144 91.8475 23.656C92.5622 24.168 93.1222 24.888 93.5275 25.816C93.9328 26.7333 94.1355 27.8053 94.1355 29.032C94.1355 30.2587 93.9328 31.336 93.5275 32.264C93.1328 33.1813 92.5782 33.9013 91.8635 34.424C91.1488 34.936 90.3115 35.192 89.3515 35.192ZM89.3675 33.208C89.9115 33.208 90.3755 33.0427 90.7595 32.712C91.1435 32.3707 91.4368 31.8907 91.6395 31.272C91.8528 30.6427 91.9595 29.896 91.9595 29.032C91.9595 28.168 91.8528 27.4267 91.6395 26.808C91.4368 26.1787 91.1382 25.6987 90.7435 25.368C90.3595 25.0373 89.8902 24.872 89.3355 24.872C88.8022 24.872 88.3435 25.0373 87.9595 25.368C87.5755 25.6987 87.2768 26.1787 87.0635 26.808C86.8608 27.4267 86.7595 28.168 86.7595 29.032C86.7595 29.8853 86.8608 30.6267 87.0635 31.256C87.2768 31.8747 87.5755 32.3547 87.9595 32.696C88.3542 33.0373 88.8235 33.208 89.3675 33.208Z" fill="url(#paint0_linear_0_117)"></path>
  <path d="M42.214 46.004C43.0447 46.004 43.74 46.0833 44.3 46.242C44.8693 46.4007 45.294 46.662 45.574 47.026C45.8633 47.39 46.008 47.8753 46.008 48.482C46.008 48.874 45.9333 49.224 45.784 49.532C45.644 49.8307 45.4293 50.0827 45.14 50.288C44.86 50.484 44.5147 50.6193 44.104 50.694V50.764C44.524 50.8293 44.902 50.9507 45.238 51.128C45.5833 51.3053 45.854 51.5573 46.05 51.884C46.246 52.2107 46.344 52.6353 46.344 53.158C46.344 53.7647 46.204 54.2827 45.924 54.712C45.644 55.132 45.2427 55.454 44.72 55.678C44.2067 55.8927 43.5907 56 42.872 56H39.358V46.004H42.214ZM42.466 50.26C43.3247 50.26 43.9127 50.1247 44.23 49.854C44.5473 49.574 44.706 49.1633 44.706 48.622C44.706 48.0713 44.51 47.6793 44.118 47.446C43.7353 47.2033 43.1193 47.082 42.27 47.082H40.618V50.26H42.466ZM40.618 51.31V54.936H42.634C43.5207 54.936 44.1367 54.7633 44.482 54.418C44.8273 54.0727 45 53.62 45 53.06C45 52.7053 44.9207 52.3973 44.762 52.136C44.6127 51.8747 44.356 51.674 43.992 51.534C43.6373 51.3847 43.152 51.31 42.536 51.31H40.618ZM51.1375 48.37C52.0521 48.37 52.7288 48.5707 53.1675 48.972C53.6061 49.3733 53.8255 50.0127 53.8255 50.89V56H52.9295L52.6915 54.936H52.6355C52.4208 55.2067 52.1968 55.4353 51.9635 55.622C51.7395 55.7993 51.4781 55.93 51.1795 56.014C50.8901 56.098 50.5355 56.14 50.1155 56.14C49.6675 56.14 49.2615 56.0607 48.8975 55.902C48.5428 55.7433 48.2628 55.5007 48.0575 55.174C47.8521 54.838 47.7495 54.418 47.7495 53.914C47.7495 53.1673 48.0435 52.5933 48.6315 52.192C49.2195 51.7813 50.1248 51.5573 51.3475 51.52L52.6215 51.478V51.03C52.6215 50.4047 52.4861 49.9707 52.2155 49.728C51.9448 49.4853 51.5621 49.364 51.0675 49.364C50.6755 49.364 50.3021 49.4247 49.9475 49.546C49.5928 49.658 49.2615 49.7887 48.9535 49.938L48.5755 49.014C48.9021 48.8367 49.2895 48.6873 49.7375 48.566C50.1855 48.4353 50.6521 48.37 51.1375 48.37ZM51.5015 52.374C50.5681 52.4113 49.9195 52.5607 49.5555 52.822C49.2008 53.0833 49.0235 53.452 49.0235 53.928C49.0235 54.348 49.1495 54.656 49.4015 54.852C49.6628 55.048 49.9941 55.146 50.3955 55.146C51.0301 55.146 51.5575 54.9733 51.9775 54.628C52.3975 54.2733 52.6075 53.732 52.6075 53.004V52.332L51.5015 52.374ZM60.5811 48.496H61.9251L58.7191 52.108L62.1911 56H60.7631L57.3751 52.192V56H56.1431V48.496H57.3751V52.136L60.5811 48.496ZM66.3953 48.37C67.3099 48.37 67.9866 48.5707 68.4253 48.972C68.8639 49.3733 69.0833 50.0127 69.0833 50.89V56H68.1873L67.9493 54.936H67.8933C67.6786 55.2067 67.4546 55.4353 67.2213 55.622C66.9973 55.7993 66.7359 55.93 66.4373 56.014C66.1479 56.098 65.7933 56.14 65.3733 56.14C64.9253 56.14 64.5193 56.0607 64.1553 55.902C63.8006 55.7433 63.5206 55.5007 63.3153 55.174C63.1099 54.838 63.0073 54.418 63.0073 53.914C63.0073 53.1673 63.3013 52.5933 63.8893 52.192C64.4773 51.7813 65.3826 51.5573 66.6053 51.52L67.8793 51.478V51.03C67.8793 50.4047 67.7439 49.9707 67.4733 49.728C67.2026 49.4853 66.8199 49.364 66.3253 49.364C65.9333 49.364 65.5599 49.4247 65.2053 49.546C64.8506 49.658 64.5193 49.7887 64.2113 49.938L63.8333 49.014C64.1599 48.8367 64.5473 48.6873 64.9953 48.566C65.4433 48.4353 65.9099 48.37 66.3953 48.37ZM66.7593 52.374C65.8259 52.4113 65.1773 52.5607 64.8133 52.822C64.4586 53.0833 64.2813 53.452 64.2813 53.928C64.2813 54.348 64.4073 54.656 64.6593 54.852C64.9206 55.048 65.2519 55.146 65.6533 55.146C66.2879 55.146 66.8153 54.9733 67.2353 54.628C67.6553 54.2733 67.8653 53.732 67.8653 53.004V52.332L66.7593 52.374ZM72.6329 48.496V51.618H76.7069V48.496H77.9389V56H76.7069V52.654H72.6329V56H71.4009V48.496H72.6329ZM83.325 56.14C82.6623 56.14 82.0697 56.0047 81.547 55.734C81.0337 55.4633 80.6277 55.0433 80.329 54.474C80.0397 53.9047 79.895 53.1767 79.895 52.29C79.895 51.366 80.049 50.6147 80.357 50.036C80.665 49.4573 81.0803 49.0327 81.603 48.762C82.135 48.4913 82.737 48.356 83.409 48.356C83.7917 48.356 84.1603 48.398 84.515 48.482C84.8697 48.5567 85.159 48.65 85.383 48.762L85.005 49.784C84.781 49.7 84.5197 49.6207 84.221 49.546C83.9223 49.4713 83.6423 49.434 83.381 49.434C82.877 49.434 82.4617 49.5413 82.135 49.756C81.8083 49.9707 81.5657 50.288 81.407 50.708C81.2483 51.128 81.169 51.6507 81.169 52.276C81.169 52.8733 81.2483 53.382 81.407 53.802C81.5657 54.222 81.8037 54.5393 82.121 54.754C82.4383 54.9687 82.835 55.076 83.311 55.076C83.7217 55.076 84.081 55.034 84.389 54.95C84.7063 54.866 84.9957 54.7633 85.257 54.642V55.734C85.005 55.8647 84.725 55.9627 84.417 56.028C84.1183 56.1027 83.7543 56.14 83.325 56.14ZM88.2036 53.074C88.2036 53.158 88.1989 53.2793 88.1896 53.438C88.1896 53.5873 88.1849 53.7507 88.1756 53.928C88.1662 54.096 88.1569 54.2593 88.1476 54.418C88.1382 54.5673 88.1289 54.6887 88.1196 54.782L92.1376 48.496H93.6496V56H92.5016V51.576C92.5016 51.4267 92.5016 51.2307 92.5016 50.988C92.5109 50.7453 92.5202 50.5073 92.5296 50.274C92.5389 50.0313 92.5482 49.8493 92.5576 49.728L88.5676 56H87.0416V48.496H88.2036V53.074ZM102.114 45.388C102.076 45.8547 101.96 46.2467 101.764 46.564C101.577 46.8813 101.297 47.1193 100.924 47.278C100.55 47.4367 100.065 47.516 99.4677 47.516C98.861 47.516 98.371 47.4367 97.9977 47.278C97.6337 47.1193 97.3677 46.886 97.1997 46.578C97.0317 46.2607 96.929 45.864 96.8917 45.388H98.0397C98.0863 45.892 98.217 46.2327 98.4317 46.41C98.6557 46.578 99.0103 46.662 99.4957 46.662C99.925 46.662 100.261 46.5733 100.504 46.396C100.756 46.2093 100.905 45.8733 100.952 45.388H102.114ZM97.1997 53.074C97.1997 53.158 97.195 53.2793 97.1857 53.438C97.1857 53.5873 97.181 53.7507 97.1717 53.928C97.1623 54.096 97.153 54.2593 97.1437 54.418C97.1343 54.5673 97.125 54.6887 97.1157 54.782L101.134 48.496H102.646V56H101.498V51.576C101.498 51.4267 101.498 51.2307 101.498 50.988C101.507 50.7453 101.516 50.5073 101.526 50.274C101.535 50.0313 101.544 49.8493 101.554 49.728L97.5637 56H96.0377V48.496H97.1997V53.074ZM108.576 48.496V51.618H112.65V48.496H113.882V56H112.65V52.654H108.576V56H107.344V48.496H108.576ZM119.1 48.37C120.015 48.37 120.692 48.5707 121.13 48.972C121.569 49.3733 121.788 50.0127 121.788 50.89V56H120.892L120.654 54.936H120.598C120.384 55.2067 120.16 55.4353 119.926 55.622C119.702 55.7993 119.441 55.93 119.142 56.014C118.853 56.098 118.498 56.14 118.078 56.14C117.63 56.14 117.224 56.0607 116.86 55.902C116.506 55.7433 116.226 55.5007 116.02 55.174C115.815 54.838 115.712 54.418 115.712 53.914C115.712 53.1673 116.006 52.5933 116.594 52.192C117.182 51.7813 118.088 51.5573 119.31 51.52L120.584 51.478V51.03C120.584 50.4047 120.449 49.9707 120.178 49.728C119.908 49.4853 119.525 49.364 119.03 49.364C118.638 49.364 118.265 49.4247 117.91 49.546C117.556 49.658 117.224 49.7887 116.916 49.938L116.538 49.014C116.865 48.8367 117.252 48.6873 117.7 48.566C118.148 48.4353 118.615 48.37 119.1 48.37ZM119.464 52.374C118.531 52.4113 117.882 52.5607 117.518 52.822C117.164 53.0833 116.986 53.452 116.986 53.928C116.986 54.348 117.112 54.656 117.364 54.852C117.626 55.048 117.957 55.146 118.358 55.146C118.993 55.146 119.52 54.9733 119.94 54.628C120.36 54.2733 120.57 53.732 120.57 53.004V52.332L119.464 52.374ZM126.543 56V45.57H127.453V50.316H133.333V45.57H134.243V56H133.333V51.156H127.453V56H126.543ZM136.865 56V45.57H137.775V50.316H143.655V45.57H144.565V56H143.655V51.156H137.775V56H136.865Z" fill="#011725"></path>
  <defs>
    <filter id="filter0_bd_0_117" x="-19" y="-21" width="341" height="154.5" filterUnits="userSpaceOnUse" color-interpolation-filters="sRGB">
      <feFlood flood-opacity="0" result="BackgroundImageFix"></feFlood>
      <feGaussianBlur in="BackgroundImageFix" stdDeviation="12.5"></feGaussianBlur>
      <feComposite in2="SourceAlpha" operator="in" result="effect1_backgroundBlur_0_117"></feComposite>
      <feColorMatrix in="SourceAlpha" type="matrix" values="0 0 0 0 0 0 0 0 0 0 0 0 0 0 0 0 0 0 127 0" result="hardAlpha"></feColorMatrix>
      <feOffset dy="2"></feOffset>
      <feGaussianBlur stdDeviation="3"></feGaussianBlur>
      <feComposite in2="hardAlpha" operator="out"></feComposite>
      <feColorMatrix type="matrix" values="0 0 0 0 0 0 0 0 0 0 0 0 0 0 0 0 0 0 0.25 0"></feColorMatrix>
      <feBlend mode="normal" in2="effect1_backgroundBlur_0_117" result="effect2_dropShadow_0_117"></feBlend>
      <feBlend mode="normal" in="SourceGraphic" in2="effect2_dropShadow_0_117" result="shape"></feBlend>
    </filter>
    <linearGradient id="paint0_linear_0_117" x1="92.0153" y1="34.8922" x2="44.1679" y2="21.294" gradientUnits="userSpaceOnUse">
      <stop stop-color="#E0B216"></stop>
      <stop offset="1" stop-color="#EF562A"></stop>
    </linearGradient>
  </defs>
</svg>
