<svg xmlns="http://www.w3.org/2000/svg" width="1007" height="564" viewBox="0 0 1007 564" fill="none"><mask id="path-1-outside-1_0_107" maskUnits="userSpaceOnUse" x="-1" y="-1" width="1009" height="566" fill="black"><rect fill="white" x="-1" y="-1" width="1009" height="566"></rect><path d="M71.08 253.8C56.7067 253.8 45.32 249.88 36.92 242.04C28.7067 234.387 24.6 223.933 24.6 210.68V159.72C24.6 154.307 23.2933 150.013 20.68 146.84C18.0667 143.667 14.1467 142.08 8.92 142.08H0.520001V114.08H8.92C14.1467 114.08 18.0667 112.493 20.68 109.32C23.2933 105.96 24.6 101.573 24.6 96.16V43.52C24.6 30.08 28.7067 19.5333 36.92 11.88C45.32 4.22665 56.7067 0.399982 71.08 0.399982H82.84V28.4H71.08C66.6 28.4 63.0533 29.8 60.44 32.6C58.0133 35.4 56.8 39.2267 56.8 44.08V93.64C56.9867 100.733 55.7733 107.267 53.16 113.24C50.5467 119.027 46.6267 123.88 41.4 127.8C46.44 131.16 50.2667 135.733 52.88 141.52C55.68 147.307 56.9867 153.56 56.8 160.28V210.12C56.8 214.787 58.0133 218.52 60.44 221.32C63.0533 224.307 66.6 225.8 71.08 225.8H82.84V253.8H71.08ZM113.386 265V57.52H143.626V88.88L139.986 81.6C145.586 73.0133 153.053 66.2933 162.386 61.44C171.72 56.5867 182.36 54.16 194.306 54.16C208.68 54.16 221.56 57.6133 232.946 64.52C244.52 71.4267 253.573 80.8533 260.106 92.8C266.826 104.747 270.186 118.187 270.186 133.12C270.186 148.053 266.826 161.493 260.106 173.44C253.573 185.387 244.613 194.907 233.226 202C221.84 208.907 208.866 212.36 194.306 212.36C182.546 212.36 171.813 209.933 162.106 205.08C152.586 200.227 145.213 193.227 139.986 184.08L145.026 178.2V265H113.386ZM191.226 182.96C200.186 182.96 208.12 180.813 215.026 176.52C221.933 172.227 227.346 166.347 231.266 158.88C235.373 151.227 237.426 142.64 237.426 133.12C237.426 123.6 235.373 115.107 231.266 107.64C227.346 100.173 221.933 94.2933 215.026 90C208.12 85.7067 200.186 83.56 191.226 83.56C182.453 83.56 174.52 85.7067 167.426 90C160.52 94.2933 155.013 100.173 150.906 107.64C146.986 115.107 145.026 123.6 145.026 133.12C145.026 142.64 146.986 151.227 150.906 158.88C155.013 166.347 160.52 172.227 167.426 176.52C174.52 180.813 182.453 182.96 191.226 182.96ZM300.964 209V57.52H331.204V88.04L328.404 83.56C331.764 73.6667 337.178 66.5733 344.644 62.28C352.111 57.8 361.071 55.56 371.524 55.56H380.764V84.4H367.604C357.151 84.4 348.658 87.6667 342.124 94.2C335.778 100.547 332.604 109.693 332.604 121.64V209H300.964ZM402.41 209V57.52H434.05V209H402.41ZM402.41 36.8V0.399982H434.05V36.8H402.41ZM471.042 209V57.52H501.283V87.2L497.643 83.28C501.376 73.76 507.349 66.5733 515.563 61.72C523.776 56.68 533.296 54.16 544.123 54.16C555.323 54.16 565.216 56.5867 573.803 61.44C582.389 66.2933 589.109 73.0133 593.962 81.6C598.816 90.1867 601.243 100.08 601.243 111.28V209H569.883V119.68C569.883 112.027 568.483 105.587 565.683 100.36C562.883 94.9467 558.869 90.84 553.643 88.04C548.603 85.0533 542.816 83.56 536.283 83.56C529.749 83.56 523.869 85.0533 518.643 88.04C513.603 90.84 509.683 94.9467 506.883 100.36C504.083 105.773 502.683 112.213 502.683 119.68V209H471.042ZM700.625 210.68C684.758 210.68 672.438 206.2 663.665 197.24C654.892 188.28 650.505 175.68 650.505 159.44V86.08H623.905V57.52H628.105C635.198 57.52 640.705 55.4667 644.625 51.36C648.545 47.2533 650.505 41.6533 650.505 34.56V22.8H682.145V57.52H716.585V86.08H682.145V158.04C682.145 163.267 682.985 167.747 684.665 171.48C686.345 175.027 689.052 177.827 692.785 179.88C696.518 181.747 701.372 182.68 707.345 182.68C708.838 182.68 710.518 182.587 712.385 182.4C714.252 182.213 716.025 182.027 717.705 181.84V209C715.092 209.373 712.198 209.747 709.025 210.12C705.852 210.493 703.052 210.68 700.625 210.68ZM739.234 563.8C723.928 545.88 712.354 526.28 704.514 505C696.674 483.72 692.754 461.04 692.754 436.96C692.754 412.693 696.674 389.92 704.514 368.64C712.354 347.36 723.928 327.947 739.234 310.4H765.834C752.581 330 742.501 350.44 735.594 371.72C728.874 392.813 725.514 414.56 725.514 436.96C725.514 459.173 728.874 481.013 735.594 502.48C742.501 523.76 752.581 544.2 765.834 563.8H739.234ZM777.758 519L830.678 443.12L777.758 367.52H814.998L858.398 430.8H840.478L883.878 367.52H921.118L867.918 443.12L920.838 519H883.598L840.758 455.44H858.118L814.998 519H777.758ZM932.922 563.8C946.362 544.2 956.442 523.76 963.162 502.48C969.882 481.013 973.242 459.173 973.242 436.96C973.242 414.56 969.882 392.813 963.162 371.72C956.442 350.44 946.362 330 932.922 310.4H959.522C975.016 327.947 986.682 347.36 994.522 368.64C1002.36 389.92 1006.28 412.693 1006.28 436.96C1006.28 461.04 1002.36 483.72 994.522 505C986.682 526.28 975.016 545.88 959.522 563.8H932.922Z"></path></mask><path d="M36.92 242.04L37.6023 241.309L37.6017 241.308L36.92 242.04ZM20.68 146.84L21.4519 146.204H21.4519L20.68 146.84ZM0.52 142.08H-0.48V143.08H0.52V142.08ZM0.52 114.08V113.08H-0.48V114.08H0.52ZM20.68 109.32L21.4519 109.956L21.4608 109.945L21.4694 109.934L20.68 109.32ZM36.92 11.88L36.2465 11.1407L36.2383 11.1484L36.92 11.88ZM82.84 0.399982H83.84V-0.600018H82.84V0.399982ZM82.84 28.4V29.4H83.84V28.4H82.84ZM60.44 32.6L59.7089 31.9177L59.6964 31.9311L59.6843 31.9451L60.44 32.6ZM56.8 93.64H55.8V93.6532L55.8003 93.6663L56.8 93.64ZM53.16 113.24L54.0714 113.652L54.0762 113.641L53.16 113.24ZM41.4 127.8L40.8 127L39.6693 127.848L40.8453 128.632L41.4 127.8ZM52.88 141.52L51.9686 141.932L51.9741 141.944L51.9798 141.956L52.88 141.52ZM56.8 160.28L55.8004 160.252L55.8 160.266V160.28H56.8ZM60.44 221.32L59.6843 221.975L59.6874 221.979L60.44 221.32ZM82.84 225.8H83.84V224.8H82.84V225.8ZM82.84 253.8V254.8H83.84V253.8H82.84ZM71.08 252.8C56.8935 252.8 45.7737 248.936 37.6023 241.309L36.2377 242.771C44.8663 250.824 56.5198 254.8 71.08 254.8V252.8ZM37.6017 241.308C29.6281 233.878 25.6 223.71 25.6 210.68H23.6C23.6 224.156 27.7852 234.895 36.2383 242.772L37.6017 241.308ZM25.6 210.68V159.72H23.6V210.68H25.6ZM25.6 159.72C25.6 154.149 24.2538 149.607 21.4519 146.204L19.9081 147.476C22.3328 150.42 23.6 154.464 23.6 159.72H25.6ZM21.4519 146.204C18.599 142.74 14.3575 141.08 8.92 141.08V143.08C13.9358 143.08 17.5343 144.593 19.9081 147.476L21.4519 146.204ZM8.92 141.08H0.52V143.08H8.92V141.08ZM1.52 142.08V114.08H-0.48V142.08H1.52ZM0.52 115.08H8.92V113.08H0.52V115.08ZM8.92 115.08C14.3575 115.08 18.599 113.42 21.4519 109.956L19.9081 108.684C17.5343 111.567 13.9358 113.08 8.92 113.08V115.08ZM21.4694 109.934C24.2526 106.355 25.6 101.734 25.6 96.16H23.6C23.6 101.412 22.3341 105.564 19.8906 108.706L21.4694 109.934ZM25.6 96.16V43.52H23.6V96.16H25.6ZM25.6 43.52C25.6 30.2982 29.631 20.0388 37.6017 12.6116L36.2383 11.1484C27.7823 19.0278 23.6 29.8618 23.6 43.52H25.6ZM37.5935 12.6192C45.7643 5.17466 56.8874 1.39998 71.08 1.39998V-0.600018C56.526 -0.600018 44.8757 3.27864 36.2465 11.1408L37.5935 12.6192ZM71.08 1.39998H82.84V-0.600018H71.08V1.39998ZM81.84 0.399982V28.4H83.84V0.399982H81.84ZM82.84 27.4H71.08V29.4H82.84V27.4ZM71.08 27.4C66.3741 27.4 62.5438 28.8803 59.7089 31.9177L61.1711 33.2823C63.5629 30.7196 66.8259 29.4 71.08 29.4V27.4ZM59.6843 31.9451C57.0566 34.977 55.8 39.062 55.8 44.08H57.8C57.8 39.3914 58.9701 35.823 61.1957 33.2549L59.6843 31.9451ZM55.8 44.08V93.64H57.8V44.08H55.8ZM55.8003 93.6663C55.9835 100.626 54.7933 107.012 52.2438 112.839L54.0762 113.641C56.7534 107.521 57.9898 100.841 57.7997 93.6137L55.8003 93.6663ZM52.2486 112.828C49.7068 118.457 45.8959 123.178 40.8 127L42 128.6C47.3575 124.582 51.3866 119.596 54.0714 113.652L52.2486 112.828ZM40.8453 128.632C45.7217 131.883 49.4285 136.307 51.9686 141.932L53.7914 141.108C51.1048 135.16 47.1583 130.437 41.9547 126.968L40.8453 128.632ZM51.9798 141.956C54.7068 147.591 55.9828 153.685 55.8004 160.252L57.7996 160.308C57.9905 153.435 56.6532 147.022 53.7802 141.084L51.9798 141.956ZM55.8 160.28V210.12H57.8V160.28H55.8ZM55.8 210.12C55.8 214.963 57.0625 218.95 59.6843 221.975L61.1957 220.665C58.9642 218.09 57.8 214.61 57.8 210.12H55.8ZM59.6874 221.979C62.5163 225.212 66.3531 226.8 71.08 226.8V224.8C66.8469 224.8 63.5904 223.402 61.1926 220.661L59.6874 221.979ZM71.08 226.8H82.84V224.8H71.08V226.8ZM81.84 225.8V253.8H83.84V225.8H81.84ZM82.84 252.8H71.08V254.8H82.84V252.8ZM113.386 265H112.386V266H113.386V265ZM113.386 57.52V56.52H112.386V57.52H113.386ZM143.626 57.52H144.626V56.52H143.626V57.52ZM143.626 88.88L142.732 89.3272L144.626 88.88H143.626ZM139.986 81.6L139.149 81.0537L138.835 81.5342L139.092 82.0472L139.986 81.6ZM162.386 61.44L162.848 62.3272L162.386 61.44ZM232.946 64.52L232.428 65.375L232.434 65.3787L232.946 64.52ZM260.106 92.8L259.229 93.2798L259.235 93.2903L260.106 92.8ZM260.106 173.44L259.235 172.95L259.229 172.96L260.106 173.44ZM233.226 202L233.745 202.855L233.755 202.849L233.226 202ZM162.106 205.08L161.652 205.971L161.659 205.974L162.106 205.08ZM139.986 184.08L139.227 183.429L138.768 183.964L139.118 184.576L139.986 184.08ZM145.026 178.2H146.026V175.497L144.267 177.549L145.026 178.2ZM145.026 265V266H146.026V265H145.026ZM215.026 176.52L215.554 177.369L215.026 176.52ZM231.266 158.88L230.385 158.407L230.381 158.415L231.266 158.88ZM231.266 107.64L230.381 108.105L230.385 108.113L230.39 108.122L231.266 107.64ZM167.426 90L166.908 89.1444L166.898 89.1507L167.426 90ZM150.906 107.64L150.03 107.158L150.025 107.167L150.021 107.175L150.906 107.64ZM150.906 158.88L150.016 159.336L150.023 159.349L150.03 159.362L150.906 158.88ZM167.426 176.52L166.898 177.369L166.908 177.376L167.426 176.52ZM114.386 265V57.52H112.386V265H114.386ZM113.386 58.52H143.626V56.52H113.386V58.52ZM142.626 57.52V88.88H144.626V57.52H142.626ZM144.521 88.4328L140.881 81.1528L139.092 82.0472L142.732 89.3272L144.521 88.4328ZM140.824 82.1463C146.327 73.7076 153.663 67.1033 162.848 62.3272L161.925 60.5528C152.443 65.4833 144.845 72.319 139.149 81.0537L140.824 82.1463ZM162.848 62.3272C172.02 57.5575 182.498 55.16 194.306 55.16V53.16C182.221 53.16 171.419 55.6158 161.925 60.5528L162.848 62.3272ZM194.306 55.16C208.512 55.16 221.21 58.5707 232.428 65.375L233.465 63.665C221.909 56.656 208.847 53.16 194.306 53.16V55.16ZM232.434 65.3787C243.852 72.1929 252.78 81.488 259.229 93.2798L260.984 92.3202C254.366 80.2186 245.187 70.6604 233.459 63.6613L232.434 65.3787ZM259.235 93.2903C265.863 105.074 269.186 118.343 269.186 133.12H271.186C271.186 118.031 267.789 104.419 260.978 92.3097L259.235 93.2903ZM269.186 133.12C269.186 147.897 265.863 161.166 259.235 172.95L260.978 173.93C267.789 161.821 271.186 148.209 271.186 133.12H269.186ZM259.229 172.96C252.777 184.758 243.936 194.15 232.698 201.151L233.755 202.849C245.29 195.663 254.369 186.015 260.984 173.92L259.229 172.96ZM232.708 201.145C221.492 207.948 208.701 211.36 194.306 211.36V213.36C209.031 213.36 222.187 209.865 233.745 202.855L232.708 201.145ZM194.306 211.36C182.688 211.36 172.11 208.964 162.553 204.186L161.659 205.974C171.516 210.903 182.404 213.36 194.306 213.36V211.36ZM162.56 204.189C153.211 199.423 145.983 192.559 140.854 183.584L139.118 184.576C144.443 193.894 151.961 201.03 161.652 205.971L162.56 204.189ZM140.746 184.731L145.786 178.851L144.267 177.549L139.227 183.429L140.746 184.731ZM144.026 178.2V265H146.026V178.2H144.026ZM145.026 264H113.386V266H145.026V264ZM191.226 183.96C200.353 183.96 208.473 181.771 215.554 177.369L214.498 175.671C207.766 179.856 200.019 181.96 191.226 181.96V183.96ZM215.554 177.369C222.618 172.978 228.152 166.963 232.152 159.345L230.381 158.415C226.54 165.73 221.248 171.475 214.498 175.671L215.554 177.369ZM232.147 159.353C236.339 151.54 238.426 142.789 238.426 133.12H236.426C236.426 142.491 234.406 150.913 230.385 158.407L232.147 159.353ZM238.426 133.12C238.426 123.452 236.34 114.789 232.142 107.158L230.39 108.122C234.406 115.424 236.426 123.748 236.426 133.12H238.426ZM232.152 107.175C228.152 99.5569 222.618 93.5416 215.554 89.1507L214.498 90.8493C221.248 95.045 226.54 100.79 230.381 108.105L232.152 107.175ZM215.554 89.1507C208.473 84.749 200.353 82.56 191.226 82.56V84.56C200.019 84.56 207.766 86.6643 214.498 90.8493L215.554 89.1507ZM191.226 82.56C182.281 82.56 174.167 84.7511 166.908 89.1445L167.944 90.8555C174.872 86.6623 182.624 84.56 191.226 84.56V82.56ZM166.898 89.1507C159.839 93.539 154.215 99.5486 150.03 107.158L151.782 108.122C155.811 100.798 161.2 95.0477 167.954 90.8493L166.898 89.1507ZM150.021 107.175C146.016 114.803 144.026 123.459 144.026 133.12H146.026C146.026 123.741 147.956 115.411 151.792 108.105L150.021 107.175ZM144.026 133.12C144.026 142.781 146.016 151.527 150.016 159.336L151.796 158.424C147.956 150.926 146.026 142.499 146.026 133.12H144.026ZM150.03 159.362C154.215 166.971 159.839 172.981 166.898 177.369L167.954 175.671C161.2 171.472 155.811 165.722 151.782 158.398L150.03 159.362ZM166.908 177.376C174.167 181.769 182.281 183.96 191.226 183.96V181.96C182.624 181.96 174.872 179.858 167.944 175.665L166.908 177.376ZM300.964 209H299.964V210H300.964V209ZM300.964 57.52V56.52H299.964V57.52H300.964ZM331.204 57.52H332.204V56.52H331.204V57.52ZM331.204 88.04L330.356 88.57L332.204 91.5268V88.04H331.204ZM328.404 83.56L327.457 83.2384L327.305 83.6877L327.556 84.09L328.404 83.56ZM344.644 62.28L345.143 63.1469L345.151 63.1423L345.159 63.1375L344.644 62.28ZM380.764 55.56H381.764V54.56H380.764V55.56ZM380.764 84.4V85.4H381.764V84.4H380.764ZM342.124 94.2L341.417 93.4929L342.124 94.2ZM332.604 209V210H333.604V209H332.604ZM301.964 209V57.52H299.964V209H301.964ZM300.964 58.52H331.204V56.52H300.964V58.52ZM330.204 57.52V88.04H332.204V57.52H330.204ZM332.052 87.51L329.252 83.03L327.556 84.09L330.356 88.57L332.052 87.51ZM329.351 83.8816C332.651 74.1671 337.93 67.2945 345.143 63.1469L344.146 61.4131C336.426 65.8522 330.878 73.1662 327.457 83.2384L329.351 83.8816ZM345.159 63.1375C352.442 58.7679 361.216 56.56 371.524 56.56V54.56C360.926 54.56 351.781 56.8321 344.13 61.4225L345.159 63.1375ZM371.524 56.56H380.764V54.56H371.524V56.56ZM379.764 55.56V84.4H381.764V55.56H379.764ZM380.764 83.4H367.604V85.4H380.764V83.4ZM367.604 83.4C356.924 83.4 348.163 86.7468 341.417 93.4929L342.831 94.9071C349.152 88.5865 357.378 85.4 367.604 85.4V83.4ZM341.417 93.4929C334.827 100.083 331.604 109.519 331.604 121.64H333.604C333.604 109.868 336.728 101.011 342.831 94.9071L341.417 93.4929ZM331.604 121.64V209H333.604V121.64H331.604ZM332.604 208H300.964V210H332.604V208ZM402.41 209H401.41V210H402.41V209ZM402.41 57.52V56.52H401.41V57.52H402.41ZM434.05 57.52H435.05V56.52H434.05V57.52ZM434.05 209V210H435.05V209H434.05ZM402.41 36.8H401.41V37.8H402.41V36.8ZM402.41 0.399982V-0.600018H401.41V0.399982H402.41ZM434.05 0.399982H435.05V-0.600018H434.05V0.399982ZM434.05 36.8V37.8H435.05V36.8H434.05ZM403.41 209V57.52H401.41V209H403.41ZM402.41 58.52H434.05V56.52H402.41V58.52ZM433.05 57.52V209H435.05V57.52H433.05ZM434.05 208H402.41V210H434.05V208ZM403.41 36.8V0.399982H401.41V36.8H403.41ZM402.41 1.39998H434.05V-0.600018H402.41V1.39998ZM433.05 0.399982V36.8H435.05V0.399982H433.05ZM434.05 35.8H402.41V37.8H434.05V35.8ZM471.043 209H470.043V210H471.043V209ZM471.043 57.52V56.52H470.043V57.52H471.043ZM501.283 57.52H502.283V56.52H501.283V57.52ZM501.283 87.2L500.55 87.8804L502.283 89.7465V87.2H501.283ZM497.643 83.28L496.712 82.9149L496.482 83.4999L496.91 83.9604L497.643 83.28ZM515.562 61.72L516.071 62.5809L516.078 62.5767L516.086 62.5723L515.562 61.72ZM573.802 61.44L573.31 62.3106L573.802 61.44ZM593.963 81.6L593.092 82.0921L593.963 81.6ZM601.242 209V210H602.242V209H601.242ZM569.883 209H568.883V210H569.883V209ZM565.682 100.36L564.794 100.819L564.798 100.826L564.801 100.832L565.682 100.36ZM553.643 88.04L553.133 88.9003L553.151 88.9113L553.17 88.9215L553.643 88.04ZM518.643 88.04L519.128 88.9142L519.139 88.9082L518.643 88.04ZM506.883 100.36L507.771 100.819V100.819L506.883 100.36ZM502.682 209V210H503.682V209H502.682ZM472.043 209V57.52H470.043V209H472.043ZM471.043 58.52H501.283V56.52H471.043V58.52ZM500.283 57.52V87.2H502.283V57.52H500.283ZM502.015 86.5195L498.375 82.5995L496.91 83.9604L500.55 87.8804L502.015 86.5195ZM498.573 83.6451C502.232 74.3169 508.064 67.3123 516.071 62.5809L515.054 60.8591C506.634 65.8344 500.52 73.2031 496.712 82.9149L498.573 83.6451ZM516.086 62.5723C524.123 57.6404 533.457 55.16 544.122 55.16V53.16C533.135 53.16 523.429 55.7196 515.039 60.8677L516.086 62.5723ZM544.122 55.16C555.174 55.16 564.893 57.553 573.31 62.3106L574.295 60.5694C565.538 55.6203 555.471 53.16 544.122 53.16V55.16ZM573.31 62.3106C581.739 67.0745 588.328 73.6636 593.092 82.0921L594.833 81.1079C589.89 72.3631 583.039 65.5122 574.295 60.5694L573.31 62.3106ZM593.092 82.0921C597.849 90.5092 600.242 100.229 600.242 111.28H602.242C602.242 99.9313 599.782 89.8641 594.833 81.1079L593.092 82.0921ZM600.242 111.28V209H602.242V111.28H600.242ZM601.242 208H569.883V210H601.242V208ZM570.883 209V119.68H568.883V209H570.883ZM570.883 119.68C570.883 111.908 569.461 105.296 566.564 99.8878L564.801 100.832C567.504 105.878 568.883 112.145 568.883 119.68H570.883ZM566.571 99.9006C563.681 94.3131 559.525 90.0567 554.115 87.1585L553.17 88.9215C558.214 91.6233 562.084 95.5802 564.794 100.819L566.571 99.9006ZM554.152 87.1797C548.941 84.0914 542.974 82.56 536.283 82.56V84.56C542.658 84.56 548.264 86.0153 553.133 88.9003L554.152 87.1797ZM536.283 82.56C529.59 82.56 523.537 84.0915 518.146 87.1718L519.139 88.9082C524.201 86.0152 529.908 84.56 536.283 84.56V82.56ZM518.157 87.1658C512.935 90.067 508.879 94.3229 505.994 99.9006L507.771 100.819C510.486 95.5704 514.27 91.613 519.128 88.9142L518.157 87.1658ZM505.994 99.9006C503.106 105.484 501.682 112.089 501.682 119.68H503.682C503.682 112.338 505.059 106.062 507.771 100.819L505.994 99.9006ZM501.682 119.68V209H503.682V119.68H501.682ZM502.682 208H471.043V210H502.682V208ZM663.665 197.24L664.38 196.54L663.665 197.24ZM650.505 86.08H651.505V85.08H650.505V86.08ZM623.905 86.08H622.905V87.08H623.905V86.08ZM623.905 57.52V56.52H622.905V57.52H623.905ZM644.625 51.36L643.902 50.6695L644.625 51.36ZM650.505 22.8V21.8H649.505V22.8H650.505ZM682.145 22.8H683.145V21.8H682.145V22.8ZM682.145 57.52H681.145V58.52H682.145V57.52ZM716.585 57.52H717.585V56.52H716.585V57.52ZM716.585 86.08V87.08H717.585V86.08H716.585ZM682.145 86.08V85.08H681.145V86.08H682.145ZM684.665 171.48L683.753 171.89L683.757 171.899L683.761 171.908L684.665 171.48ZM692.785 179.88L692.303 180.756L692.32 180.766L692.338 180.774L692.785 179.88ZM712.385 182.4L712.286 181.405L712.385 182.4ZM717.705 181.84H718.705V180.723L717.595 180.846L717.705 181.84ZM717.705 209L717.846 209.99L718.705 209.867V209H717.705ZM709.025 210.12L709.142 211.113L709.025 210.12ZM700.625 209.68C684.952 209.68 672.918 205.26 664.38 196.54L662.951 197.94C671.959 207.14 684.565 211.68 700.625 211.68V209.68ZM664.38 196.54C655.839 187.818 651.505 175.499 651.505 159.44H649.505C649.505 175.861 653.945 188.742 662.951 197.94L664.38 196.54ZM651.505 159.44V86.08H649.505V159.44H651.505ZM650.505 85.08H623.905V87.08H650.505V85.08ZM624.905 86.08V57.52H622.905V86.08H624.905ZM623.905 58.52H628.105V56.52H623.905V58.52ZM628.105 58.52C635.399 58.52 641.195 56.4018 645.348 52.0505L643.902 50.6695C640.215 54.5315 634.998 56.52 628.105 56.52V58.52ZM645.348 52.0505C649.487 47.7142 651.505 41.8432 651.505 34.56H649.505C649.505 41.4634 647.602 46.7924 643.902 50.6695L645.348 52.0505ZM651.505 34.56V22.8H649.505V34.56H651.505ZM650.505 23.8H682.145V21.8H650.505V23.8ZM681.145 22.8V57.52H683.145V22.8H681.145ZM682.145 58.52H716.585V56.52H682.145V58.52ZM715.585 57.52V86.08H717.585V57.52H715.585ZM716.585 85.08H682.145V87.08H716.585V85.08ZM681.145 86.08V158.04H683.145V86.08H681.145ZM681.145 158.04C681.145 163.37 682.001 167.998 683.753 171.89L685.577 171.07C683.969 167.496 683.145 163.163 683.145 158.04H681.145ZM683.761 171.908C685.539 175.661 688.402 178.611 692.303 180.756L693.267 179.004C689.701 177.043 687.151 174.392 685.569 171.052L683.761 171.908ZM692.338 180.774C696.257 182.734 701.279 183.68 707.345 183.68V181.68C701.465 181.68 696.78 180.759 693.232 178.986L692.338 180.774ZM707.345 183.68C708.879 183.68 710.593 183.584 712.484 183.395L712.286 181.405C710.444 181.589 708.798 181.68 707.345 181.68V183.68ZM712.484 183.395C714.354 183.208 716.131 183.021 717.815 182.834L717.595 180.846C715.919 181.032 714.149 181.219 712.286 181.405L712.484 183.395ZM716.705 181.84V209H718.705V181.84H716.705ZM717.564 208.01C714.96 208.382 712.075 208.754 708.908 209.127L709.142 211.113C712.322 210.739 715.223 210.365 717.846 209.99L717.564 208.01ZM708.908 209.127C705.762 209.497 703.003 209.68 700.625 209.68V211.68C703.101 211.68 705.941 211.49 709.142 211.113L708.908 209.127ZM739.234 563.8L738.474 564.449L738.773 564.8H739.234V563.8ZM704.514 505L703.576 505.346L704.514 505ZM704.514 368.64L705.453 368.986L704.514 368.64ZM739.234 310.4V309.4H738.78L738.481 309.743L739.234 310.4ZM765.834 310.4L766.663 310.96L767.718 309.4H765.834V310.4ZM735.594 371.72L734.643 371.411L734.642 371.416L735.594 371.72ZM735.594 502.48L734.64 502.779L734.643 502.789L735.594 502.48ZM765.834 563.8V564.8H767.718L766.663 563.24L765.834 563.8ZM739.995 563.151C724.762 545.317 713.25 525.819 705.453 504.654L703.576 505.346C711.458 526.741 723.094 546.443 738.474 564.449L739.995 563.151ZM705.453 504.654C697.656 483.492 693.754 460.929 693.754 436.96H691.754C691.754 461.151 695.693 483.948 703.576 505.346L705.453 504.654ZM693.754 436.96C693.754 412.803 697.656 390.147 705.453 368.986L703.576 368.294C695.692 389.693 691.754 412.584 691.754 436.96H693.754ZM705.453 368.986C713.25 347.823 724.759 328.515 739.988 311.057L738.481 309.743C723.096 327.379 711.459 346.897 703.576 368.294L705.453 368.986ZM739.234 311.4H765.834V309.4H739.234V311.4ZM765.006 309.84C751.703 329.513 741.58 350.037 734.643 371.411L736.546 372.029C743.422 350.843 753.459 330.487 766.663 310.96L765.006 309.84ZM734.642 371.416C727.89 392.609 724.514 414.458 724.514 436.96H726.514C726.514 414.662 729.859 393.018 736.547 372.024L734.642 371.416ZM724.514 436.96C724.514 459.276 727.89 481.217 734.64 502.779L736.549 502.181C729.859 480.81 726.514 459.071 726.514 436.96H724.514ZM734.643 502.789C741.58 524.163 751.703 544.687 765.006 564.36L766.663 563.24C753.459 543.713 743.422 523.357 736.546 502.171L734.643 502.789ZM765.834 562.8H739.234V564.8H765.834V562.8ZM777.758 519L776.938 518.428L775.842 520H777.758V519ZM830.678 443.12L831.499 443.692L831.898 443.119L831.498 442.547L830.678 443.12ZM777.758 367.52V366.52H775.838L776.939 368.093L777.758 367.52ZM814.998 367.52L815.823 366.954L815.525 366.52H814.998V367.52ZM858.398 430.8V431.8H860.297L859.223 430.234L858.398 430.8ZM840.478 430.8L839.654 430.234L838.58 431.8H840.478V430.8ZM883.878 367.52V366.52H883.352L883.054 366.954L883.878 367.52ZM921.118 367.52L921.936 368.095L923.045 366.52H921.118V367.52ZM867.918 443.12L867.101 442.544L866.697 443.117L867.098 443.692L867.918 443.12ZM920.838 519V520H922.755L921.659 518.428L920.838 519ZM883.598 519L882.769 519.559L883.067 520H883.598V519ZM840.758 455.44V454.44H838.878L839.929 455.999L840.758 455.44ZM858.118 455.44L858.946 456.001L860.005 454.44H858.118V455.44ZM814.998 519V520H815.528L815.826 519.561L814.998 519ZM778.579 519.572L831.499 443.692L829.858 442.548L776.938 518.428L778.579 519.572ZM831.498 442.547L778.578 366.947L776.939 368.093L829.859 443.693L831.498 442.547ZM777.758 368.52H814.998V366.52H777.758V368.52ZM814.174 368.086L857.574 431.366L859.223 430.234L815.823 366.954L814.174 368.086ZM858.398 429.8H840.478V431.8H858.398V429.8ZM841.303 431.366L884.703 368.086L883.054 366.954L839.654 430.234L841.303 431.366ZM883.878 368.52H921.118V366.52H883.878V368.52ZM920.301 366.945L867.101 442.544L868.736 443.695L921.936 368.095L920.301 366.945ZM867.098 443.692L920.018 519.572L921.659 518.428L868.739 442.548L867.098 443.692ZM920.838 518H883.598V520H920.838V518ZM884.428 518.441L841.588 454.881L839.929 455.999L882.769 519.559L884.428 518.441ZM840.758 456.44H858.118V454.44H840.758V456.44ZM857.291 454.879L814.171 518.439L815.826 519.561L858.946 456.001L857.291 454.879ZM814.998 518H777.758V520H814.998V518ZM932.922 563.8L932.097 563.234L931.024 564.8H932.922V563.8ZM963.162 502.48L964.116 502.781L964.117 502.779L963.162 502.48ZM963.162 371.72L962.209 372.021L962.209 372.024L963.162 371.72ZM932.922 310.4V309.4H931.024L932.097 310.966L932.922 310.4ZM959.522 310.4L960.272 309.738L959.973 309.4H959.522V310.4ZM994.522 368.64L995.461 368.294L994.522 368.64ZM994.522 505L995.461 505.346L994.522 505ZM959.522 563.8V564.8H959.98L960.279 564.454L959.522 563.8ZM933.747 564.366C947.239 544.69 957.364 524.161 964.116 502.781L962.209 502.179C955.52 523.359 945.485 543.711 932.097 563.234L933.747 564.366ZM964.117 502.779C970.866 481.217 974.242 459.276 974.242 436.96H972.242C972.242 459.071 968.898 480.81 962.208 502.181L964.117 502.779ZM974.242 436.96C974.242 414.458 970.867 392.609 964.115 371.416L962.209 372.024C968.898 393.018 972.242 414.662 972.242 436.96H974.242ZM964.116 371.419C957.364 350.039 947.239 329.51 933.747 309.834L932.097 310.966C945.485 330.49 955.52 350.841 962.209 372.021L964.116 371.419ZM932.922 311.4H959.522V309.4H932.922V311.4ZM958.773 311.062C974.187 328.519 985.788 347.826 993.584 368.986L995.461 368.294C987.576 346.894 975.844 327.375 960.272 309.738L958.773 311.062ZM993.584 368.986C1001.38 390.147 1005.28 412.803 1005.28 436.96H1007.28C1007.28 412.584 1003.34 389.693 995.461 368.294L993.584 368.986ZM1005.28 436.96C1005.28 460.929 1001.38 483.492 993.584 504.654L995.461 505.346C1003.34 483.948 1007.28 461.151 1007.28 436.96H1005.28ZM993.584 504.654C985.787 525.816 974.184 545.313 958.766 563.146L960.279 564.454C975.847 546.447 987.577 526.744 995.461 505.346L993.584 504.654ZM959.522 562.8H932.922V564.8H959.522V562.8Z" fill="black" fill-opacity="0.2" mask="url(#path-1-outside-1_0_107)"></path></svg>