<svg xmlns="http://www.w3.org/2000/svg" width="54" height="65" viewBox="0 0 54 65" fill="none"><path d="M26.3946 0.000443704C24.1916 0.0107236 22.0879 0.199408 20.2368 0.528362C14.7836 1.49587 13.7936 3.52095 13.7936 7.25555V12.1878H26.68V13.8319H13.7936H8.95741C5.21227 13.8319 1.93291 16.0926 0.907171 20.3932C-0.276008 25.3226 -0.328488 28.3987 0.907171 33.5459C1.82318 37.3772 4.01074 40.1071 7.75588 40.1071H12.1865V34.1945C12.1865 29.9229 15.8666 26.155 20.2368 26.155H33.1081C36.6911 26.155 39.5513 23.1923 39.5513 19.5787V7.25555C39.5513 3.74832 36.6052 1.1137 33.1081 0.528362C30.8944 0.158288 28.5975 -0.00983631 26.3946 0.000443704ZM19.4257 3.96737C20.7568 3.96737 21.8438 5.07686 21.8438 6.44105C21.8438 7.8004 20.7568 8.89964 19.4257 8.89964C18.0899 8.89964 17.0076 7.8004 17.0076 6.44105C17.0076 5.07686 18.0899 3.96737 19.4257 3.96737Z" fill="url(#paint0_linear_4013_300)"></path><path d="M41.1584 13.832V19.5788C41.1584 24.0342 37.3972 27.7842 33.1081 27.7842H20.2368C16.7111 27.7842 13.7936 30.8146 13.7936 34.3605V46.6836C13.7936 50.1909 16.8303 52.2538 20.2368 53.26C24.3159 54.4645 28.2275 54.6822 33.1081 53.26C36.3523 52.3167 39.5513 50.4182 39.5513 46.6836V41.7514H26.68V40.1073H39.5513H45.9945C49.7397 40.1073 51.1353 37.4838 52.4377 33.546C53.7831 29.4921 53.7259 25.5937 52.4377 20.3933C51.5122 16.649 49.7444 13.832 45.9945 13.832H41.1584ZM33.9192 45.0395C35.255 45.0395 36.3372 46.1388 36.3372 47.4981C36.3372 48.8623 35.255 49.9718 33.9192 49.9718C32.5881 49.9718 31.5011 48.8623 31.5011 47.4981C31.5011 46.1388 32.5881 45.0395 33.9192 45.0395Z" fill="url(#paint1_linear_4013_300)"></path><path opacity="0.44382" d="M26.8262 65.0002C36.3635 65.0002 44.095 63.4946 44.095 61.6373C44.095 59.78 36.3635 58.2744 26.8262 58.2744C17.2888 58.2744 9.55733 59.78 9.55733 61.6373C9.55733 63.4946 17.2888 65.0002 26.8262 65.0002Z" fill="url(#paint2_radial_4013_300)"></path><defs><linearGradient id="paint0_linear_4013_300" x1="-1.60469e-07" y1="-1.39991e-07" x2="29.8213" y2="25.3036" gradientUnits="userSpaceOnUse"><stop stop-color="#5A9FD4"></stop><stop offset="1" stop-color="#306998"></stop></linearGradient><linearGradient id="paint1_linear_4013_300" x1="33.6095" y1="47.0835" x2="22.8886" y2="32.1243" gradientUnits="userSpaceOnUse"><stop stop-color="#FFD43B"></stop><stop offset="1" stop-color="#FFE873"></stop></linearGradient><radialGradient id="paint2_radial_4013_300" cx="0" cy="0" r="1" gradientUnits="userSpaceOnUse" gradientTransform="translate(26.8262 61.6373) rotate(-90) scale(3.3629 14.7184)"><stop stop-color="#B8B8B8" stop-opacity="0.498039"></stop><stop offset="1" stop-color="#7F7F7F" stop-opacity="0"></stop></radialGradient></defs></svg>