<svg xmlns="http://www.w3.org/2000/svg" width="700" height="138" viewBox="0 0 700 138" fill="none"><mask id="path-1-outside-1_0_587" maskUnits="userSpaceOnUse" x="-1" y="-1" width="702" height="140" fill="black"><rect fill="white" x="-1" y="-1" width="702" height="140"></rect><path d="M0.860001 135V0.899988H49.64C58.64 0.899988 66.56 2.57999 73.4 5.94C80.24 9.17999 85.58 13.98 89.42 20.34C93.38 26.58 95.36 34.08 95.36 42.84C95.36 52.08 93.02 60 88.34 66.6C83.78 73.2 77.6 78 69.8 81L100.76 135H76.64L43.7 76.5L57.56 84.6H22.1V135H0.860001ZM22.1 65.7H50C54.92 65.7 59.18 64.74 62.78 62.82C66.38 60.9 69.14 58.26 71.06 54.9C73.1 51.42 74.12 47.34 74.12 42.66C74.12 37.98 73.1 33.96 71.06 30.6C69.14 27.12 66.38 24.48 62.78 22.68C59.18 20.76 54.92 19.8 50 19.8H22.1V65.7ZM156.924 137.16C147.204 137.16 138.564 134.94 131.004 130.5C123.564 125.94 117.744 119.82 113.544 112.14C109.344 104.34 107.244 95.64 107.244 86.04C107.244 76.2 109.344 67.5 113.544 59.94C117.864 52.38 123.624 46.44 130.824 42.12C138.024 37.68 146.184 35.46 155.304 35.46C162.624 35.46 169.164 36.72 174.924 39.24C180.684 41.76 185.544 45.24 189.504 49.68C193.464 54 196.464 58.98 198.504 64.62C200.664 70.26 201.744 76.26 201.744 82.62C201.744 84.18 201.684 85.8 201.564 87.48C201.444 89.16 201.204 90.72 200.844 92.16H123.264V75.96H189.324L179.604 83.34C180.804 77.46 180.384 72.24 178.344 67.68C176.424 63 173.424 59.34 169.344 56.7C165.384 53.94 160.704 52.56 155.304 52.56C149.904 52.56 145.104 53.94 140.904 56.7C136.704 59.34 133.464 63.18 131.184 68.22C128.904 73.14 128.004 79.14 128.484 86.22C127.884 92.82 128.784 98.58 131.184 103.5C133.704 108.42 137.184 112.26 141.624 115.02C146.184 117.78 151.344 119.16 157.104 119.16C162.984 119.16 167.964 117.84 172.044 115.2C176.244 112.56 179.544 109.14 181.944 104.94L198.504 113.04C196.584 117.6 193.584 121.74 189.504 125.46C185.544 129.06 180.744 131.94 175.104 134.1C169.584 136.14 163.524 137.16 156.924 137.16ZM248.097 135L209.937 37.62H232.077L261.417 117H253.317L282.657 37.62H304.977L266.637 135H248.097ZM318.802 135V37.62H339.142V135H318.802ZM318.802 24.3V0.899988H339.142V24.3H318.802ZM408.643 137.16C398.923 137.16 390.283 134.94 382.723 130.5C375.283 125.94 369.463 119.82 365.263 112.14C361.063 104.34 358.963 95.64 358.963 86.04C358.963 76.2 361.063 67.5 365.263 59.94C369.583 52.38 375.343 46.44 382.543 42.12C389.743 37.68 397.903 35.46 407.023 35.46C414.343 35.46 420.883 36.72 426.643 39.24C432.403 41.76 437.263 45.24 441.223 49.68C445.183 54 448.183 58.98 450.223 64.62C452.383 70.26 453.463 76.26 453.463 82.62C453.463 84.18 453.403 85.8 453.283 87.48C453.163 89.16 452.923 90.72 452.563 92.16H374.983V75.96H441.043L431.323 83.34C432.523 77.46 432.103 72.24 430.063 67.68C428.143 63 425.143 59.34 421.063 56.7C417.103 53.94 412.423 52.56 407.023 52.56C401.623 52.56 396.823 53.94 392.623 56.7C388.423 59.34 385.183 63.18 382.903 68.22C380.623 73.14 379.723 79.14 380.203 86.22C379.603 92.82 380.503 98.58 382.903 103.5C385.423 108.42 388.903 112.26 393.343 115.02C397.903 117.78 403.063 119.16 408.823 119.16C414.703 119.16 419.683 117.84 423.763 115.2C427.963 112.56 431.263 109.14 433.663 104.94L450.223 113.04C448.303 117.6 445.303 121.74 441.223 125.46C437.263 129.06 432.463 131.94 426.823 134.1C421.303 136.14 415.243 137.16 408.643 137.16ZM496.894 135L463.414 37.62H485.014L510.574 115.2H503.014L529.114 37.62H547.654L573.574 115.2H566.014L591.754 37.62H613.354L579.694 135H561.334L535.054 55.62H541.714L515.434 135H496.894ZM663.298 137.16C653.338 137.16 644.578 134.7 637.018 129.78C629.578 124.86 624.358 118.26 621.358 109.98L637.018 102.6C639.658 108.12 643.258 112.5 647.818 115.74C652.498 118.98 657.658 120.6 663.298 120.6C668.098 120.6 671.998 119.52 674.998 117.36C677.998 115.2 679.498 112.26 679.498 108.54C679.498 106.14 678.838 104.22 677.518 102.78C676.198 101.22 674.518 99.96 672.478 99C670.558 98.04 668.578 97.32 666.538 96.84L651.238 92.52C642.838 90.12 636.538 86.52 632.338 81.72C628.258 76.8 626.218 71.1 626.218 64.62C626.218 58.74 627.718 53.64 630.718 49.32C633.718 44.88 637.858 41.46 643.138 39.06C648.418 36.66 654.358 35.46 660.958 35.46C669.838 35.46 677.758 37.68 684.718 42.12C691.678 46.44 696.598 52.5 699.478 60.3L683.818 67.68C681.898 63 678.838 59.28 674.638 56.52C670.558 53.76 665.938 52.38 660.778 52.38C656.338 52.38 652.798 53.46 650.158 55.62C647.518 57.66 646.198 60.36 646.198 63.72C646.198 66 646.798 67.92 647.998 69.48C649.198 70.92 650.758 72.12 652.678 73.08C654.598 73.92 656.578 74.64 658.618 75.24L674.458 79.92C682.498 82.2 688.678 85.8 692.998 90.72C697.318 95.52 699.478 101.28 699.478 108C699.478 113.76 697.918 118.86 694.798 123.3C691.798 127.62 687.598 131.04 682.198 133.56C676.798 135.96 670.498 137.16 663.298 137.16Z"></path></mask><path d="M0.860002 135H-0.139998V136H0.860002V135ZM0.860002 0.899988V-0.100012H-0.139998V0.899988H0.860002ZM73.4 5.94L72.9591 6.83755L72.9655 6.84069L72.9719 6.84374L73.4 5.94ZM89.42 20.34L88.5639 20.8569L88.5697 20.8664L88.5757 20.8758L89.42 20.34ZM88.34 66.6L87.5242 66.0215L87.5173 66.0316L88.34 66.6ZM69.8 81L69.441 80.0667L68.3523 80.4854L68.9325 81.4974L69.8 81ZM100.76 135V136H102.486L101.628 134.503L100.76 135ZM76.64 135L75.7686 135.491L76.0555 136H76.64V135ZM43.7 76.5L44.2046 75.6366L41.0174 73.774L42.8286 76.9906L43.7 76.5ZM57.56 84.6V85.6H61.253L58.0646 83.7366L57.56 84.6ZM22.1 84.6V83.6H21.1V84.6H22.1ZM22.1 135V136H23.1V135H22.1ZM22.1 65.7H21.1V66.7H22.1V65.7ZM71.06 54.9L70.1973 54.3942L70.1918 54.4039L71.06 54.9ZM71.06 30.6L70.1844 31.0831L70.1944 31.1012L70.2052 31.119L71.06 30.6ZM62.78 22.68L62.3094 23.5623L62.321 23.5685L62.3328 23.5744L62.78 22.68ZM22.1 19.8V18.8H21.1V19.8H22.1ZM1.86 135V0.899988H-0.139998V135H1.86ZM0.860002 1.89999H49.64V-0.100012H0.860002V1.89999ZM49.64 1.89999C58.5146 1.89999 66.279 3.5561 72.9591 6.83755L73.8409 5.04244C66.841 1.60389 58.7654 -0.100012 49.64 -0.100012V1.89999ZM72.9719 6.84374C79.6379 10.0013 84.8275 14.6684 88.5639 20.8569L90.2761 19.8231C86.3325 13.2916 80.8421 8.35869 73.8281 5.03626L72.9719 6.84374ZM88.5757 20.8758C92.4165 26.9279 94.36 34.2341 94.36 42.84H96.36C96.36 33.9259 94.3436 26.232 90.2643 19.8042L88.5757 20.8758ZM94.36 42.84C94.36 51.9033 92.0679 59.6139 87.5243 66.0216L89.1557 67.1784C93.9721 60.3861 96.36 52.2567 96.36 42.84H94.36ZM87.5173 66.0316C83.0766 72.4589 77.0616 77.1357 69.441 80.0667L70.159 81.9333C78.1384 78.8643 84.4834 73.9411 89.1627 67.1684L87.5173 66.0316ZM68.9325 81.4974L99.8925 135.497L101.628 134.503L70.6675 80.5026L68.9325 81.4974ZM100.76 134H76.64V136H100.76V134ZM77.5114 134.509L44.5714 76.0094L42.8286 76.9906L75.7686 135.491L77.5114 134.509ZM43.1954 77.3634L57.0554 85.4634L58.0646 83.7366L44.2046 75.6366L43.1954 77.3634ZM57.56 83.6H22.1V85.6H57.56V83.6ZM21.1 84.6V135H23.1V84.6H21.1ZM22.1 134H0.860002V136H22.1V134ZM22.1 66.7H50V64.7H22.1V66.7ZM50 66.7C55.0506 66.7 59.4788 65.714 63.2506 63.7024L62.3094 61.9376C58.8812 63.766 54.7894 64.7 50 64.7V66.7ZM63.2506 63.7024C67.0074 61.6987 69.9096 58.9288 71.9282 55.3961L70.1918 54.4039C68.3704 57.5912 65.7526 60.1013 62.3094 61.9376L63.2506 63.7024ZM71.9227 55.4057C74.0662 51.7492 75.12 47.4889 75.12 42.66H73.12C73.12 47.1911 72.1339 51.0907 70.1973 54.3943L71.9227 55.4057ZM75.12 42.66C75.12 37.8321 74.0665 33.625 71.9148 30.081L70.2052 31.119C72.1335 34.295 73.12 38.1279 73.12 42.66H75.12ZM71.9356 30.1169C69.9164 26.4572 67.0059 23.6749 63.2272 21.7856L62.3328 23.5744C65.7541 25.2851 68.3636 27.7828 70.1844 31.0831L71.9356 30.1169ZM63.2506 21.7976C59.4788 19.786 55.0506 18.8 50 18.8V20.8C54.7894 20.8 58.8812 21.734 62.3094 23.5623L63.2506 21.7976ZM50 18.8H22.1V20.8H50V18.8ZM21.1 19.8V65.7H23.1V19.8H21.1ZM131.004 130.5L130.482 131.353L130.49 131.358L130.498 131.362L131.004 130.5ZM113.544 112.14L112.664 112.614L112.667 112.62L113.544 112.14ZM113.544 59.94L112.676 59.4438L112.67 59.4544L113.544 59.94ZM130.824 42.12L131.339 42.9776L131.349 42.9712L130.824 42.12ZM174.924 39.24L174.523 40.1562V40.1562L174.924 39.24ZM189.504 49.68L188.758 50.3457L188.767 50.3557L189.504 49.68ZM198.504 64.62L197.564 64.9601L197.567 64.9689L197.57 64.9776L198.504 64.62ZM201.564 87.48L202.562 87.5512L201.564 87.48ZM200.844 92.16V93.16H201.625L201.814 92.4025L200.844 92.16ZM123.264 92.16H122.264V93.16H123.264V92.16ZM123.264 75.96V74.96H122.264V75.96H123.264ZM189.324 75.96L189.929 76.7564L192.295 74.96H189.324V75.96ZM179.604 83.34L178.624 83.14L178.093 85.7428L180.209 84.1364L179.604 83.34ZM178.344 67.68L177.419 68.0596L177.425 68.0741L177.431 68.0884L178.344 67.68ZM169.344 56.7L168.772 57.5204L168.787 57.5302L168.801 57.5396L169.344 56.7ZM140.904 56.7L141.436 57.5466L141.445 57.5413L141.453 57.5357L140.904 56.7ZM131.184 68.22L132.092 68.6405L132.095 68.6322L131.184 68.22ZM128.484 86.22L129.48 86.3105L129.487 86.2315L129.482 86.1524L128.484 86.22ZM131.184 103.5L130.285 103.938L130.29 103.947L130.294 103.956L131.184 103.5ZM141.624 115.02L141.096 115.869L141.106 115.875L141.624 115.02ZM172.044 115.2L171.512 114.353L171.501 114.36L172.044 115.2ZM181.944 104.94L182.384 104.042L181.541 103.63L181.076 104.444L181.944 104.94ZM198.504 113.04L199.426 113.428L199.793 112.557L198.944 112.142L198.504 113.04ZM189.504 125.46L190.177 126.2L190.178 126.199L189.504 125.46ZM175.104 134.1L175.451 135.038L175.462 135.034L175.104 134.1ZM156.924 136.16C147.362 136.16 138.901 133.978 131.511 129.638L130.498 131.362C138.228 135.902 147.046 138.16 156.924 138.16V136.16ZM131.527 129.647C124.236 125.179 118.538 119.188 114.422 111.66L112.667 112.62C116.95 120.452 122.892 126.701 130.482 131.353L131.527 129.647ZM114.425 111.666C110.31 104.024 108.244 95.4887 108.244 86.04H106.244C106.244 95.7913 108.379 104.656 112.664 112.614L114.425 111.666ZM108.244 86.04C108.244 76.3462 110.312 67.8176 114.418 60.4256L112.67 59.4544C108.377 67.1824 106.244 76.0538 106.244 86.04H108.244ZM114.412 60.4361C118.651 53.0192 124.291 47.206 131.339 42.9775L130.31 41.2625C122.957 45.674 117.078 51.7408 112.676 59.4439L114.412 60.4361ZM131.349 42.9712C138.379 38.6361 146.355 36.46 155.304 36.46V34.46C146.014 34.46 137.669 36.7239 130.299 41.2688L131.349 42.9712ZM155.304 36.46C162.509 36.46 168.909 37.6998 174.523 40.1562L175.325 38.3238C169.42 35.7402 162.74 34.46 155.304 34.46V36.46ZM174.523 40.1562C180.159 42.6218 184.899 46.0191 188.758 50.3456L190.251 49.0144C186.189 44.4609 181.209 40.8982 175.325 38.3238L174.523 40.1562ZM188.767 50.3557C192.636 54.5761 195.568 59.4413 197.564 64.9601L199.445 64.2799C197.361 58.5187 194.293 53.4239 190.241 49.0043L188.767 50.3557ZM197.57 64.9776C199.684 70.4975 200.744 76.3757 200.744 82.62H202.744C202.744 76.1443 201.644 70.0225 199.438 64.2623L197.57 64.9776ZM200.744 82.62C200.744 84.1544 200.685 85.7506 200.567 87.4088L202.562 87.5512C202.683 85.8494 202.744 84.2056 202.744 82.62H200.744ZM200.567 87.4088C200.45 89.0385 200.218 90.5406 199.874 91.9175L201.814 92.4025C202.19 90.8994 202.438 89.2815 202.562 87.5512L200.567 87.4088ZM200.844 91.16H123.264V93.16H200.844V91.16ZM124.264 92.16V75.96H122.264V92.16H124.264ZM123.264 76.96H189.324V74.96H123.264V76.96ZM188.72 75.1636L179 82.5436L180.209 84.1364L189.929 76.7564L188.72 75.1636ZM180.584 83.54C181.817 77.4973 181.398 72.0583 179.257 67.2716L177.431 68.0884C179.37 72.4217 179.791 77.4227 178.624 83.14L180.584 83.54ZM179.269 67.3004C177.275 62.4399 174.146 58.6159 169.887 55.8604L168.801 57.5396C172.702 60.064 175.573 63.56 177.419 68.0596L179.269 67.3004ZM169.916 55.8796C165.769 52.989 160.883 51.56 155.304 51.56V53.56C160.525 53.56 165 54.891 168.772 57.5204L169.916 55.8796ZM155.304 51.56C149.724 51.56 144.73 52.989 140.355 55.8643L141.453 57.5357C145.478 54.8909 150.084 53.56 155.304 53.56V51.56ZM140.372 55.8534C135.987 58.6096 132.624 62.6103 130.273 67.8078L132.095 68.6322C134.304 63.7497 137.421 60.0703 141.436 57.5466L140.372 55.8534ZM130.277 67.7995C127.908 72.9119 126.999 79.0901 127.487 86.2876L129.482 86.1524C129.01 79.1899 129.901 73.368 132.092 68.6405L130.277 67.7995ZM127.488 86.1295C126.875 92.8729 127.79 98.8228 130.285 103.938L132.083 103.062C129.778 98.3372 128.893 92.7671 129.48 86.3105L127.488 86.1295ZM130.294 103.956C132.892 109.028 136.493 113.008 141.096 115.869L142.152 114.171C137.875 111.512 134.516 107.812 132.074 103.044L130.294 103.956ZM141.106 115.875C145.835 118.738 151.177 120.16 157.104 120.16V118.16C151.512 118.16 146.533 116.822 142.142 114.164L141.106 115.875ZM157.104 120.16C163.136 120.16 168.314 118.804 172.587 116.04L171.501 114.36C167.614 116.876 162.832 118.16 157.104 118.16V120.16ZM172.576 116.047C176.912 113.322 180.329 109.783 182.812 105.436L181.076 104.444C178.76 108.497 175.577 111.798 171.512 114.353L172.576 116.047ZM181.505 105.838L198.065 113.938L198.944 112.142L182.384 104.042L181.505 105.838ZM197.583 112.652C195.725 117.064 192.816 121.087 188.83 124.721L190.178 126.199C194.353 122.393 197.443 118.136 199.426 113.428L197.583 112.652ZM188.832 124.72C184.975 128.226 180.285 131.045 174.747 133.166L175.462 135.034C181.203 132.835 186.114 129.894 190.177 126.2L188.832 124.72ZM174.758 133.162C169.361 135.156 163.42 136.16 156.924 136.16V138.16C163.628 138.16 169.807 137.124 175.451 135.038L174.758 133.162ZM248.097 135L247.166 135.365L247.415 136H248.097V135ZM209.937 37.62V36.62H208.471L209.006 37.9849L209.937 37.62ZM232.077 37.62L233.015 37.2733L232.774 36.62H232.077V37.62ZM261.417 117V118H262.853L262.355 116.653L261.417 117ZM253.317 117L252.379 116.653L251.881 118H253.317V117ZM282.657 37.62V36.62H281.961L281.719 37.2733L282.657 37.62ZM304.977 37.62L305.908 37.9863L306.445 36.62H304.977V37.62ZM266.637 135V136H267.318L267.568 135.366L266.637 135ZM249.028 134.635L210.868 37.2551L209.006 37.9849L247.166 135.365L249.028 134.635ZM209.937 38.62H232.077V36.62H209.937V38.62ZM231.139 37.9667L260.479 117.347L262.355 116.653L233.015 37.2733L231.139 37.9667ZM261.417 116H253.317V118H261.417V116ZM254.255 117.347L283.595 37.9667L281.719 37.2733L252.379 116.653L254.255 117.347ZM282.657 38.62H304.977V36.62H282.657V38.62ZM304.047 37.2537L265.707 134.634L267.568 135.366L305.908 37.9863L304.047 37.2537ZM266.637 134H248.097V136H266.637V134ZM318.802 135H317.802V136H318.802V135ZM318.802 37.62V36.62H317.802V37.62H318.802ZM339.142 37.62H340.142V36.62H339.142V37.62ZM339.142 135V136H340.142V135H339.142ZM318.802 24.3H317.802V25.3H318.802V24.3ZM318.802 0.899988V-0.100012H317.802V0.899988H318.802ZM339.142 0.899988H340.142V-0.100012H339.142V0.899988ZM339.142 24.3V25.3H340.142V24.3H339.142ZM319.802 135V37.62H317.802V135H319.802ZM318.802 38.62H339.142V36.62H318.802V38.62ZM338.142 37.62V135H340.142V37.62H338.142ZM339.142 134H318.802V136H339.142V134ZM319.802 24.3V0.899988H317.802V24.3H319.802ZM318.802 1.89999H339.142V-0.100012H318.802V1.89999ZM338.142 0.899988V24.3H340.142V0.899988H338.142ZM339.142 23.3H318.802V25.3H339.142V23.3ZM382.723 130.5L382.2 131.353L382.208 131.358L382.217 131.362L382.723 130.5ZM365.263 112.14L364.382 112.614L364.386 112.62L365.263 112.14ZM365.263 59.94L364.395 59.4438L364.389 59.4544L365.263 59.94ZM382.543 42.12L383.057 42.9776L383.068 42.9712L382.543 42.12ZM426.643 39.24L426.242 40.1562V40.1562L426.643 39.24ZM441.223 49.68L440.477 50.3457L440.486 50.3557L441.223 49.68ZM450.223 64.62L449.283 64.9601L449.286 64.9689L449.289 64.9776L450.223 64.62ZM453.283 87.48L454.28 87.5512L453.283 87.48ZM452.563 92.16V93.16H453.344L453.533 92.4025L452.563 92.16ZM374.983 92.16H373.983V93.16H374.983V92.16ZM374.983 75.96V74.96H373.983V75.96H374.983ZM441.043 75.96L441.648 76.7564L444.014 74.96H441.043V75.96ZM431.323 83.34L430.343 83.14L429.812 85.7428L431.928 84.1364L431.323 83.34ZM430.063 67.68L429.138 68.0596L429.144 68.0741L429.15 68.0884L430.063 67.68ZM421.063 56.7L420.491 57.5204L420.505 57.5302L420.52 57.5396L421.063 56.7ZM392.623 56.7L393.155 57.5466L393.164 57.5413L393.172 57.5357L392.623 56.7ZM382.903 68.22L383.81 68.6405L383.814 68.6322L382.903 68.22ZM380.203 86.22L381.199 86.3105L381.206 86.2315L381.201 86.1524L380.203 86.22ZM382.903 103.5L382.004 103.938L382.008 103.947L382.013 103.956L382.903 103.5ZM393.343 115.02L392.815 115.869L392.825 115.875L393.343 115.02ZM423.763 115.2L423.231 114.353L423.22 114.36L423.763 115.2ZM433.663 104.94L434.102 104.042L433.26 103.63L432.795 104.444L433.663 104.94ZM450.223 113.04L451.145 113.428L451.511 112.557L450.662 112.142L450.223 113.04ZM441.223 125.46L441.896 126.2L441.897 126.199L441.223 125.46ZM426.823 134.1L427.17 135.038L427.181 135.034L426.823 134.1ZM408.643 136.16C399.081 136.16 390.62 133.978 383.229 129.638L382.217 131.362C389.946 135.902 398.765 138.16 408.643 138.16V136.16ZM383.246 129.647C375.955 125.179 370.257 119.188 366.14 111.66L364.386 112.62C368.669 120.452 374.611 126.701 382.2 131.353L383.246 129.647ZM366.143 111.666C362.028 104.024 359.963 95.4887 359.963 86.04H357.963C357.963 95.7913 360.098 104.656 364.383 112.614L366.143 111.666ZM359.963 86.04C359.963 76.3462 362.03 67.8176 366.137 60.4256L364.389 59.4544C360.095 67.1824 357.963 76.0538 357.963 86.04H359.963ZM366.131 60.4361C370.369 53.0192 376.01 47.206 383.057 42.9775L382.028 41.2625C374.676 45.674 368.796 51.7408 364.395 59.4439L366.131 60.4361ZM383.068 42.9712C390.098 38.6361 398.073 36.46 407.023 36.46V34.46C397.733 34.46 389.388 36.7239 382.018 41.2688L383.068 42.9712ZM407.023 36.46C414.227 36.46 420.628 37.6998 426.242 40.1562L427.044 38.3238C421.138 35.7402 414.458 34.46 407.023 34.46V36.46ZM426.242 40.1562C431.878 42.6218 436.618 46.0191 440.477 50.3456L441.969 49.0144C437.908 44.4609 432.928 40.8982 427.044 38.3238L426.242 40.1562ZM440.486 50.3557C444.354 54.5761 447.286 59.4413 449.283 64.9601L451.163 64.2799C449.079 58.5187 446.011 53.4239 441.96 49.0043L440.486 50.3557ZM449.289 64.9776C451.403 70.4975 452.463 76.3757 452.463 82.62H454.463C454.463 76.1443 453.363 70.0225 451.157 64.2623L449.289 64.9776ZM452.463 82.62C452.463 84.1544 452.404 85.7506 452.286 87.4088L454.28 87.5512C454.402 85.8494 454.463 84.2056 454.463 82.62H452.463ZM452.286 87.4088C452.169 89.0385 451.937 90.5406 451.593 91.9175L453.533 92.4025C453.909 90.8994 454.157 89.2815 454.28 87.5512L452.286 87.4088ZM452.563 91.16H374.983V93.16H452.563V91.16ZM375.983 92.16V75.96H373.983V92.16H375.983ZM374.983 76.96H441.043V74.96H374.983V76.96ZM440.438 75.1636L430.718 82.5436L431.928 84.1364L441.648 76.7564L440.438 75.1636ZM432.303 83.54C433.536 77.4973 433.117 72.0583 430.976 67.2716L429.15 68.0884C431.089 72.4217 431.51 77.4227 430.343 83.14L432.303 83.54ZM430.988 67.3004C428.994 62.4399 425.865 58.6159 421.606 55.8604L420.52 57.5396C424.421 60.064 427.292 63.56 429.138 68.0596L430.988 67.3004ZM421.635 55.8796C417.487 52.989 412.602 51.56 407.023 51.56V53.56C412.244 53.56 416.719 54.891 420.491 57.5204L421.635 55.8796ZM407.023 51.56C401.443 51.56 396.449 52.989 392.074 55.8643L393.172 57.5357C397.197 54.8909 401.803 53.56 407.023 53.56V51.56ZM392.091 55.8534C387.706 58.6096 384.343 62.6103 381.992 67.8078L383.814 68.6322C386.023 63.7497 389.14 60.0703 393.155 57.5466L392.091 55.8534ZM381.996 67.7995C379.626 72.9119 378.717 79.0901 379.205 86.2876L381.201 86.1524C380.729 79.1899 381.619 73.368 383.81 68.6405L381.996 67.7995ZM379.207 86.1295C378.594 92.8729 379.509 98.8228 382.004 103.938L383.802 103.062C381.497 98.3372 380.612 92.7671 381.199 86.3105L379.207 86.1295ZM382.013 103.956C384.611 109.028 388.212 113.008 392.815 115.869L393.871 114.171C389.594 111.512 386.235 107.812 383.793 103.044L382.013 103.956ZM392.825 115.875C397.554 118.738 402.896 120.16 408.823 120.16V118.16C403.23 118.16 398.252 116.822 393.861 114.164L392.825 115.875ZM408.823 120.16C414.855 120.16 420.033 118.804 424.306 116.04L423.22 114.36C419.333 116.876 414.551 118.16 408.823 118.16V120.16ZM424.295 116.047C428.631 113.322 432.048 109.783 434.531 105.436L432.795 104.444C430.478 108.497 427.295 111.798 423.231 114.353L424.295 116.047ZM433.224 105.838L449.784 113.938L450.662 112.142L434.102 104.042L433.224 105.838ZM449.301 112.652C447.444 117.064 444.535 121.087 440.549 124.721L441.897 126.199C446.071 122.393 449.162 118.136 451.145 113.428L449.301 112.652ZM440.55 124.72C436.693 128.226 432.004 131.045 426.465 133.166L427.181 135.034C432.922 132.835 437.833 129.894 441.896 126.2L440.55 124.72ZM426.476 133.162C421.08 135.156 415.139 136.16 408.643 136.16V138.16C415.347 138.16 421.526 137.124 427.17 135.038L426.476 133.162ZM496.894 135L495.948 135.325L496.18 136H496.894V135ZM463.414 37.62V36.62H462.012L462.468 37.9451L463.414 37.62ZM485.014 37.62L485.963 37.3071L485.737 36.62H485.014V37.62ZM510.574 115.2V116.2H511.956L511.523 114.887L510.574 115.2ZM503.014 115.2L502.066 114.881L501.622 116.2H503.014V115.2ZM529.114 37.62V36.62H528.395L528.166 37.3011L529.114 37.62ZM547.654 37.62L548.602 37.3031L548.374 36.62H547.654V37.62ZM573.574 115.2V116.2H574.962L574.522 114.883L573.574 115.2ZM566.014 115.2L565.064 114.885L564.628 116.2H566.014V115.2ZM591.754 37.62V36.62H591.032L590.805 37.3051L591.754 37.62ZM613.354 37.62L614.299 37.9467L614.757 36.62H613.354V37.62ZM579.694 135V136H580.406L580.639 135.327L579.694 135ZM561.334 135L560.384 135.314L560.611 136H561.334V135ZM535.054 55.62V54.62H533.669L534.104 55.9343L535.054 55.62ZM541.714 55.62L542.663 55.9343L543.098 54.62H541.714V55.62ZM515.434 135V136H516.156L516.383 135.314L515.434 135ZM497.839 134.675L464.359 37.2949L462.468 37.9451L495.948 135.325L497.839 134.675ZM463.414 38.62H485.014V36.62H463.414V38.62ZM484.064 37.9329L509.624 115.513L511.523 114.887L485.963 37.3071L484.064 37.9329ZM510.574 114.2H503.014V116.2H510.574V114.2ZM503.961 115.519L530.061 37.9389L528.166 37.3011L502.066 114.881L503.961 115.519ZM529.114 38.62H547.654V36.62H529.114V38.62ZM546.705 37.9369L572.625 115.517L574.522 114.883L548.602 37.3031L546.705 37.9369ZM573.574 114.2H566.014V116.2H573.574V114.2ZM566.963 115.515L592.703 37.9349L590.805 37.3051L565.064 114.885L566.963 115.515ZM591.754 38.62H613.354V36.62H591.754V38.62ZM612.408 37.2933L578.748 134.673L580.639 135.327L614.299 37.9467L612.408 37.2933ZM579.694 134H561.334V136H579.694V134ZM562.283 134.686L536.003 55.3057L534.104 55.9343L560.384 135.314L562.283 134.686ZM535.054 56.62H541.714V54.62H535.054V56.62ZM540.764 55.3057L514.484 134.686L516.383 135.314L542.663 55.9343L540.764 55.3057ZM515.434 134H496.894V136H515.434V134ZM637.018 129.78L636.466 130.614L636.473 130.618L637.018 129.78ZM621.358 109.98L620.932 109.075L620.107 109.464L620.418 110.321L621.358 109.98ZM637.018 102.6L637.92 102.169L637.491 101.272L636.592 101.695L637.018 102.6ZM647.818 115.74L647.239 116.555L647.249 116.562L647.818 115.74ZM674.998 117.36L675.582 118.172L674.998 117.36ZM677.518 102.78L676.755 103.426L676.767 103.441L676.781 103.456L677.518 102.78ZM672.478 99L672.031 99.8944L672.041 99.8997L672.052 99.9048L672.478 99ZM666.538 96.84L666.266 97.8024L666.287 97.8084L666.309 97.8134L666.538 96.84ZM651.238 92.52L650.963 93.4815L650.966 93.4824L651.238 92.52ZM632.338 81.72L631.568 82.3583L631.577 82.3685L631.585 82.3785L632.338 81.72ZM630.718 49.32L631.539 49.8904L631.547 49.8799L630.718 49.32ZM643.138 39.06L642.724 38.1496L643.138 39.06ZM684.718 42.12L684.18 42.9631L684.191 42.9696L684.718 42.12ZM699.478 60.3L699.904 61.2046L700.734 60.8137L700.416 59.9536L699.478 60.3ZM683.818 67.68L682.893 68.0596L683.292 69.0332L684.244 68.5846L683.818 67.68ZM674.638 56.52L674.078 57.3484L674.089 57.3557L674.638 56.52ZM650.158 55.62L650.769 56.4113L650.78 56.4028L650.791 56.394L650.158 55.62ZM647.998 69.48L647.205 70.0897L647.217 70.1052L647.23 70.1202L647.998 69.48ZM652.678 73.08L652.231 73.9744L652.254 73.9859L652.277 73.9962L652.678 73.08ZM658.618 75.24L658.901 74.281L658.9 74.2806L658.618 75.24ZM674.458 79.92L674.175 80.8791L674.185 80.8821L674.458 79.92ZM692.998 90.72L692.246 91.3799L692.255 91.389L692.998 90.72ZM694.798 123.3L693.98 122.725L693.977 122.73L694.798 123.3ZM682.198 133.56L682.604 134.474L682.613 134.47L682.621 134.466L682.198 133.56ZM663.298 136.16C653.511 136.16 644.944 133.745 637.563 128.942L636.473 130.618C644.212 135.655 653.165 138.16 663.298 138.16V136.16ZM637.57 128.946C630.306 124.143 625.224 117.715 622.298 109.639L620.418 110.321C623.492 118.805 628.85 125.577 636.466 130.614L637.57 128.946ZM621.784 110.885L637.444 103.505L636.592 101.695L620.932 109.075L621.784 110.885ZM636.116 103.031C638.822 108.69 642.528 113.208 647.239 116.555L648.397 114.925C643.988 111.792 640.494 107.55 637.92 102.169L636.116 103.031ZM647.249 116.562C652.094 119.917 657.453 121.6 663.298 121.6V119.6C657.863 119.6 652.902 118.043 648.387 114.918L647.249 116.562ZM663.298 121.6C668.245 121.6 672.368 120.486 675.582 118.172L674.414 116.548C671.628 118.554 667.951 119.6 663.298 119.6V121.6ZM675.582 118.172C678.845 115.822 680.498 112.579 680.498 108.54H678.498C678.498 111.941 677.151 114.578 674.414 116.548L675.582 118.172ZM680.498 108.54C680.498 105.95 679.781 103.769 678.255 102.104L676.781 103.456C677.895 104.671 678.498 106.33 678.498 108.54H680.498ZM678.281 102.134C676.859 100.454 675.06 99.1099 672.904 98.0952L672.052 99.9048C673.976 100.81 675.536 101.986 676.755 103.426L678.281 102.134ZM672.925 98.1056C670.937 97.1117 668.884 96.3648 666.767 95.8666L666.309 97.8134C668.272 98.2752 670.178 98.9683 672.031 99.8944L672.925 98.1056ZM666.81 95.8776L651.51 91.5576L650.966 93.4824L666.266 97.8024L666.81 95.8776ZM651.513 91.5585C643.232 89.1924 637.125 85.6722 633.091 81.0615L631.585 82.3785C635.951 87.3678 642.444 91.0476 650.963 93.4815L651.513 91.5585ZM633.108 81.0817C629.179 76.3438 627.218 70.8704 627.218 64.62H625.218C625.218 71.3296 627.337 77.2562 631.568 82.3583L633.108 81.0817ZM627.218 64.62C627.218 58.9188 628.669 54.0235 631.539 49.8904L629.897 48.7496C626.767 53.2565 625.218 58.5611 625.218 64.62H627.218ZM631.547 49.8799C634.435 45.6053 638.425 42.3005 643.552 39.9704L642.724 38.1496C637.291 40.6194 633.001 44.1547 629.889 48.7601L631.547 49.8799ZM643.552 39.9704C648.685 37.6371 654.481 36.46 660.958 36.46V34.46C654.235 34.46 648.151 35.6829 642.724 38.1496L643.552 39.9704ZM660.958 36.46C669.662 36.46 677.393 38.6333 684.18 42.9631L685.256 41.2769C678.123 36.7266 670.013 34.46 660.958 34.46V36.46ZM684.191 42.9696C690.958 47.1704 695.736 53.0518 698.54 60.6464L700.416 59.9536C697.46 51.9482 692.397 45.7096 685.245 41.2704L684.191 42.9696ZM699.052 59.3954L683.392 66.7754L684.244 68.5846L699.904 61.2046L699.052 59.3954ZM684.743 67.3004C682.747 62.4353 679.557 58.5557 675.187 55.6843L674.089 57.3557C678.119 60.0042 681.049 63.5647 682.893 68.0596L684.743 67.3004ZM675.198 55.6917C670.945 52.8143 666.128 51.38 660.778 51.38V53.38C665.748 53.38 670.171 54.7057 674.078 57.3483L675.198 55.6917ZM660.778 51.38C656.178 51.38 652.391 52.5007 649.525 54.846L650.791 56.394C653.205 54.4193 656.498 53.38 660.778 53.38V51.38ZM649.547 54.8287C646.659 57.0596 645.198 60.0529 645.198 63.72H647.198C647.198 60.6671 648.377 58.2603 650.769 56.4113L649.547 54.8287ZM645.198 63.72C645.198 66.1841 645.85 68.3281 647.205 70.0897L648.791 68.8703C647.746 67.5119 647.198 65.8159 647.198 63.72H645.198ZM647.23 70.1202C648.53 71.6805 650.205 72.9616 652.231 73.9744L653.125 72.1856C651.311 71.2784 649.866 70.1595 648.766 68.8398L647.23 70.1202ZM652.277 73.9962C654.236 74.8533 656.256 75.5876 658.336 76.1994L658.9 74.2806C656.9 73.6923 654.96 72.9867 653.079 72.1638L652.277 73.9962ZM658.335 76.199L674.175 80.879L674.741 78.961L658.901 74.281L658.335 76.199ZM674.185 80.8821C682.091 83.1239 688.084 86.6397 692.247 91.3798L693.749 90.0602C689.271 84.9603 682.905 81.2761 674.731 78.9579L674.185 80.8821ZM692.255 91.389C696.402 95.9973 698.478 101.516 698.478 108H700.478C700.478 101.044 698.234 95.0427 693.741 90.051L692.255 91.389ZM698.478 108C698.478 113.568 696.974 118.464 693.98 122.725L695.616 123.875C698.862 119.256 700.478 113.952 700.478 108H698.478ZM693.977 122.73C691.09 126.886 687.037 130.198 681.775 132.654L682.621 134.466C688.159 131.882 692.506 128.354 695.619 123.87L693.977 122.73ZM681.792 132.646C676.544 134.978 670.388 136.16 663.298 136.16V138.16C670.608 138.16 677.052 136.942 682.604 134.474L681.792 132.646Z" fill="#FFA040" fill-opacity="0.6" mask="url(#path-1-outside-1_0_587)"></path></svg>