<svg xmlns="http://www.w3.org/2000/svg" id="all" viewBox="0 0 128 128"><path d="m10.369 50.26 16.231 8.329v18.593a5.124 5.124 0 0 0 2.827 4.6l31.973 16.173a5.171 5.171 0 0 0 4.651 0l21.435-10.844v4.689a5.542 5.542 0 0 0 -3.444 5.122v14.91c.073 7.372 11.689 7.376 11.763 0v-14.907a5.542 5.542 0 0 0 -4.319-5.4v-6.437l6.54-3.309a5.123 5.123 0 0 0 2.828-4.6v-18.59l16.228-8.329a3.51 3.51 0 0 0 -.118-6.3l-51.753-24.168a3.508 3.508 0 0 0 -2.971 0l-51.753 24.164a3.533 3.533 0 0 0 -.118 6.304zm79.9 63.109c-1.075.13-2.214-.294-2.229-1.534v-8.217h3.763v8.217a1.536 1.536 0 0 1 -1.532 1.534zm1.534-13.751h-3.761c.126-1.907-.741-4.5 2.229-4.227a1.536 1.536 0 0 1 1.534 1.534zm5.049-22.436a1.147 1.147 0 0 1 -.631 1.028l-4.737 2.4v-17.21l5.368-2.755zm-33.127-53.669 50.641 23.645-15.726 8.072a1.982 1.982 0 0 0 -1.274.653l-7.807 4.007-20.647-12.319c2.01-8.42-10.76-10.258-11.212-1.61a5.754 5.754 0 0 0 8.791 4.824l21 12.527v19.317l-23.245 11.756a1.157 1.157 0 0 1 -1.041 0l-31.977-16.176a1.144 1.144 0 0 1 -.632-1.027v-16.54l31.525 16.181a3.519 3.519 0 0 0 3.207 0l17.18-8.817a2 2 0 0 0 -1.826-3.559l-16.957 8.7-33.641-17.264a1.982 1.982 0 0 0 -1.274-.653l-15.725-8.072zm-.3 24.172a1.724 1.724 0 0 1 0-3.447 1.724 1.724 0 0 1 -.001 3.447z"></path></svg>