<svg xmlns="http://www.w3.org/2000/svg" width="24" height="24" viewBox="0 0 24 24" fill="none"><path d="M14 12L10.5 14V10L14 12Z" fill="white" stroke="white" stroke-width="1.5" stroke-linecap="round" stroke-linejoin="round"></path><path d="M2 12.707V11.292C2 8.39702 2 6.94902 2.905 6.01802C3.811 5.08602 5.237 5.04602 8.088 4.96502C9.438 4.92702 10.818 4.90002 12 4.90002C13.181 4.90002 14.561 4.92702 15.912 4.96502C18.763 5.04602 20.189 5.08602 21.094 6.01802C22 6.94902 22 8.39802 22 11.292V12.707C22 15.603 22 17.05 21.095 17.982C20.189 18.913 18.764 18.954 15.912 19.034C14.562 19.073 13.182 19.1 12 19.1C10.6958 19.0961 9.39163 19.0741 8.088 19.034C5.237 18.954 3.811 18.914 2.905 17.982C2 17.05 2 15.602 2 12.708V12.707Z" stroke="white" stroke-width="1.5"></path></svg>