<svg xmlns="http://www.w3.org/2000/svg" width="684" height="140" viewBox="0 0 684 140" fill="none"><mask id="path-1-outside-1_0_187" maskUnits="userSpaceOnUse" x="-1" y="-1" width="686" height="142" fill="black"><rect fill="white" x="-1" y="-1" width="686" height="142"></rect><path d="M36.62 137V21.8H0.98V2.89999H92.78V21.8H57.68V137H36.62ZM139.745 139.16C130.025 139.16 121.385 136.94 113.825 132.5C106.385 127.94 100.565 121.82 96.3645 114.14C92.1645 106.34 90.0645 97.64 90.0645 88.04C90.0645 78.2 92.1645 69.5 96.3645 61.94C100.685 54.38 106.445 48.44 113.645 44.12C120.845 39.68 129.005 37.46 138.125 37.46C145.445 37.46 151.985 38.72 157.745 41.24C163.505 43.76 168.365 47.24 172.325 51.68C176.285 56 179.285 60.98 181.325 66.62C183.485 72.26 184.565 78.26 184.565 84.62C184.565 86.18 184.505 87.8 184.385 89.48C184.265 91.16 184.025 92.72 183.665 94.16H106.085V77.96H172.145L162.425 85.34C163.625 79.46 163.205 74.24 161.165 69.68C159.245 65 156.245 61.34 152.165 58.7C148.205 55.94 143.525 54.56 138.125 54.56C132.725 54.56 127.925 55.94 123.725 58.7C119.525 61.34 116.285 65.18 114.005 70.22C111.725 75.14 110.825 81.14 111.305 88.22C110.705 94.82 111.605 100.58 114.005 105.5C116.525 110.42 120.005 114.26 124.445 117.02C129.005 119.78 134.165 121.16 139.925 121.16C145.805 121.16 150.785 119.84 154.865 117.2C159.065 114.56 162.365 111.14 164.765 106.94L181.325 115.04C179.405 119.6 176.405 123.74 172.325 127.46C168.365 131.06 163.565 133.94 157.925 136.1C152.405 138.14 146.345 139.16 139.745 139.16ZM232.696 139.16C226.096 139.16 220.276 138.02 215.236 135.74C210.316 133.34 206.476 130.1 203.716 126.02C200.956 121.82 199.576 116.9 199.576 111.26C199.576 105.98 200.716 101.24 202.996 97.04C205.396 92.84 209.056 89.3 213.976 86.42C218.896 83.54 225.076 81.5 232.516 80.3L266.356 74.72V90.74L236.476 95.96C231.076 96.92 227.116 98.66 224.596 101.18C222.076 103.58 220.816 106.7 220.816 110.54C220.816 114.26 222.196 117.32 224.956 119.72C227.836 122 231.496 123.14 235.936 123.14C241.456 123.14 246.256 121.94 250.336 119.54C254.536 117.14 257.776 113.96 260.056 110C262.336 105.92 263.476 101.42 263.476 96.5V71.48C263.476 66.68 261.676 62.78 258.076 59.78C254.596 56.66 249.916 55.1 244.036 55.1C238.636 55.1 233.896 56.54 229.816 59.42C225.856 62.18 222.916 65.78 220.996 70.22L204.076 61.76C205.876 56.96 208.816 52.76 212.896 49.16C216.976 45.44 221.716 42.56 227.116 40.52C232.636 38.48 238.456 37.46 244.576 37.46C252.256 37.46 259.036 38.9 264.916 41.78C270.916 44.66 275.536 48.68 278.776 53.84C282.136 58.88 283.816 64.76 283.816 71.48V137H264.376V119.36L268.516 119.9C266.236 123.86 263.296 127.28 259.696 130.16C256.216 133.04 252.196 135.26 247.636 136.82C243.196 138.38 238.216 139.16 232.696 139.16ZM353.859 139.16C344.139 139.16 335.499 136.94 327.939 132.5C320.499 127.94 314.559 121.82 310.119 114.14C305.799 106.46 303.639 97.76 303.639 88.04C303.639 78.44 305.799 69.8 310.119 62.12C314.439 54.44 320.379 48.44 327.939 44.12C335.499 39.68 344.139 37.46 353.859 37.46C360.459 37.46 366.639 38.66 372.399 41.06C378.159 43.34 383.139 46.52 387.339 50.6C391.659 54.68 394.839 59.42 396.879 64.82L379.059 73.1C377.019 68.06 373.719 64.04 369.159 61.04C364.719 57.92 359.619 56.36 353.859 56.36C348.339 56.36 343.359 57.74 338.919 60.5C334.599 63.14 331.179 66.92 328.659 71.84C326.139 76.64 324.879 82.1 324.879 88.22C324.879 94.34 326.139 99.86 328.659 104.78C331.179 109.58 334.599 113.36 338.919 116.12C343.359 118.88 348.339 120.26 353.859 120.26C359.739 120.26 364.839 118.76 369.159 115.76C373.599 112.64 376.899 108.5 379.059 103.34L396.879 111.8C394.959 116.96 391.839 121.64 387.519 125.84C383.319 129.92 378.339 133.16 372.579 135.56C366.819 137.96 360.579 139.16 353.859 139.16ZM416.759 137V0.739995H437.099V58.7L433.859 56.18C436.259 50.06 440.099 45.44 445.379 42.32C450.659 39.08 456.779 37.46 463.739 37.46C470.939 37.46 477.299 39.02 482.819 42.14C488.339 45.26 492.659 49.58 495.779 55.1C498.899 60.62 500.459 66.92 500.459 74V137H480.299V79.58C480.299 74.66 479.339 70.52 477.419 67.16C475.619 63.68 473.099 61.04 469.859 59.24C466.619 57.32 462.899 56.36 458.699 56.36C454.619 56.36 450.899 57.32 447.539 59.24C444.299 61.04 441.719 63.68 439.799 67.16C437.999 70.64 437.099 74.78 437.099 79.58V137H416.759ZM567.948 139.16C558.228 139.16 549.588 136.94 542.028 132.5C534.588 127.94 528.768 121.82 524.568 114.14C520.368 106.34 518.268 97.64 518.268 88.04C518.268 78.2 520.368 69.5 524.568 61.94C528.888 54.38 534.648 48.44 541.848 44.12C549.048 39.68 557.208 37.46 566.328 37.46C573.648 37.46 580.188 38.72 585.948 41.24C591.708 43.76 596.568 47.24 600.528 51.68C604.488 56 607.488 60.98 609.528 66.62C611.688 72.26 612.768 78.26 612.768 84.62C612.768 86.18 612.708 87.8 612.588 89.48C612.468 91.16 612.228 92.72 611.868 94.16H534.288V77.96H600.348L590.628 85.34C591.828 79.46 591.408 74.24 589.368 69.68C587.448 65 584.448 61.34 580.368 58.7C576.408 55.94 571.728 54.56 566.328 54.56C560.928 54.56 556.128 55.94 551.928 58.7C547.728 61.34 544.488 65.18 542.208 70.22C539.928 75.14 539.028 81.14 539.508 88.22C538.908 94.82 539.808 100.58 542.208 105.5C544.728 110.42 548.208 114.26 552.648 117.02C557.208 119.78 562.368 121.16 568.128 121.16C574.008 121.16 578.988 119.84 583.068 117.2C587.268 114.56 590.568 111.14 592.968 106.94L609.528 115.04C607.608 119.6 604.608 123.74 600.528 127.46C596.568 131.06 591.768 133.94 586.128 136.1C580.608 138.14 574.548 139.16 567.948 139.16ZM632.618 137V39.62H652.058V59.24L650.258 56.36C652.418 50 655.898 45.44 660.698 42.68C665.498 39.8 671.258 38.36 677.978 38.36H683.918V56.9H675.458C668.738 56.9 663.278 59 659.078 63.2C654.998 67.28 652.958 73.16 652.958 80.84V137H632.618Z"></path></mask><path d="M36.62 137H35.62V138H36.62V137ZM36.62 21.8H37.62V20.8H36.62V21.8ZM0.98 21.8H-0.0199999V22.8H0.98V21.8ZM0.98 2.89999V1.89999H-0.0199999V2.89999H0.98ZM92.78 2.89999H93.78V1.89999H92.78V2.89999ZM92.78 21.8V22.8H93.78V21.8H92.78ZM57.68 21.8V20.8H56.68V21.8H57.68ZM57.68 137V138H58.68V137H57.68ZM37.62 137V21.8H35.62V137H37.62ZM36.62 20.8H0.98V22.8H36.62V20.8ZM1.98 21.8V2.89999H-0.0199999V21.8H1.98ZM0.98 3.89999H92.78V1.89999H0.98V3.89999ZM91.78 2.89999V21.8H93.78V2.89999H91.78ZM92.78 20.8H57.68V22.8H92.78V20.8ZM56.68 21.8V137H58.68V21.8H56.68ZM57.68 136H36.62V138H57.68V136ZM113.825 132.5L113.302 133.353L113.31 133.358L113.318 133.362L113.825 132.5ZM96.3645 114.14L95.484 114.614L95.4872 114.62L96.3645 114.14ZM96.3645 61.94L95.4962 61.4438L95.4904 61.4544L96.3645 61.94ZM113.645 44.12L114.159 44.9776L114.169 44.9712L113.645 44.12ZM157.745 41.24L157.344 42.1562V42.1562L157.745 41.24ZM172.325 51.68L171.578 52.3457L171.587 52.3557L172.325 51.68ZM181.325 66.62L180.384 66.9601L180.387 66.9689L180.391 66.9776L181.325 66.62ZM184.385 89.48L185.382 89.5512L184.385 89.48ZM183.665 94.16V95.16H184.445L184.635 94.4025L183.665 94.16ZM106.085 94.16H105.085V95.16H106.085V94.16ZM106.085 77.96V76.96H105.085V77.96H106.085ZM172.145 77.96L172.749 78.7564L175.115 76.96H172.145V77.96ZM162.425 85.34L161.445 85.14L160.914 87.7428L163.029 86.1364L162.425 85.34ZM161.165 69.68L160.239 70.0596L160.245 70.0741L160.252 70.0884L161.165 69.68ZM152.165 58.7L151.593 59.5204L151.607 59.5302L151.621 59.5396L152.165 58.7ZM123.725 58.7L124.257 59.5466L124.265 59.5413L124.274 59.5357L123.725 58.7ZM114.005 70.22L114.912 70.6405L114.916 70.6322L114.005 70.22ZM111.305 88.22L112.3 88.3105L112.308 88.2315L112.302 88.1524L111.305 88.22ZM114.005 105.5L113.106 105.938L113.11 105.947L113.114 105.956L114.005 105.5ZM124.445 117.02L123.917 117.869L123.927 117.875L124.445 117.02ZM154.865 117.2L154.332 116.353L154.321 116.36L154.865 117.2ZM164.765 106.94L165.204 106.042L164.362 105.63L163.896 106.444L164.765 106.94ZM181.325 115.04L182.246 115.428L182.613 114.557L181.764 114.142L181.325 115.04ZM172.325 127.46L172.997 128.2L172.998 128.199L172.325 127.46ZM157.925 136.1L158.271 137.038L158.282 137.034L157.925 136.1ZM139.745 138.16C130.183 138.16 121.721 135.978 114.331 131.638L113.318 133.362C121.048 137.902 129.866 140.16 139.745 140.16V138.16ZM114.347 131.647C107.056 127.179 101.358 121.188 97.2419 113.66L95.4872 114.62C99.7706 122.452 105.713 128.701 113.302 133.353L114.347 131.647ZM97.245 113.666C93.1299 106.024 91.0645 97.4887 91.0645 88.04H89.0645C89.0645 97.7913 91.1991 106.656 95.4841 114.614L97.245 113.666ZM91.0645 88.04C91.0645 78.3462 93.132 69.8176 97.2387 62.4256L95.4904 61.4544C91.197 69.1824 89.0645 78.0538 89.0645 88.04H91.0645ZM97.2328 62.4361C101.471 55.0192 107.112 49.206 114.159 44.9775L113.13 43.2625C105.778 47.674 99.898 53.7408 95.4963 61.4439L97.2328 62.4361ZM114.169 44.9712C121.199 40.6361 129.175 38.46 138.125 38.46V36.46C128.834 36.46 120.49 38.7239 113.12 43.2688L114.169 44.9712ZM138.125 38.46C145.329 38.46 151.729 39.6998 157.344 42.1562L158.145 40.3238C152.24 37.7402 145.56 36.46 138.125 36.46V38.46ZM157.344 42.1562C162.98 44.6218 167.719 48.0191 171.578 52.3456L173.071 51.0144C169.01 46.4609 164.03 42.8982 158.145 40.3238L157.344 42.1562ZM171.587 52.3557C175.456 56.5761 178.388 61.4413 180.384 66.9601L182.265 66.2799C180.181 60.5187 177.113 55.4239 173.062 51.0043L171.587 52.3557ZM180.391 66.9776C182.505 72.4975 183.565 78.3757 183.565 84.62H185.565C185.565 78.1443 184.464 72.0225 182.258 66.2623L180.391 66.9776ZM183.565 84.62C183.565 86.1544 183.506 87.7506 183.387 89.4088L185.382 89.5512C185.504 87.8494 185.565 86.2056 185.565 84.62H183.565ZM183.387 89.4088C183.271 91.0385 183.039 92.5406 182.694 93.9175L184.635 94.4025C185.01 92.8994 185.258 91.2815 185.382 89.5512L183.387 89.4088ZM183.665 93.16H106.085V95.16H183.665V93.16ZM107.085 94.16V77.96H105.085V94.16H107.085ZM106.085 78.96H172.145V76.96H106.085V78.96ZM171.54 77.1636L161.82 84.5436L163.029 86.1364L172.749 78.7564L171.54 77.1636ZM163.404 85.54C164.638 79.4973 164.219 74.0583 162.077 69.2716L160.252 70.0884C162.19 74.4217 162.612 79.4227 161.445 85.14L163.404 85.54ZM162.09 69.3004C160.096 64.4399 156.966 60.6159 152.708 57.8604L151.621 59.5396C155.523 62.064 158.393 65.56 160.239 70.0596L162.09 69.3004ZM152.736 57.8796C148.589 54.989 143.704 53.56 138.125 53.56V55.56C143.345 55.56 147.82 56.891 151.593 59.5204L152.736 57.8796ZM138.125 53.56C132.545 53.56 127.551 54.989 123.175 57.8643L124.274 59.5357C128.298 56.8909 132.904 55.56 138.125 55.56V53.56ZM123.192 57.8534C118.807 60.6096 115.445 64.6103 113.093 69.8078L114.916 70.6322C117.124 65.7497 120.242 62.0703 124.257 59.5466L123.192 57.8534ZM113.097 69.7995C110.728 74.9119 109.819 81.0901 110.307 88.2876L112.302 88.1524C111.83 81.1899 112.721 75.368 114.912 70.6405L113.097 69.7995ZM110.309 88.1295C109.696 94.8729 110.61 100.823 113.106 105.938L114.903 105.062C112.599 100.337 111.713 94.7671 112.3 88.3105L110.309 88.1295ZM113.114 105.956C115.712 111.028 119.313 115.008 123.917 117.869L124.972 116.171C120.696 113.512 117.337 109.812 114.895 105.044L113.114 105.956ZM123.927 117.875C128.655 120.738 133.997 122.16 139.925 122.16V120.16C134.332 120.16 129.354 118.822 124.962 116.164L123.927 117.875ZM139.925 122.16C145.956 122.16 151.135 120.804 155.408 118.04L154.321 116.36C150.434 118.876 145.653 120.16 139.925 120.16V122.16ZM155.397 118.047C159.732 115.322 163.149 111.783 165.633 107.436L163.896 106.444C161.58 110.497 158.397 113.798 154.332 116.353L155.397 118.047ZM164.325 107.838L180.885 115.938L181.764 114.142L165.204 106.042L164.325 107.838ZM180.403 114.652C178.545 119.064 175.636 123.087 171.651 126.721L172.998 128.199C177.173 124.393 180.264 120.136 182.246 115.428L180.403 114.652ZM171.652 126.72C167.795 130.226 163.106 133.045 157.567 135.166L158.282 137.034C164.024 134.835 168.934 131.894 172.997 128.2L171.652 126.72ZM157.578 135.162C152.182 137.156 146.241 138.16 139.745 138.16V140.16C146.449 140.16 152.628 139.124 158.271 137.038L157.578 135.162ZM215.236 135.74L214.798 136.639L214.811 136.645L214.824 136.651L215.236 135.74ZM203.716 126.02L202.88 126.569L202.888 126.58L203.716 126.02ZM202.996 97.04L202.128 96.5439L202.123 96.5533L202.117 96.5629L202.996 97.04ZM213.976 86.42L213.471 85.557L213.976 86.42ZM232.516 80.3L232.675 81.2872L232.679 81.2867L232.516 80.3ZM266.356 74.72H267.356V73.5416L266.194 73.7333L266.356 74.72ZM266.356 90.74L266.528 91.7251L267.356 91.5804V90.74H266.356ZM236.476 95.96L236.304 94.9749L236.301 94.9754L236.476 95.96ZM224.596 101.18L225.286 101.904L225.295 101.896L225.303 101.887L224.596 101.18ZM224.956 119.72L224.3 120.475L224.317 120.49L224.336 120.504L224.956 119.72ZM250.336 119.54L249.84 118.672L249.829 118.678L250.336 119.54ZM260.056 110L260.923 110.499L260.929 110.488L260.056 110ZM258.076 59.78L257.409 60.5246L257.422 60.5366L257.436 60.5482L258.076 59.78ZM229.816 59.42L230.388 60.2404L230.393 60.237L229.816 59.42ZM220.996 70.22L220.549 71.1144L221.495 71.5872L221.914 70.6169L220.996 70.22ZM204.076 61.76L203.14 61.4089L202.824 62.2518L203.629 62.6544L204.076 61.76ZM212.896 49.16L213.558 49.9098L213.564 49.9044L213.57 49.8989L212.896 49.16ZM227.116 40.52L226.77 39.582L226.763 39.5845L227.116 40.52ZM264.916 41.78L264.476 42.6781L264.484 42.6815L264.916 41.78ZM278.776 53.84L277.929 54.3718L277.937 54.3833L277.944 54.3947L278.776 53.84ZM283.816 137V138H284.816V137H283.816ZM264.376 137H263.376V138H264.376V137ZM264.376 119.36L264.506 118.368L263.376 118.221V119.36H264.376ZM268.516 119.9L269.383 120.399L270.13 119.102L268.646 118.908L268.516 119.9ZM259.696 130.16L259.072 129.379L259.065 129.384L259.059 129.39L259.696 130.16ZM247.636 136.82L247.313 135.874L247.305 135.877L247.636 136.82ZM232.696 138.16C226.211 138.16 220.536 137.04 215.648 134.829L214.824 136.651C220.016 139 225.981 140.16 232.696 140.16V138.16ZM215.675 134.841C210.894 132.509 207.196 129.379 204.545 125.46L202.888 126.58C205.757 130.821 209.738 134.171 214.798 136.639L215.675 134.841ZM204.552 125.471C201.912 121.453 200.576 116.729 200.576 111.26H198.576C198.576 117.071 200.001 122.187 202.881 126.569L204.552 125.471ZM200.576 111.26C200.576 106.129 201.683 101.556 203.875 97.5171L202.117 96.5629C199.75 100.924 198.576 105.831 198.576 111.26H200.576ZM203.864 97.5361C206.163 93.5132 209.685 90.0905 214.481 87.283L213.471 85.557C208.427 88.5095 204.629 92.1668 202.128 96.5439L203.864 97.5361ZM214.481 87.283C219.267 84.482 225.32 82.4735 232.675 81.2872L232.357 79.3128C224.832 80.5265 218.526 82.598 213.471 85.557L214.481 87.283ZM232.679 81.2867L266.519 75.7067L266.194 73.7333L232.354 79.3133L232.679 81.2867ZM265.356 74.72V90.74H267.356V74.72H265.356ZM266.184 89.7549L236.304 94.9749L236.648 96.9451L266.528 91.7251L266.184 89.7549ZM236.301 94.9754C230.801 95.9532 226.613 97.7493 223.889 100.473L225.303 101.887C227.62 99.5707 231.351 97.8867 236.651 96.9446L236.301 94.9754ZM223.907 100.456C221.167 103.065 219.816 106.458 219.816 110.54H221.816C221.816 106.942 222.986 104.095 225.286 101.904L223.907 100.456ZM219.816 110.54C219.816 114.544 221.317 117.881 224.3 120.475L225.612 118.965C223.075 116.759 221.816 113.976 221.816 110.54H219.816ZM224.336 120.504C227.427 122.951 231.32 124.14 235.936 124.14V122.14C231.673 122.14 228.246 121.049 225.577 118.936L224.336 120.504ZM235.936 124.14C241.605 124.14 246.586 122.906 250.843 120.402L249.829 118.678C245.927 120.974 241.308 122.14 235.936 122.14V124.14ZM250.832 120.408C255.177 117.926 258.549 114.622 260.923 110.499L259.19 109.501C257.003 113.298 253.895 116.354 249.84 118.672L250.832 120.408ZM260.929 110.488C263.297 106.251 264.476 101.581 264.476 96.5H262.476C262.476 101.259 261.376 105.589 259.183 109.512L260.929 110.488ZM264.476 96.5V71.48H262.476V96.5H264.476ZM264.476 71.48C264.476 66.3915 262.551 62.207 258.716 59.0118L257.436 60.5482C260.802 63.353 262.476 66.9685 262.476 71.48H264.476ZM258.744 59.0354C255.037 55.7117 250.097 54.1 244.036 54.1V56.1C249.736 56.1 254.156 57.6083 257.409 60.5246L258.744 59.0354ZM244.036 54.1C238.447 54.1 233.502 55.5941 229.24 58.603L230.393 60.237C234.29 57.4859 238.825 56.1 244.036 56.1V54.1ZM229.244 58.5996C225.132 61.4661 222.072 65.2129 220.078 69.8231L221.914 70.6169C223.761 66.3471 226.581 62.8939 230.388 60.2404L229.244 58.5996ZM221.443 69.3256L204.523 60.8656L203.629 62.6544L220.549 71.1144L221.443 69.3256ZM205.013 62.1111C206.752 57.4739 209.593 53.4083 213.558 49.9098L212.235 48.4102C208.04 52.1117 205.001 56.446 203.14 61.4089L205.013 62.1111ZM213.57 49.8989C217.552 46.268 222.182 43.4529 227.47 41.4555L226.763 39.5845C221.25 41.6671 216.4 44.612 212.223 48.421L213.57 49.8989ZM227.463 41.458C232.868 39.4606 238.57 38.46 244.576 38.46V36.46C238.343 36.46 232.405 37.4994 226.77 39.582L227.463 41.458ZM244.576 38.46C252.13 38.46 258.755 39.8758 264.476 42.6781L265.356 40.8819C259.317 37.9242 252.382 36.46 244.576 36.46V38.46ZM264.484 42.6815C270.33 45.4877 274.799 49.3863 277.929 54.3718L279.623 53.3082C276.274 47.9737 271.503 43.8323 265.349 40.8785L264.484 42.6815ZM277.944 54.3947C281.183 59.2527 282.816 64.935 282.816 71.48H284.816C284.816 64.585 283.09 58.5073 279.608 53.2853L277.944 54.3947ZM282.816 71.48V137H284.816V71.48H282.816ZM283.816 136H264.376V138H283.816V136ZM265.376 137V119.36H263.376V137H265.376ZM264.247 120.352L268.387 120.892L268.646 118.908L264.506 118.368L264.247 120.352ZM267.65 119.401C265.433 123.252 262.575 126.576 259.072 129.379L260.321 130.941C264.018 127.984 267.04 124.468 269.383 120.399L267.65 119.401ZM259.059 129.39C255.678 132.187 251.766 134.35 247.313 135.874L247.96 137.766C252.627 136.17 256.755 133.893 260.334 130.93L259.059 129.39ZM247.305 135.877C242.988 137.393 238.122 138.16 232.696 138.16V140.16C238.31 140.16 243.405 139.367 247.968 137.763L247.305 135.877ZM327.939 132.5L327.416 133.353L327.424 133.358L327.432 133.362L327.939 132.5ZM310.119 114.14L309.247 114.63L309.253 114.641L310.119 114.14ZM310.119 62.12L310.99 62.6103L310.119 62.12ZM327.939 44.12L328.435 44.9883L328.445 44.9823L327.939 44.12ZM372.399 41.06L372.014 41.9831L372.022 41.9865L372.031 41.9898L372.399 41.06ZM387.339 50.6L386.642 51.3173L386.652 51.327L387.339 50.6ZM396.879 64.82L397.3 65.7269L398.142 65.3355L397.814 64.4666L396.879 64.82ZM379.059 73.1L378.132 73.4752L378.526 74.45L379.48 74.0069L379.059 73.1ZM369.159 61.04L368.584 61.8582L368.596 61.867L368.609 61.8754L369.159 61.04ZM338.919 60.5L339.44 61.3533L339.447 61.3493L338.919 60.5ZM328.659 71.84L329.544 72.3049L329.549 72.2959L328.659 71.84ZM328.659 104.78L327.769 105.236L327.773 105.245L328.659 104.78ZM338.919 116.12L338.38 116.963L338.391 116.969L338.919 116.12ZM369.159 115.76L369.729 116.581L369.734 116.578L369.159 115.76ZM379.059 103.34L379.488 102.437L378.541 101.987L378.136 102.954L379.059 103.34ZM396.879 111.8L397.816 112.149L398.136 111.29L397.308 110.897L396.879 111.8ZM387.519 125.84L388.216 126.557L388.216 126.557L387.519 125.84ZM353.859 138.16C344.297 138.16 335.835 135.978 328.445 131.638L327.432 133.362C335.162 137.902 343.981 140.16 353.859 140.16V138.16ZM328.461 131.647C321.166 127.176 315.343 121.178 310.984 113.639L309.253 114.641C313.775 122.462 319.832 128.704 327.416 133.353L328.461 131.647ZM310.99 113.65C306.763 106.134 304.639 97.6064 304.639 88.04H302.639C302.639 97.9136 304.835 106.786 309.247 114.63L310.99 113.65ZM304.639 88.04C304.639 78.5959 306.762 70.1274 310.99 62.6103L309.247 61.6297C304.836 69.4726 302.639 78.284 302.639 88.04H304.639ZM310.99 62.6103C315.223 55.0859 321.034 49.2174 328.435 44.9882L327.443 43.2518C319.724 47.6626 313.655 53.7941 309.247 61.6297L310.99 62.6103ZM328.445 44.9823C335.835 40.642 344.297 38.46 353.859 38.46V36.46C343.981 36.46 335.162 38.718 327.432 43.2577L328.445 44.9823ZM353.859 38.46C360.334 38.46 366.383 39.6367 372.014 41.9831L372.783 40.1369C366.895 37.6832 360.583 36.46 353.859 36.46V38.46ZM372.031 41.9898C377.675 44.2242 382.542 47.3343 386.642 51.3173L388.036 49.8827C383.736 45.7057 378.642 42.4558 372.767 40.1302L372.031 41.9898ZM386.652 51.327C390.865 55.3061 393.958 59.9194 395.943 65.1734L397.814 64.4666C395.719 58.9206 392.452 54.0539 388.025 49.873L386.652 51.327ZM396.457 63.9131L378.637 72.1931L379.48 74.0069L397.3 65.7269L396.457 63.9131ZM379.986 72.7248C377.869 67.4959 374.437 63.3157 369.708 60.2046L368.609 61.8754C373 64.7643 376.168 68.6241 378.132 73.4752L379.986 72.7248ZM369.734 60.2218C365.115 56.976 359.811 55.36 353.859 55.36V57.36C359.426 57.36 364.323 58.864 368.584 61.8582L369.734 60.2218ZM353.859 55.36C348.163 55.36 342.998 56.7866 338.391 59.6507L339.447 61.3493C343.719 58.6934 348.514 57.36 353.859 57.36V55.36ZM338.397 59.6467C333.906 62.3915 330.365 66.3158 327.769 71.3841L329.549 72.2959C331.993 67.5242 335.292 63.8885 339.44 61.3533L338.397 59.6467ZM327.773 71.3752C325.169 76.3361 323.879 81.9592 323.879 88.22H325.879C325.879 82.2408 327.109 76.9439 329.544 72.3048L327.773 71.3752ZM323.879 88.22C323.879 94.4813 325.169 100.16 327.769 105.236L329.549 104.324C327.109 99.5598 325.879 94.1987 325.879 88.22H323.879ZM327.773 105.245C330.369 110.19 333.905 114.104 338.38 116.963L339.457 115.277C335.292 112.616 331.988 108.97 329.544 104.315L327.773 105.245ZM338.391 116.969C342.998 119.833 348.163 121.26 353.859 121.26V119.26C348.514 119.26 343.719 117.927 339.447 115.271L338.391 116.969ZM353.859 121.26C359.918 121.26 365.222 119.711 369.729 116.581L368.588 114.939C364.455 117.809 359.56 119.26 353.859 119.26V121.26ZM369.734 116.578C374.333 113.346 377.751 109.054 379.981 103.726L378.136 102.954C376.047 107.946 372.865 111.934 368.584 114.942L369.734 116.578ZM378.63 104.243L396.45 112.703L397.308 110.897L379.488 102.437L378.63 104.243ZM395.942 111.451C394.078 116.46 391.045 121.017 386.822 125.123L388.216 126.557C392.632 122.263 395.84 117.46 397.816 112.149L395.942 111.451ZM386.822 125.123C382.718 129.109 377.846 132.282 372.194 134.637L372.963 136.483C378.832 134.038 383.92 130.731 388.216 126.557L386.822 125.123ZM372.194 134.637C366.565 136.982 360.457 138.16 353.859 138.16V140.16C360.701 140.16 367.072 138.938 372.963 136.483L372.194 134.637ZM416.759 137H415.759V138H416.759V137ZM416.759 0.739995V-0.260005H415.759V0.739995H416.759ZM437.099 0.739995H438.099V-0.260005H437.099V0.739995ZM437.099 58.7L436.485 59.4893L438.099 60.7446V58.7H437.099ZM433.859 56.18L432.928 55.8149L432.655 56.5106L433.245 56.9693L433.859 56.18ZM445.379 42.32L445.888 43.1809L445.895 43.1767L445.902 43.1723L445.379 42.32ZM482.819 42.14L482.327 43.0106V43.0106L482.819 42.14ZM495.779 55.1L494.908 55.5921V55.5921L495.779 55.1ZM500.459 137V138H501.459V137H500.459ZM480.299 137H479.299V138H480.299V137ZM477.419 67.16L476.531 67.6194L476.54 67.638L476.551 67.6561L477.419 67.16ZM469.859 59.24L469.349 60.1003L469.361 60.1074L469.373 60.1142L469.859 59.24ZM447.539 59.24L448.025 60.1142L448.035 60.1082L447.539 59.24ZM439.799 67.16L438.923 66.6769L438.917 66.6887L438.911 66.7006L439.799 67.16ZM437.099 137V138H438.099V137H437.099ZM417.759 137V0.739995H415.759V137H417.759ZM416.759 1.73999H437.099V-0.260005H416.759V1.73999ZM436.099 0.739995V58.7H438.099V0.739995H436.099ZM437.713 57.9106L434.473 55.3906L433.245 56.9693L436.485 59.4893L437.713 57.9106ZM434.79 56.5451C437.115 50.6169 440.814 46.179 445.888 43.1809L444.87 41.4591C439.384 44.701 435.403 49.5031 432.928 55.8149L434.79 56.5451ZM445.902 43.1723C451.006 40.0404 456.94 38.46 463.739 38.46V36.46C456.618 36.46 450.312 38.1196 444.856 41.4677L445.902 43.1723ZM463.739 38.46C470.79 38.46 476.976 39.9864 482.327 43.0106L483.311 41.2694C477.621 38.0536 471.088 36.46 463.739 36.46V38.46ZM482.327 43.0106C487.689 46.0411 491.878 50.2303 494.908 55.5921L496.649 54.6079C493.44 48.9297 488.989 44.4789 483.311 41.2694L482.327 43.0106ZM494.908 55.5921C497.934 60.945 499.459 67.0719 499.459 74H501.459C501.459 66.7681 499.864 60.295 496.649 54.6079L494.908 55.5921ZM499.459 74V137H501.459V74H499.459ZM500.459 136H480.299V138H500.459V136ZM481.299 137V79.58H479.299V137H481.299ZM481.299 79.58C481.299 74.5323 480.314 70.2107 478.287 66.6639L476.551 67.6561C478.364 70.8293 479.299 74.7877 479.299 79.58H481.299ZM478.307 66.7006C476.422 63.0562 473.767 60.267 470.345 58.3658L469.373 60.1142C472.431 61.813 474.816 64.3038 476.531 67.6194L478.307 66.7006ZM470.369 58.3797C466.957 56.358 463.057 55.36 458.699 55.36V57.36C462.741 57.36 466.281 58.282 469.349 60.1003L470.369 58.3797ZM458.699 55.36C454.455 55.36 450.562 56.3607 447.043 58.3718L448.035 60.1082C451.236 58.2793 454.783 57.36 458.699 57.36V55.36ZM447.053 58.3658C443.637 60.2636 440.927 63.0449 438.923 66.6769L440.674 67.6431C442.511 64.3151 444.961 61.8163 448.025 60.1142L447.053 58.3658ZM438.911 66.7006C437.023 70.3511 436.099 74.6556 436.099 79.58H438.099C438.099 74.9044 438.975 70.9289 440.687 67.6194L438.911 66.7006ZM436.099 79.58V137H438.099V79.58H436.099ZM437.099 136H416.759V138H437.099V136ZM542.028 132.5L541.505 133.353L541.513 133.358L541.521 133.362L542.028 132.5ZM524.568 114.14L523.687 114.614L523.69 114.62L524.568 114.14ZM524.568 61.94L523.699 61.4438L523.693 61.4544L524.568 61.94ZM541.848 44.12L542.362 44.9776L542.373 44.9712L541.848 44.12ZM585.948 41.24L585.547 42.1562V42.1562L585.948 41.24ZM600.528 51.68L599.781 52.3457L599.791 52.3557L600.528 51.68ZM609.528 66.62L608.587 66.9601L608.59 66.9689L608.594 66.9776L609.528 66.62ZM612.588 89.48L613.585 89.5512L612.588 89.48ZM611.868 94.16V95.16H612.648L612.838 94.4025L611.868 94.16ZM534.288 94.16H533.288V95.16H534.288V94.16ZM534.288 77.96V76.96H533.288V77.96H534.288ZM600.348 77.96L600.952 78.7564L603.318 76.96H600.348V77.96ZM590.628 85.34L589.648 85.14L589.117 87.7428L591.232 86.1364L590.628 85.34ZM589.368 69.68L588.443 70.0596L588.448 70.0741L588.455 70.0884L589.368 69.68ZM580.368 58.7L579.796 59.5204L579.81 59.5302L579.824 59.5396L580.368 58.7ZM551.928 58.7L552.46 59.5466L552.468 59.5413L552.477 59.5357L551.928 58.7ZM542.208 70.22L543.115 70.6405L543.119 70.6322L542.208 70.22ZM539.508 88.22L540.504 88.3105L540.511 88.2315L540.505 88.1524L539.508 88.22ZM542.208 105.5L541.309 105.938L541.313 105.947L541.318 105.956L542.208 105.5ZM552.648 117.02L552.12 117.869L552.13 117.875L552.648 117.02ZM583.068 117.2L582.535 116.353L582.524 116.36L583.068 117.2ZM592.968 106.94L593.407 106.042L592.565 105.63L592.099 106.444L592.968 106.94ZM609.528 115.04L610.449 115.428L610.816 114.557L609.967 114.142L609.528 115.04ZM600.528 127.46L601.2 128.2L601.201 128.199L600.528 127.46ZM586.128 136.1L586.474 137.038L586.485 137.034L586.128 136.1ZM567.948 138.16C558.386 138.16 549.924 135.978 542.534 131.638L541.521 133.362C549.251 137.902 558.069 140.16 567.948 140.16V138.16ZM542.55 131.647C535.259 127.179 529.562 121.188 525.445 113.66L523.69 114.62C527.974 122.452 533.916 128.701 541.505 133.353L542.55 131.647ZM525.448 113.666C521.333 106.024 519.268 97.4887 519.268 88.04H517.268C517.268 97.7913 519.402 106.656 523.687 114.614L525.448 113.666ZM519.268 88.04C519.268 78.3462 521.335 69.8176 525.442 62.4256L523.693 61.4544C519.4 69.1824 517.268 78.0538 517.268 88.04H519.268ZM525.436 62.4361C529.674 55.0192 535.315 49.206 542.362 44.9775L541.333 43.2625C533.981 47.674 528.101 53.7408 523.699 61.4439L525.436 62.4361ZM542.373 44.9712C549.402 40.6361 557.378 38.46 566.328 38.46V36.46C557.037 36.46 548.693 38.7239 541.323 43.2688L542.373 44.9712ZM566.328 38.46C573.532 38.46 579.932 39.6998 585.547 42.1562L586.348 40.3238C580.443 37.7402 573.763 36.46 566.328 36.46V38.46ZM585.547 42.1562C591.183 44.6218 595.923 48.0191 599.781 52.3456L601.274 51.0144C597.213 46.4609 592.233 42.8982 586.348 40.3238L585.547 42.1562ZM599.791 52.3557C603.659 56.5761 606.591 61.4413 608.587 66.9601L610.468 66.2799C608.384 60.5187 605.316 55.4239 601.265 51.0043L599.791 52.3557ZM608.594 66.9776C610.708 72.4975 611.768 78.3757 611.768 84.62H613.768C613.768 78.1443 612.668 72.0225 610.461 66.2623L608.594 66.9776ZM611.768 84.62C611.768 86.1544 611.709 87.7506 611.59 89.4088L613.585 89.5512C613.707 87.8494 613.768 86.2056 613.768 84.62H611.768ZM611.59 89.4088C611.474 91.0385 611.242 92.5406 610.898 93.9175L612.838 94.4025C613.214 92.8994 613.462 91.2815 613.585 89.5512L611.59 89.4088ZM611.868 93.16H534.288V95.16H611.868V93.16ZM535.288 94.16V77.96H533.288V94.16H535.288ZM534.288 78.96H600.348V76.96H534.288V78.96ZM599.743 77.1636L590.023 84.5436L591.232 86.1364L600.952 78.7564L599.743 77.1636ZM591.607 85.54C592.841 79.4973 592.422 74.0583 590.28 69.2716L588.455 70.0884C590.393 74.4217 590.815 79.4227 589.648 85.14L591.607 85.54ZM590.293 69.3004C588.299 64.4399 585.169 60.6159 580.911 57.8604L579.824 59.5396C583.726 62.064 586.597 65.56 588.443 70.0596L590.293 69.3004ZM580.939 57.8796C576.792 54.989 571.907 53.56 566.328 53.56V55.56C571.548 55.56 576.023 56.891 579.796 59.5204L580.939 57.8796ZM566.328 53.56C560.748 53.56 555.754 54.989 551.378 57.8643L552.477 59.5357C556.501 56.8909 561.108 55.56 566.328 55.56V53.56ZM551.396 57.8534C547.01 60.6096 543.648 64.6103 541.297 69.8078L543.119 70.6322C545.328 65.7497 548.445 62.0703 552.46 59.5466L551.396 57.8534ZM541.3 69.7995C538.931 74.9119 538.022 81.0901 538.51 88.2876L540.505 88.1524C540.033 81.1899 540.924 75.368 543.115 70.6405L541.3 69.7995ZM538.512 88.1295C537.899 94.8729 538.813 100.823 541.309 105.938L543.106 105.062C540.802 100.337 539.917 94.7671 540.504 88.3105L538.512 88.1295ZM541.318 105.956C543.915 111.028 547.517 115.008 552.12 117.869L553.176 116.171C548.899 113.512 545.54 109.812 543.098 105.044L541.318 105.956ZM552.13 117.875C556.859 120.738 562.2 122.16 568.128 122.16V120.16C562.535 120.16 557.557 118.822 553.165 116.164L552.13 117.875ZM568.128 122.16C574.16 122.16 579.338 120.804 583.611 118.04L582.524 116.36C578.637 118.876 573.856 120.16 568.128 120.16V122.16ZM583.6 118.047C587.935 115.322 591.352 111.783 593.836 107.436L592.099 106.444C589.783 110.497 586.6 113.798 582.535 116.353L583.6 118.047ZM592.528 107.838L609.088 115.938L609.967 114.142L593.407 106.042L592.528 107.838ZM608.606 114.652C606.748 119.064 603.839 123.087 599.854 126.721L601.201 128.199C605.376 124.393 608.467 120.136 610.449 115.428L608.606 114.652ZM599.855 126.72C595.998 130.226 591.309 133.045 585.77 135.166L586.485 137.034C592.227 134.835 597.137 131.894 601.2 128.2L599.855 126.72ZM585.781 135.162C580.385 137.156 574.444 138.16 567.948 138.16V140.16C574.652 140.16 580.831 139.124 586.474 137.038L585.781 135.162ZM632.618 137H631.618V138H632.618V137ZM632.618 39.62V38.62H631.618V39.62H632.618ZM652.058 39.62H653.058V38.62H652.058V39.62ZM652.058 59.24L651.21 59.77L653.058 62.7268V59.24H652.058ZM650.258 56.36L649.311 56.0384L649.159 56.4877L649.41 56.89L650.258 56.36ZM660.698 42.68L661.197 43.5469L661.205 43.5423L661.213 43.5375L660.698 42.68ZM683.918 38.36H684.918V37.36H683.918V38.36ZM683.918 56.9V57.9H684.918V56.9H683.918ZM652.958 137V138H653.958V137H652.958ZM633.618 137V39.62H631.618V137H633.618ZM632.618 40.62H652.058V38.62H632.618V40.62ZM651.058 39.62V59.24H653.058V39.62H651.058ZM652.906 58.71L651.106 55.83L649.41 56.89L651.21 59.77L652.906 58.71ZM651.205 56.6816C653.304 50.5005 656.65 46.1611 661.197 43.5469L660.2 41.8131C655.146 44.7188 651.532 49.4995 649.311 56.0384L651.205 56.6816ZM661.213 43.5375C665.829 40.7679 671.403 39.36 677.978 39.36V37.36C671.114 37.36 665.168 38.8321 660.184 41.8225L661.213 43.5375ZM677.978 39.36H683.918V37.36H677.978V39.36ZM682.918 38.36V56.9H684.918V38.36H682.918ZM683.918 55.9H675.458V57.9H683.918V55.9ZM675.458 55.9C668.511 55.9 662.784 58.0801 658.371 62.4929L659.785 63.9071C663.773 59.9199 668.966 57.9 675.458 57.9V55.9ZM658.371 62.4929C654.048 66.8161 651.958 72.9855 651.958 80.84H653.958C653.958 73.3345 655.949 67.7439 659.785 63.9071L658.371 62.4929ZM651.958 80.84V137H653.958V80.84H651.958ZM652.958 136H632.618V138H652.958V136Z" fill="#F75C03" fill-opacity="0.2" mask="url(#path-1-outside-1_0_187)"></path></svg>