<svg xmlns="http://www.w3.org/2000/svg" width="198" height="30" viewBox="0 0 198 30" fill="none"><path d="M15 0L18.3677 10.3647H29.2658L20.4491 16.7705L23.8168 27.1353L15 20.7295L6.18322 27.1353L9.55093 16.7705L0.734152 10.3647H11.6323L15 0Z" fill="#F75C03"></path><path d="M57 0L60.3677 10.3647H71.2658L62.4491 16.7705L65.8168 27.1353L57 20.7295L48.1832 27.1353L51.5509 16.7705L42.7342 10.3647H53.6323L57 0Z" fill="#F75C03"></path><path d="M99 0L102.368 10.3647H113.266L104.449 16.7705L107.817 27.1353L99 20.7295L90.1832 27.1353L93.5509 16.7705L84.7342 10.3647H95.6323L99 0Z" fill="#F75C03"></path><path d="M141 0L144.368 10.3647H155.266L146.449 16.7705L149.817 27.1353L141 20.7295L132.183 27.1353L135.551 16.7705L126.734 10.3647H137.632L141 0Z" fill="#F75C03"></path><path d="M183 0L186.368 10.3647H197.266L188.449 16.7705L191.817 27.1353L183 20.7295L174.183 27.1353L177.551 16.7705L168.734 10.3647H179.632L183 0Z" fill="#F75C03"></path></svg>